<svg width="228" height="202" viewBox="0 0 228 202" fill="none" xmlns="http://www.w3.org/2000/svg">
<path d="M40.4009 143.813H46.1243L49.9211 135.434H64.7532L68.4004 143.813H74.1237L57.6832 107.06L40.4009 143.813ZM52.1095 130.44L57.4774 118.675L62.6396 130.44H52.1095Z" fill="black"/>
<path d="M112.653 109.099V130.028C112.653 131.899 112.709 134.199 113.738 136.014C114.786 137.79 117.124 139.605 120.191 139.605C123.258 139.605 125.596 137.79 126.644 136.014C127.691 134.199 127.729 131.899 127.729 130.028V109.099H133.04V131.431C133.04 134.181 132.461 137.529 129.805 140.428C127.99 142.41 124.904 144.486 120.172 144.486C115.44 144.486 112.373 142.41 110.54 140.428C107.884 137.51 107.304 134.181 107.304 131.431V109.099H112.653Z" fill="black"/>
<path d="M146.694 138.819H156.888V143.813H141.382V109.099H146.694V138.819Z" fill="black"/>
<path d="M167.193 130.028C167.193 131.899 167.249 134.199 168.278 136.014C169.326 137.79 171.664 139.605 174.731 139.605C177.798 139.605 180.136 137.79 181.184 136.014C182.231 134.199 182.269 131.899 182.269 130.028V109.099H187.58V131.431C187.58 134.181 187.001 137.529 184.345 140.428C182.53 142.41 179.444 144.486 174.712 144.486C169.98 144.486 166.913 142.41 165.08 140.428C162.424 137.51 161.844 134.181 161.844 131.431V109.099H167.156V130.028H167.193Z" fill="black"/>
<path d="M78.7061 114.093H92.977L88.7313 121.462H94.5107L101.618 109.099H78.7061V114.093Z" fill="black"/>
<path d="M101.188 128.962V123.949H78.7061V128.962H84.4295L75.9006 143.813H101.188V138.819H84.5417L90.2089 128.962H101.188Z" fill="black"/>
<path d="M110.259 61.9468H105.752H100.777H97.2602L105.752 47.1521H110.259V39.6707H105.752H88.5069V47.1521H97.1106L88.6004 61.9468H67.0537V69.4469H75.6387L62.8454 91.7418H100.777V84.2416H75.8071L84.2985 69.4469H100.777H105.752H110.259V61.9468Z" fill="black"/>
<path d="M127.224 91.7418H165.155L152.361 69.4469H160.946V61.9468H139.4L130.889 47.1521H139.493V39.6707H122.248H117.741V47.1521H122.248L130.74 61.9468H127.224H122.248H117.741V69.4469H122.248H127.224H143.702L152.193 84.2416H127.224V91.7418Z" fill="black"/>
</svg>
