<svg width="163" height="33" viewBox="0 0 163 33" fill="none" xmlns="http://www.w3.org/2000/svg">
<rect x="59.9607" y="0.582143" width="101.779" height="31.4929" rx="15.7464" stroke="#174EA6" stroke-width="1.16429"/>
<path d="M74.8384 23.3286V9.78053H79.6675C80.7216 9.78053 81.5948 9.97237 82.2872 10.3561C82.9796 10.7397 83.4978 11.2646 83.8418 11.9305C84.1858 12.592 84.3578 13.3373 84.3578 14.1664C84.3578 15 84.1836 15.7497 83.8352 16.4156C83.4912 17.0772 82.9708 17.602 82.274 17.9901C81.5816 18.3738 80.7106 18.5656 79.6609 18.5656H76.3401V16.8324H79.4757C80.1416 16.8324 80.6819 16.7177 81.0964 16.4884C81.511 16.2547 81.8153 15.9371 82.0094 15.5358C82.2034 15.1345 82.3004 14.678 82.3004 14.1664C82.3004 13.6549 82.2034 13.2006 82.0094 12.8037C81.8153 12.4068 81.5088 12.0959 81.0898 11.871C80.6753 11.646 80.1284 11.5336 79.4492 11.5336H76.8825V23.3286H74.8384ZM85.664 23.3286V13.1675H87.5758V14.7817H87.6816C87.8668 14.2348 88.1932 13.8048 88.6607 13.4917C89.1326 13.1742 89.6662 13.0154 90.2616 13.0154C90.385 13.0154 90.5306 13.0198 90.6982 13.0286C90.8702 13.0374 91.0047 13.0485 91.1017 13.0617V14.9537C91.0223 14.9316 90.8812 14.9074 90.6783 14.8809C90.4755 14.85 90.2726 14.8346 90.0697 14.8346C89.6022 14.8346 89.1855 14.9338 88.8194 15.1323C88.4578 15.3263 88.1711 15.5975 87.9594 15.946C87.7478 16.2899 87.6419 16.6825 87.6419 17.1235V23.3286H85.664ZM95.8974 23.5337C94.8963 23.5337 94.0341 23.3198 93.3109 22.892C92.592 22.4598 92.0363 21.8534 91.6438 21.0728C91.2557 20.2878 91.0617 19.3682 91.0617 18.3142C91.0617 17.2734 91.2557 16.3561 91.6438 15.5623C92.0363 14.7684 92.5832 14.1488 93.2844 13.7034C93.99 13.258 94.8147 13.0352 95.7585 13.0352C96.3318 13.0352 96.8875 13.1301 97.4256 13.3197C97.9636 13.5093 98.4465 13.807 98.8743 14.2128C99.3021 14.6185 99.6395 15.1455 99.8864 15.7938C100.133 16.4377 100.257 17.2205 100.257 18.1422V18.8434H92.1797V17.3616H98.3186C98.3186 16.8412 98.2128 16.3804 98.0011 15.979C97.7894 15.5733 97.4917 15.2536 97.108 15.0198C96.7287 14.7861 96.2833 14.6692 95.7717 14.6692C95.2161 14.6692 94.7309 14.8059 94.3164 15.0794C93.9062 15.3484 93.5887 15.7012 93.3638 16.1378C93.1433 16.57 93.033 17.0397 93.033 17.5468V18.7045C93.033 19.3837 93.1521 19.9614 93.3902 20.4377C93.6328 20.914 93.9702 21.2779 94.4024 21.5292C94.8346 21.7762 95.3395 21.8997 95.9173 21.8997C96.2921 21.8997 96.6339 21.8468 96.9426 21.7409C97.2514 21.6307 97.5182 21.4675 97.7431 21.2514C97.968 21.0353 98.14 20.7685 98.2591 20.4509L100.131 20.7883C99.9812 21.3396 99.7122 21.8225 99.3241 22.2371C98.9404 22.6472 98.4575 22.9669 97.8754 23.1963C97.2977 23.4212 96.6383 23.5337 95.8974 23.5337ZM101.52 27.139V13.1675H103.452V14.8147H103.617C103.732 14.6031 103.897 14.3583 104.113 14.0804C104.329 13.8026 104.629 13.56 105.013 13.3528C105.397 13.1411 105.904 13.0352 106.534 13.0352C107.355 13.0352 108.087 13.2425 108.731 13.6571C109.375 14.0716 109.88 14.6692 110.246 15.4498C110.616 16.2304 110.801 17.1698 110.801 18.2679C110.801 19.366 110.618 20.3076 110.252 21.0926C109.886 21.8732 109.383 22.4752 108.744 22.8986C108.104 23.3176 107.375 23.527 106.554 23.527C105.937 23.527 105.432 23.4234 105.039 23.2161C104.651 23.0088 104.347 22.7663 104.126 22.4884C103.906 22.2106 103.736 21.9636 103.617 21.7475H103.498V27.139H101.52ZM103.458 18.2481C103.458 18.9625 103.562 19.5888 103.769 20.1268C103.977 20.6648 104.276 21.086 104.669 21.3903C105.061 21.6902 105.542 21.8401 106.111 21.8401C106.702 21.8401 107.196 21.6836 107.593 21.3705C107.99 21.0529 108.29 20.6229 108.493 20.0805C108.7 19.538 108.803 18.9272 108.803 18.2481C108.803 17.5777 108.702 16.9757 108.499 16.4421C108.301 15.9085 108.001 15.4873 107.599 15.1786C107.203 14.8699 106.706 14.7155 106.111 14.7155C105.538 14.7155 105.053 14.8633 104.656 15.1587C104.263 15.4542 103.966 15.8666 103.763 16.3958C103.56 16.925 103.458 17.5424 103.458 18.2481ZM115.043 23.5535C114.399 23.5535 113.817 23.4344 113.297 23.1963C112.776 22.9537 112.364 22.6031 112.06 22.1445C111.76 21.6858 111.61 21.1235 111.61 20.4576C111.61 19.8842 111.72 19.4123 111.94 19.0419C112.161 18.6714 112.459 18.3782 112.833 18.1621C113.208 17.946 113.627 17.7828 114.09 17.6725C114.553 17.5623 115.025 17.4785 115.506 17.4212C116.115 17.3506 116.609 17.2933 116.988 17.2492C117.367 17.2006 117.643 17.1235 117.815 17.0176C117.987 16.9118 118.073 16.7398 118.073 16.5016V16.4553C118.073 15.8776 117.91 15.43 117.583 15.1124C117.261 14.7949 116.781 14.6361 116.141 14.6361C115.475 14.6361 114.95 14.7839 114.567 15.0794C114.187 15.3704 113.925 15.6946 113.779 16.0518L111.921 15.6284C112.141 15.011 112.463 14.5126 112.886 14.1334C113.314 13.7497 113.806 13.4718 114.362 13.2998C114.917 13.1234 115.502 13.0352 116.115 13.0352C116.52 13.0352 116.95 13.0838 117.405 13.1808C117.863 13.2734 118.291 13.4454 118.688 13.6968C119.089 13.9481 119.418 14.3076 119.674 14.7751C119.929 15.2381 120.057 15.8401 120.057 16.581V23.3286H118.126V21.9394H118.046C117.918 22.1952 117.727 22.4465 117.471 22.6935C117.215 22.9405 116.886 23.1456 116.485 23.3087C116.084 23.4719 115.603 23.5535 115.043 23.5535ZM115.473 21.9658C116.02 21.9658 116.487 21.8578 116.875 21.6417C117.268 21.4256 117.566 21.1433 117.768 20.7949C117.976 20.4421 118.079 20.0651 118.079 19.6637V18.3539C118.009 18.4245 117.872 18.4906 117.669 18.5524C117.471 18.6097 117.244 18.6604 116.988 18.7045C116.732 18.7442 116.483 18.7817 116.24 18.817C115.998 18.8478 115.795 18.8743 115.632 18.8964C115.248 18.9449 114.897 19.0265 114.58 19.1411C114.267 19.2558 114.015 19.4212 113.826 19.6373C113.641 19.849 113.548 20.1312 113.548 20.484C113.548 20.9736 113.729 21.344 114.09 21.5954C114.452 21.8424 114.913 21.9658 115.473 21.9658ZM121.76 23.3286V13.1675H123.672V14.7817H123.778C123.963 14.2348 124.29 13.8048 124.757 13.4917C125.229 13.1742 125.763 13.0154 126.358 13.0154C126.482 13.0154 126.627 13.0198 126.795 13.0286C126.967 13.0374 127.101 13.0485 127.198 13.0617V14.9537C127.119 14.9316 126.978 14.9074 126.775 14.8809C126.572 14.85 126.369 14.8346 126.166 14.8346C125.699 14.8346 125.282 14.9338 124.916 15.1323C124.554 15.3263 124.268 15.5975 124.056 15.946C123.844 16.2899 123.738 16.6825 123.738 17.1235V23.3286H121.76ZM131.994 23.5337C130.993 23.5337 130.131 23.3198 129.407 22.892C128.689 22.4598 128.133 21.8534 127.74 21.0728C127.352 20.2878 127.158 19.3682 127.158 18.3142C127.158 17.2734 127.352 16.3561 127.74 15.5623C128.133 14.7684 128.68 14.1488 129.381 13.7034C130.087 13.258 130.911 13.0352 131.855 13.0352C132.428 13.0352 132.984 13.1301 133.522 13.3197C134.06 13.5093 134.543 13.807 134.971 14.2128C135.399 14.6185 135.736 15.1455 135.983 15.7938C136.23 16.4377 136.353 17.2205 136.353 18.1422V18.8434H128.276V17.3616H134.415C134.415 16.8412 134.309 16.3804 134.098 15.979C133.886 15.5733 133.588 15.2536 133.205 15.0198C132.825 14.7861 132.38 14.6692 131.868 14.6692C131.313 14.6692 130.827 14.8059 130.413 15.0794C130.003 15.3484 129.685 15.7012 129.46 16.1378C129.24 16.57 129.13 17.0397 129.13 17.5468V18.7045C129.13 19.3837 129.249 19.9614 129.487 20.4377C129.729 20.914 130.067 21.2779 130.499 21.5292C130.931 21.7762 131.436 21.8997 132.014 21.8997C132.389 21.8997 132.73 21.8468 133.039 21.7409C133.348 21.6307 133.615 21.4675 133.84 21.2514C134.065 21.0353 134.237 20.7685 134.356 20.4509L136.228 20.7883C136.078 21.3396 135.809 21.8225 135.421 22.2371C135.037 22.6472 134.554 22.9669 133.972 23.1963C133.394 23.4212 132.735 23.5337 131.994 23.5337ZM141.42 23.527C140.6 23.527 139.868 23.3176 139.224 22.8986C138.585 22.4752 138.082 21.8732 137.716 21.0926C137.354 20.3076 137.173 19.366 137.173 18.2679C137.173 17.1698 137.356 16.2304 137.722 15.4498C138.093 14.6692 138.6 14.0716 139.244 13.6571C139.888 13.2425 140.618 13.0352 141.434 13.0352C142.064 13.0352 142.571 13.1411 142.955 13.3528C143.343 13.56 143.643 13.8026 143.855 14.0804C144.071 14.3583 144.238 14.6031 144.358 14.8147H144.477V9.78053H146.455V23.3286H144.523V21.7475H144.358C144.238 21.9636 144.066 22.2106 143.842 22.4884C143.621 22.7663 143.317 23.0088 142.929 23.2161C142.541 23.4234 142.038 23.527 141.42 23.527ZM141.857 21.8401C142.426 21.8401 142.907 21.6902 143.299 21.3903C143.696 21.086 143.996 20.6648 144.199 20.1268C144.406 19.5888 144.51 18.9625 144.51 18.2481C144.51 17.5424 144.408 16.925 144.205 16.3958C144.002 15.8666 143.705 15.4542 143.312 15.1587C142.92 14.8633 142.435 14.7155 141.857 14.7155C141.262 14.7155 140.765 14.8699 140.369 15.1786C139.972 15.4873 139.672 15.9085 139.469 16.4421C139.27 16.9757 139.171 17.5777 139.171 18.2481C139.171 18.9272 139.273 19.538 139.475 20.0805C139.678 20.6229 139.978 21.0529 140.375 21.3705C140.776 21.6836 141.27 21.8401 141.857 21.8401Z" fill="#174EA6"/>
<rect x="0.582143" y="0.582143" width="69.7786" height="31.4929" rx="15.7464" fill="#174EA6"/>
<rect x="0.582143" y="0.582143" width="69.7786" height="31.4929" rx="15.7464" stroke="#174EA6" stroke-width="1.16429"/>
<path d="M26.7124 14.1863H24.6485C24.5691 13.7453 24.4213 13.3572 24.2052 13.022C23.9891 12.6868 23.7245 12.4024 23.4114 12.1686C23.0983 11.9349 22.7477 11.7585 22.3596 11.6394C21.9759 11.5203 21.568 11.4608 21.1358 11.4608C20.3552 11.4608 19.6561 11.6571 19.0387 12.0496C18.4257 12.4421 17.9406 13.0176 17.5834 13.7761C17.2306 14.5347 17.0541 15.4608 17.0541 16.5546C17.0541 17.6571 17.2306 18.5876 17.5834 19.3462C17.9406 20.1047 18.4279 20.6781 19.0453 21.0662C19.6628 21.4543 20.3574 21.6483 21.1291 21.6483C21.5569 21.6483 21.9627 21.591 22.3464 21.4763C22.7345 21.3572 23.0851 21.183 23.3982 20.9537C23.7113 20.7244 23.9759 20.4443 24.192 20.1136C24.4125 19.7784 24.5647 19.3947 24.6485 18.9625L26.7124 18.9691C26.6022 19.6351 26.3883 20.2481 26.0707 20.8082C25.7576 21.3639 25.3541 21.8446 24.8602 22.2503C24.3706 22.6516 23.8105 22.9625 23.1799 23.183C22.5492 23.4036 21.8612 23.5138 21.1159 23.5138C19.9428 23.5138 18.8976 23.236 17.9803 22.6803C17.063 22.1202 16.3397 21.3197 15.8105 20.2789C15.2857 19.2381 15.0233 17.9967 15.0233 16.5546C15.0233 15.108 15.2879 13.8666 15.8171 12.8302C16.3463 11.7894 17.0696 10.9911 17.9869 10.4354C18.9042 9.87535 19.9472 9.5953 21.1159 9.5953C21.8348 9.5953 22.5051 9.69894 23.127 9.90622C23.7532 10.1091 24.3155 10.409 24.8138 10.8059C25.3122 11.1984 25.7245 11.6791 26.0509 12.248C26.3773 12.8125 26.5978 13.4586 26.7124 14.1863ZM31.0252 23.5535C30.3814 23.5535 29.7992 23.4344 29.2788 23.1963C28.7584 22.9537 28.3461 22.6031 28.0418 22.1445C27.7419 21.6858 27.5919 21.1235 27.5919 20.4576C27.5919 19.8842 27.7022 19.4123 27.9227 19.0419C28.1432 18.6714 28.4409 18.3782 28.8157 18.1621C29.1906 17.946 29.6096 17.7828 30.0726 17.6725C30.5357 17.5623 31.0076 17.4785 31.4883 17.4212C32.0969 17.3506 32.5909 17.2933 32.9701 17.2492C33.3494 17.2006 33.625 17.1235 33.797 17.0176C33.969 16.9118 34.055 16.7398 34.055 16.5016V16.4553C34.055 15.8776 33.8919 15.43 33.5655 15.1124C33.2436 14.7949 32.7629 14.6361 32.1234 14.6361C31.4574 14.6361 30.9326 14.7839 30.5489 15.0794C30.1697 15.3704 29.9073 15.6946 29.7617 16.0518L27.9028 15.6284C28.1234 15.011 28.4453 14.5126 28.8687 14.1334C29.2965 13.7497 29.7882 13.4718 30.3439 13.2998C30.8996 13.1234 31.4839 13.0352 32.0969 13.0352C32.5027 13.0352 32.9326 13.0838 33.3869 13.1808C33.8456 13.2734 34.2733 13.4454 34.6703 13.6968C35.0716 13.9481 35.4001 14.3076 35.6559 14.7751C35.9117 15.2381 36.0396 15.8401 36.0396 16.581V23.3286H34.108V21.9394H34.0286C33.9007 22.1952 33.7088 22.4465 33.453 22.6935C33.1973 22.9405 32.8687 23.1456 32.4674 23.3087C32.066 23.4719 31.5853 23.5535 31.0252 23.5535ZM31.4552 21.9658C32.0021 21.9658 32.4696 21.8578 32.8577 21.6417C33.2502 21.4256 33.5479 21.1433 33.7507 20.7949C33.958 20.4421 34.0617 20.0651 34.0617 19.6637V18.3539C33.9911 18.4245 33.8544 18.4906 33.6515 18.5524C33.453 18.6097 33.2259 18.6604 32.9701 18.7045C32.7143 18.7442 32.4652 18.7817 32.2226 18.817C31.98 18.8478 31.7772 18.8743 31.614 18.8964C31.2303 18.9449 30.8797 19.0265 30.5622 19.1411C30.2491 19.2558 29.9977 19.4212 29.808 19.6373C29.6228 19.849 29.5302 20.1312 29.5302 20.484C29.5302 20.9736 29.711 21.344 30.0726 21.5954C30.4343 21.8424 30.8951 21.9658 31.4552 21.9658ZM45.3569 15.6483L43.5641 15.9658C43.4892 15.7365 43.3701 15.5182 43.2069 15.3109C43.0482 15.1036 42.8321 14.9338 42.5586 14.8015C42.2852 14.6692 41.9434 14.6031 41.5333 14.6031C40.9732 14.6031 40.5057 14.7287 40.1308 14.9801C39.756 15.2271 39.5685 15.5468 39.5685 15.9393C39.5685 16.2789 39.6942 16.5524 39.9456 16.7596C40.197 16.9669 40.6027 17.1367 41.1628 17.269L42.7769 17.6395C43.7119 17.8556 44.4087 18.1885 44.8673 18.6384C45.326 19.0882 45.5553 19.6725 45.5553 20.3914C45.5553 21 45.3789 21.5425 45.0261 22.0188C44.6777 22.4906 44.1904 22.8611 43.5641 23.1301C42.9423 23.3991 42.2212 23.5337 41.401 23.5337C40.2631 23.5337 39.3348 23.2911 38.6159 22.806C37.8971 22.3164 37.4561 21.6218 37.2929 20.7222L39.2047 20.4311C39.3238 20.9294 39.5685 21.3065 39.939 21.5623C40.3094 21.8137 40.7923 21.9394 41.3877 21.9394C42.036 21.9394 42.5542 21.8049 42.9423 21.5358C43.3304 21.2624 43.5244 20.9294 43.5244 20.5369C43.5244 20.2194 43.4054 19.9526 43.1672 19.7365C42.9335 19.5204 42.5741 19.3572 42.0889 19.247L40.369 18.8699C39.4208 18.6538 38.7196 18.3098 38.2653 17.8379C37.8155 17.366 37.5906 16.7684 37.5906 16.0452C37.5906 15.4454 37.7581 14.9206 38.0933 14.4707C38.4285 14.0209 38.8916 13.6703 39.4825 13.4189C40.0735 13.1631 40.7504 13.0352 41.5134 13.0352C42.6115 13.0352 43.4759 13.2734 44.1066 13.7497C44.7372 14.2216 45.154 14.8544 45.3569 15.6483ZM51.178 23.5337C50.1769 23.5337 49.3147 23.3198 48.5914 22.892C47.8725 22.4598 47.3169 21.8534 46.9244 21.0728C46.5363 20.2878 46.3422 19.3682 46.3422 18.3142C46.3422 17.2734 46.5363 16.3561 46.9244 15.5623C47.3169 14.7684 47.8637 14.1488 48.5649 13.7034C49.2706 13.258 50.0953 13.0352 51.0391 13.0352C51.6124 13.0352 52.1681 13.1301 52.7061 13.3197C53.2441 13.5093 53.7271 13.807 54.1548 14.2128C54.5826 14.6185 54.92 15.1455 55.167 15.7938C55.4139 16.4377 55.5374 17.2205 55.5374 18.1422V18.8434H47.4602V17.3616H53.5992C53.5992 16.8412 53.4933 16.3804 53.2816 15.979C53.0699 15.5733 52.7723 15.2536 52.3886 15.0198C52.0093 14.7861 51.5639 14.6692 51.0523 14.6692C50.4966 14.6692 50.0115 14.8059 49.5969 15.0794C49.1868 15.3484 48.8692 15.7012 48.6443 16.1378C48.4238 16.57 48.3136 17.0397 48.3136 17.5468V18.7045C48.3136 19.3837 48.4326 19.9614 48.6708 20.4377C48.9133 20.914 49.2507 21.2779 49.6829 21.5292C50.1151 21.7762 50.6201 21.8997 51.1978 21.8997C51.5727 21.8997 51.9145 21.8468 52.2232 21.7409C52.5319 21.6307 52.7987 21.4675 53.0236 21.2514C53.2485 21.0353 53.4205 20.7685 53.5396 20.4509L55.4117 20.7883C55.2618 21.3396 54.9928 21.8225 54.6047 22.2371C54.221 22.6472 53.7381 22.9669 53.1559 23.1963C52.5782 23.4212 51.9189 23.5337 51.178 23.5337Z" fill="white"/>
</svg>
