<svg width="523" height="580" viewBox="0 0 523 580" fill="none" xmlns="http://www.w3.org/2000/svg">
<g clip-path="url(#clip0_470_70)">
<rect width="523" height="580" fill="white"/>
<path d="M275.094 229.406H270.219C270.031 228.365 269.682 227.448 269.172 226.656C268.661 225.865 268.036 225.193 267.297 224.641C266.557 224.089 265.729 223.672 264.813 223.391C263.906 223.109 262.943 222.969 261.922 222.969C260.078 222.969 258.427 223.432 256.969 224.359C255.521 225.286 254.375 226.646 253.531 228.437C252.698 230.229 252.281 232.417 252.281 235C252.281 237.604 252.698 239.802 253.531 241.594C254.375 243.385 255.526 244.74 256.984 245.656C258.443 246.573 260.083 247.031 261.906 247.031C262.917 247.031 263.875 246.896 264.781 246.625C265.698 246.344 266.526 245.932 267.266 245.391C268.005 244.849 268.63 244.187 269.141 243.406C269.661 242.615 270.021 241.708 270.219 240.688L275.094 240.703C274.833 242.276 274.328 243.724 273.578 245.047C272.839 246.359 271.885 247.495 270.719 248.453C269.563 249.401 268.24 250.135 266.75 250.656C265.26 251.177 263.635 251.437 261.875 251.437C259.104 251.437 256.635 250.781 254.469 249.469C252.302 248.146 250.594 246.255 249.344 243.797C248.104 241.339 247.484 238.406 247.484 235C247.484 231.583 248.109 228.651 249.359 226.203C250.609 223.745 252.318 221.859 254.484 220.547C256.651 219.224 259.115 218.562 261.875 218.562C263.573 218.562 265.156 218.807 266.625 219.297C268.104 219.776 269.432 220.484 270.609 221.422C271.786 222.349 272.76 223.484 273.531 224.828C274.302 226.161 274.823 227.687 275.094 229.406ZM278.296 251V227H282.812V230.812H283.062C283.499 229.521 284.27 228.505 285.374 227.766C286.489 227.016 287.749 226.641 289.155 226.641C289.447 226.641 289.791 226.651 290.187 226.672C290.593 226.693 290.911 226.719 291.14 226.75V231.219C290.952 231.167 290.619 231.109 290.14 231.047C289.661 230.974 289.182 230.937 288.702 230.937C287.598 230.937 286.614 231.172 285.749 231.641C284.895 232.099 284.218 232.74 283.718 233.562C283.218 234.375 282.968 235.302 282.968 236.344V251H278.296ZM299.752 251.531C298.232 251.531 296.857 251.25 295.627 250.687C294.398 250.115 293.424 249.286 292.705 248.203C291.997 247.12 291.643 245.792 291.643 244.219C291.643 242.865 291.903 241.75 292.424 240.875C292.945 240 293.648 239.307 294.534 238.797C295.419 238.286 296.409 237.901 297.502 237.641C298.596 237.38 299.711 237.182 300.846 237.047C302.284 236.88 303.45 236.745 304.346 236.641C305.242 236.526 305.893 236.344 306.299 236.094C306.705 235.844 306.909 235.437 306.909 234.875V234.766C306.909 233.401 306.523 232.344 305.752 231.594C304.992 230.844 303.857 230.469 302.346 230.469C300.773 230.469 299.534 230.818 298.627 231.516C297.732 232.203 297.112 232.969 296.768 233.812L292.377 232.812C292.898 231.354 293.659 230.177 294.659 229.281C295.669 228.375 296.83 227.719 298.143 227.312C299.455 226.896 300.836 226.688 302.284 226.688C303.242 226.688 304.258 226.802 305.33 227.031C306.414 227.25 307.424 227.656 308.362 228.25C309.31 228.844 310.086 229.693 310.69 230.797C311.294 231.891 311.596 233.313 311.596 235.063V251H307.034V247.719H306.846C306.544 248.323 306.091 248.917 305.487 249.5C304.883 250.083 304.107 250.568 303.159 250.953C302.211 251.339 301.075 251.531 299.752 251.531ZM300.768 247.781C302.06 247.781 303.164 247.526 304.08 247.016C305.008 246.505 305.711 245.839 306.19 245.016C306.679 244.182 306.924 243.292 306.924 242.344V239.25C306.758 239.417 306.435 239.573 305.955 239.719C305.487 239.854 304.95 239.974 304.346 240.078C303.742 240.172 303.153 240.26 302.58 240.344C302.008 240.417 301.528 240.479 301.143 240.531C300.237 240.646 299.409 240.839 298.659 241.109C297.919 241.38 297.325 241.771 296.877 242.281C296.44 242.781 296.221 243.448 296.221 244.281C296.221 245.437 296.648 246.312 297.502 246.906C298.357 247.49 299.445 247.781 300.768 247.781ZM325.728 251.484C323.405 251.484 321.405 250.958 319.728 249.906C318.061 248.844 316.78 247.38 315.884 245.516C314.989 243.651 314.541 241.516 314.541 239.109C314.541 236.672 314.999 234.521 315.916 232.656C316.832 230.781 318.124 229.318 319.791 228.266C321.457 227.214 323.421 226.688 325.681 226.688C327.504 226.688 329.129 227.026 330.556 227.703C331.983 228.37 333.134 229.307 334.009 230.516C334.895 231.724 335.421 233.135 335.588 234.75H331.041C330.791 233.625 330.218 232.656 329.322 231.844C328.436 231.031 327.249 230.625 325.759 230.625C324.457 230.625 323.317 230.969 322.338 231.656C321.369 232.333 320.614 233.302 320.072 234.562C319.53 235.812 319.259 237.292 319.259 239C319.259 240.75 319.525 242.26 320.056 243.531C320.588 244.802 321.338 245.786 322.306 246.484C323.285 247.182 324.436 247.531 325.759 247.531C326.645 247.531 327.447 247.37 328.166 247.047C328.895 246.714 329.504 246.24 329.994 245.625C330.494 245.01 330.843 244.271 331.041 243.406H335.588C335.421 244.958 334.916 246.344 334.072 247.562C333.228 248.781 332.098 249.74 330.681 250.437C329.275 251.135 327.624 251.484 325.728 251.484ZM342.68 242.859L342.649 237.156H343.462L353.024 227H358.618L347.712 238.562H346.977L342.68 242.859ZM338.384 251V219H343.055V251H338.384ZM353.54 251L344.946 239.594L348.165 236.328L359.274 251H353.54ZM381.323 227V230.75H368.214V227H381.323ZM371.73 221.25H376.402V243.953C376.402 244.859 376.537 245.542 376.808 246C377.079 246.448 377.428 246.755 377.855 246.922C378.292 247.078 378.766 247.156 379.277 247.156C379.652 247.156 379.98 247.13 380.261 247.078C380.542 247.026 380.761 246.984 380.917 246.953L381.761 250.812C381.49 250.917 381.105 251.021 380.605 251.125C380.105 251.24 379.48 251.302 378.73 251.313C377.501 251.333 376.355 251.115 375.292 250.656C374.23 250.198 373.37 249.49 372.714 248.531C372.058 247.573 371.73 246.37 371.73 244.922V221.25ZM389.479 236.75V251H384.807V219H389.416V230.906H389.713C390.276 229.615 391.135 228.589 392.291 227.828C393.448 227.068 394.958 226.688 396.823 226.688C398.468 226.688 399.906 227.026 401.135 227.703C402.375 228.38 403.333 229.391 404.01 230.734C404.698 232.068 405.041 233.734 405.041 235.734V251H400.37V236.297C400.37 234.536 399.916 233.172 399.01 232.203C398.104 231.224 396.843 230.734 395.229 230.734C394.125 230.734 393.135 230.969 392.26 231.437C391.396 231.906 390.713 232.594 390.213 233.5C389.724 234.396 389.479 235.479 389.479 236.75ZM419.42 251.484C417.055 251.484 415.018 250.979 413.31 249.969C411.612 248.948 410.3 247.516 409.373 245.672C408.456 243.818 407.998 241.646 407.998 239.156C407.998 236.698 408.456 234.531 409.373 232.656C410.3 230.781 411.591 229.318 413.248 228.266C414.914 227.214 416.862 226.688 419.091 226.688C420.446 226.688 421.758 226.911 423.029 227.359C424.3 227.807 425.44 228.51 426.451 229.469C427.461 230.427 428.258 231.672 428.841 233.203C429.425 234.724 429.716 236.573 429.716 238.75V240.406H410.638V236.906H425.138C425.138 235.677 424.888 234.589 424.388 233.641C423.888 232.682 423.185 231.927 422.279 231.375C421.383 230.823 420.331 230.547 419.123 230.547C417.81 230.547 416.664 230.87 415.685 231.516C414.716 232.151 413.966 232.984 413.435 234.016C412.914 235.036 412.654 236.146 412.654 237.344V240.078C412.654 241.682 412.935 243.047 413.498 244.172C414.071 245.297 414.867 246.156 415.888 246.75C416.909 247.333 418.102 247.625 419.466 247.625C420.352 247.625 421.159 247.5 421.888 247.25C422.617 246.99 423.248 246.604 423.779 246.094C424.31 245.583 424.716 244.953 424.998 244.203L429.42 245C429.065 246.302 428.43 247.443 427.513 248.422C426.607 249.391 425.466 250.146 424.091 250.687C422.727 251.219 421.17 251.484 419.42 251.484ZM258.25 304.484C255.927 304.484 253.927 303.958 252.25 302.906C250.583 301.844 249.302 300.38 248.406 298.516C247.51 296.651 247.062 294.516 247.062 292.109C247.062 289.672 247.521 287.521 248.438 285.656C249.354 283.781 250.646 282.318 252.313 281.266C253.979 280.214 255.943 279.688 258.203 279.688C260.026 279.688 261.651 280.026 263.078 280.703C264.505 281.37 265.656 282.307 266.531 283.516C267.417 284.724 267.943 286.135 268.109 287.75H263.562C263.313 286.625 262.74 285.656 261.844 284.844C260.958 284.031 259.771 283.625 258.281 283.625C256.979 283.625 255.839 283.969 254.859 284.656C253.891 285.333 253.135 286.302 252.594 287.562C252.052 288.812 251.781 290.292 251.781 292C251.781 293.75 252.047 295.26 252.578 296.531C253.109 297.802 253.859 298.786 254.828 299.484C255.807 300.182 256.958 300.531 258.281 300.531C259.167 300.531 259.969 300.37 260.688 300.047C261.417 299.714 262.026 299.24 262.516 298.625C263.016 298.01 263.365 297.271 263.562 296.406H268.109C267.943 297.958 267.438 299.344 266.594 300.562C265.75 301.781 264.62 302.74 263.203 303.437C261.797 304.135 260.146 304.484 258.25 304.484ZM277.89 304.531C276.369 304.531 274.994 304.25 273.765 303.687C272.536 303.115 271.562 302.286 270.843 301.203C270.135 300.12 269.78 298.792 269.78 297.219C269.78 295.865 270.041 294.75 270.562 293.875C271.083 293 271.786 292.307 272.671 291.797C273.557 291.286 274.546 290.901 275.64 290.641C276.734 290.38 277.848 290.182 278.984 290.047C280.421 289.88 281.588 289.745 282.484 289.641C283.379 289.526 284.03 289.344 284.437 289.094C284.843 288.844 285.046 288.437 285.046 287.875V287.766C285.046 286.401 284.661 285.344 283.89 284.594C283.129 283.844 281.994 283.469 280.484 283.469C278.911 283.469 277.671 283.818 276.765 284.516C275.869 285.203 275.249 285.969 274.905 286.812L270.515 285.812C271.036 284.354 271.796 283.177 272.796 282.281C273.807 281.375 274.968 280.719 276.28 280.312C277.593 279.896 278.973 279.688 280.421 279.688C281.379 279.688 282.395 279.802 283.468 280.031C284.551 280.25 285.562 280.656 286.499 281.25C287.447 281.844 288.223 282.693 288.827 283.797C289.432 284.891 289.734 286.313 289.734 288.063V304H285.171V300.719H284.984C284.682 301.323 284.228 301.917 283.624 302.5C283.02 303.083 282.244 303.568 281.296 303.953C280.348 304.339 279.213 304.531 277.89 304.531ZM278.905 300.781C280.197 300.781 281.301 300.526 282.218 300.016C283.145 299.505 283.848 298.839 284.327 298.016C284.817 297.182 285.062 296.292 285.062 295.344V292.25C284.895 292.417 284.572 292.573 284.093 292.719C283.624 292.854 283.088 292.974 282.484 293.078C281.879 293.172 281.291 293.26 280.718 293.344C280.145 293.417 279.666 293.479 279.28 293.531C278.374 293.646 277.546 293.839 276.796 294.109C276.057 294.38 275.463 294.771 275.015 295.281C274.577 295.781 274.359 296.448 274.359 297.281C274.359 298.437 274.786 299.312 275.64 299.906C276.494 300.49 277.583 300.781 278.905 300.781ZM311.741 285.859L307.506 286.609C307.329 286.068 307.048 285.552 306.662 285.062C306.287 284.573 305.777 284.172 305.131 283.859C304.485 283.547 303.678 283.391 302.709 283.391C301.386 283.391 300.282 283.687 299.397 284.281C298.511 284.865 298.069 285.62 298.069 286.547C298.069 287.349 298.366 287.995 298.959 288.484C299.553 288.974 300.511 289.375 301.834 289.687L305.647 290.562C307.855 291.073 309.501 291.859 310.584 292.922C311.668 293.984 312.209 295.365 312.209 297.063C312.209 298.5 311.793 299.781 310.959 300.906C310.136 302.021 308.985 302.896 307.506 303.531C306.037 304.167 304.334 304.484 302.397 304.484C299.709 304.484 297.517 303.911 295.819 302.766C294.121 301.609 293.079 299.969 292.694 297.844L297.209 297.156C297.491 298.333 298.069 299.224 298.944 299.828C299.819 300.422 300.959 300.719 302.366 300.719C303.897 300.719 305.121 300.401 306.037 299.766C306.954 299.12 307.412 298.333 307.412 297.406C307.412 296.656 307.131 296.026 306.569 295.516C306.017 295.005 305.168 294.62 304.022 294.359L299.959 293.469C297.72 292.958 296.064 292.146 294.991 291.031C293.928 289.917 293.397 288.505 293.397 286.797C293.397 285.38 293.793 284.141 294.584 283.078C295.376 282.016 296.47 281.187 297.866 280.594C299.261 279.99 300.86 279.688 302.662 279.688C305.256 279.688 307.298 280.25 308.787 281.375C310.277 282.49 311.261 283.984 311.741 285.859ZM325.49 304.484C323.125 304.484 321.089 303.979 319.38 302.969C317.683 301.948 316.37 300.516 315.443 298.672C314.526 296.818 314.068 294.646 314.068 292.156C314.068 289.698 314.526 287.531 315.443 285.656C316.37 283.781 317.662 282.318 319.318 281.266C320.985 280.214 322.933 279.688 325.162 279.688C326.516 279.688 327.828 279.911 329.099 280.359C330.37 280.807 331.511 281.51 332.521 282.469C333.532 283.427 334.328 284.672 334.912 286.203C335.495 287.724 335.787 289.573 335.787 291.75V293.406H316.709V289.906H331.209C331.209 288.677 330.959 287.589 330.459 286.641C329.959 285.682 329.255 284.927 328.349 284.375C327.453 283.823 326.401 283.547 325.193 283.547C323.88 283.547 322.735 283.87 321.755 284.516C320.787 285.151 320.037 285.984 319.505 287.016C318.985 288.036 318.724 289.146 318.724 290.344V293.078C318.724 294.682 319.005 296.047 319.568 297.172C320.141 298.297 320.938 299.156 321.959 299.75C322.979 300.333 324.172 300.625 325.537 300.625C326.422 300.625 327.229 300.5 327.959 300.25C328.688 299.99 329.318 299.604 329.849 299.094C330.38 298.583 330.787 297.953 331.068 297.203L335.49 298C335.136 299.302 334.5 300.443 333.584 301.422C332.677 302.391 331.537 303.146 330.162 303.687C328.797 304.219 327.24 304.484 325.49 304.484Z" fill="#174EA6"/>
<path d="M353.418 304L346.355 280H351.184L355.887 297.625H356.121L360.84 280H365.668L370.355 297.547H370.59L375.262 280H380.09L373.043 304H368.277L363.402 286.672H363.043L358.168 304H353.418ZM382.323 304V280H386.995V304H382.323ZM384.683 276.297C383.87 276.297 383.172 276.026 382.589 275.484C382.016 274.932 381.73 274.276 381.73 273.516C381.73 272.745 382.016 272.089 382.589 271.547C383.172 270.995 383.87 270.719 384.683 270.719C385.495 270.719 386.188 270.995 386.761 271.547C387.344 272.089 387.636 272.745 387.636 273.516C387.636 274.276 387.344 274.932 386.761 275.484C386.188 276.026 385.495 276.297 384.683 276.297ZM402.284 280V283.75H389.174V280H402.284ZM392.69 274.25H397.362V296.953C397.362 297.859 397.497 298.542 397.768 299C398.039 299.448 398.388 299.755 398.815 299.922C399.252 300.078 399.726 300.156 400.237 300.156C400.612 300.156 400.94 300.13 401.221 300.078C401.502 300.026 401.721 299.984 401.877 299.953L402.721 303.812C402.45 303.917 402.065 304.021 401.565 304.125C401.065 304.24 400.44 304.302 399.69 304.313C398.461 304.333 397.315 304.115 396.252 303.656C395.19 303.198 394.33 302.49 393.674 301.531C393.018 300.573 392.69 299.37 392.69 297.922V274.25ZM410.439 289.75V304H405.767V272H410.377V283.906H410.673C411.236 282.615 412.095 281.589 413.252 280.828C414.408 280.068 415.918 279.688 417.783 279.688C419.429 279.688 420.866 280.026 422.095 280.703C423.335 281.38 424.293 282.391 424.97 283.734C425.658 285.068 426.002 286.734 426.002 288.734V304H421.33V289.297C421.33 287.536 420.877 286.172 419.97 285.203C419.064 284.224 417.804 283.734 416.189 283.734C415.085 283.734 414.095 283.969 413.22 284.437C412.356 284.906 411.673 285.594 411.173 286.5C410.684 287.396 410.439 288.479 410.439 289.75ZM248.141 366V333H252.703V336.891H253.094C253.365 336.391 253.755 335.812 254.266 335.156C254.776 334.5 255.484 333.927 256.391 333.437C257.297 332.938 258.495 332.688 259.984 332.688C261.922 332.688 263.651 333.177 265.172 334.156C266.693 335.135 267.885 336.547 268.75 338.391C269.625 340.234 270.063 342.453 270.063 345.047C270.063 347.641 269.63 349.865 268.766 351.719C267.901 353.562 266.714 354.984 265.203 355.984C263.693 356.974 261.969 357.469 260.031 357.469C258.573 357.469 257.38 357.224 256.453 356.734C255.536 356.245 254.818 355.672 254.297 355.016C253.776 354.359 253.375 353.776 253.094 353.266H252.813V366H248.141ZM252.719 345C252.719 346.687 252.964 348.167 253.453 349.438C253.943 350.708 254.651 351.703 255.578 352.422C256.505 353.13 257.641 353.484 258.984 353.484C260.38 353.484 261.547 353.115 262.484 352.375C263.422 351.625 264.13 350.609 264.609 349.328C265.099 348.047 265.344 346.604 265.344 345C265.344 343.417 265.104 341.995 264.625 340.734C264.156 339.474 263.448 338.479 262.5 337.75C261.563 337.021 260.391 336.656 258.984 336.656C257.63 336.656 256.484 337.005 255.547 337.703C254.62 338.401 253.917 339.375 253.438 340.625C252.958 341.875 252.719 343.333 252.719 345ZM273.097 357V333H277.612V336.812H277.862C278.3 335.521 279.071 334.505 280.175 333.766C281.29 333.016 282.55 332.641 283.956 332.641C284.248 332.641 284.592 332.651 284.988 332.672C285.394 332.693 285.711 332.719 285.941 332.75V337.219C285.753 337.167 285.42 337.109 284.941 337.047C284.461 336.974 283.982 336.937 283.503 336.937C282.399 336.937 281.415 337.172 280.55 337.641C279.696 338.099 279.019 338.74 278.519 339.562C278.019 340.375 277.769 341.302 277.769 342.344V357H273.097ZM294.553 357.531C293.032 357.531 291.657 357.25 290.428 356.687C289.199 356.115 288.225 355.286 287.506 354.203C286.798 353.12 286.444 351.792 286.444 350.219C286.444 348.865 286.704 347.75 287.225 346.875C287.746 346 288.449 345.307 289.334 344.797C290.22 344.286 291.209 343.901 292.303 343.641C293.397 343.38 294.511 343.182 295.647 343.047C297.084 342.88 298.251 342.745 299.147 342.641C300.043 342.526 300.694 342.344 301.1 342.094C301.506 341.844 301.709 341.437 301.709 340.875V340.766C301.709 339.401 301.324 338.344 300.553 337.594C299.793 336.844 298.657 336.469 297.147 336.469C295.574 336.469 294.334 336.818 293.428 337.516C292.532 338.203 291.912 338.969 291.569 339.812L287.178 338.812C287.699 337.354 288.459 336.177 289.459 335.281C290.47 334.375 291.631 333.719 292.944 333.312C294.256 332.896 295.636 332.688 297.084 332.688C298.043 332.688 299.058 332.802 300.131 333.031C301.215 333.25 302.225 333.656 303.162 334.25C304.11 334.844 304.886 335.693 305.491 336.797C306.095 337.891 306.397 339.313 306.397 341.063V357H301.834V353.719H301.647C301.345 354.323 300.892 354.917 300.287 355.5C299.683 356.083 298.907 356.568 297.959 356.953C297.011 357.339 295.876 357.531 294.553 357.531ZM295.569 353.781C296.86 353.781 297.965 353.526 298.881 353.016C299.808 352.505 300.511 351.839 300.991 351.016C301.48 350.182 301.725 349.292 301.725 348.344V345.25C301.558 345.417 301.235 345.573 300.756 345.719C300.287 345.854 299.751 345.974 299.147 346.078C298.543 346.172 297.954 346.26 297.381 346.344C296.808 346.417 296.329 346.479 295.944 346.531C295.037 346.646 294.209 346.839 293.459 347.109C292.72 347.38 292.126 347.771 291.678 348.281C291.241 348.781 291.022 349.448 291.022 350.281C291.022 351.437 291.449 352.312 292.303 352.906C293.157 353.49 294.246 353.781 295.569 353.781ZM320.529 357.484C318.206 357.484 316.206 356.958 314.529 355.906C312.862 354.844 311.581 353.38 310.685 351.516C309.789 349.651 309.341 347.516 309.341 345.109C309.341 342.672 309.8 340.521 310.716 338.656C311.633 336.781 312.925 335.318 314.591 334.266C316.258 333.214 318.222 332.688 320.482 332.688C322.305 332.688 323.93 333.026 325.357 333.703C326.784 334.37 327.935 335.307 328.81 336.516C329.696 337.724 330.222 339.135 330.388 340.75H325.841C325.591 339.625 325.018 338.656 324.123 337.844C323.237 337.031 322.05 336.625 320.56 336.625C319.258 336.625 318.117 336.969 317.138 337.656C316.17 338.333 315.414 339.302 314.873 340.562C314.331 341.812 314.06 343.292 314.06 345C314.06 346.75 314.326 348.26 314.857 349.531C315.388 350.802 316.138 351.786 317.107 352.484C318.086 353.182 319.237 353.531 320.56 353.531C321.446 353.531 322.248 353.37 322.966 353.047C323.696 352.714 324.305 352.24 324.795 351.625C325.295 351.01 325.643 350.271 325.841 349.406H330.388C330.222 350.958 329.716 352.344 328.873 353.562C328.029 354.781 326.899 355.74 325.482 356.437C324.076 357.135 322.425 357.484 320.529 357.484ZM344.387 333V336.75H331.278V333H344.387ZM334.794 327.25H339.466V349.953C339.466 350.859 339.601 351.542 339.872 352C340.143 352.448 340.492 352.755 340.919 352.922C341.356 353.078 341.83 353.156 342.341 353.156C342.716 353.156 343.044 353.13 343.325 353.078C343.606 353.026 343.825 352.984 343.981 352.953L344.825 356.812C344.554 356.917 344.169 357.021 343.669 357.125C343.169 357.24 342.544 357.302 341.794 357.313C340.565 357.333 339.419 357.115 338.356 356.656C337.294 356.198 336.434 355.49 335.778 354.531C335.122 353.573 334.794 352.37 334.794 350.922V327.25ZM347.355 357V333H352.027V357H347.355ZM349.715 329.297C348.902 329.297 348.204 329.026 347.621 328.484C347.048 327.932 346.762 327.276 346.762 326.516C346.762 325.745 347.048 325.089 347.621 324.547C348.204 323.995 348.902 323.719 349.715 323.719C350.527 323.719 351.22 323.995 351.793 324.547C352.376 325.089 352.668 325.745 352.668 326.516C352.668 327.276 352.376 327.932 351.793 328.484C351.22 329.026 350.527 329.297 349.715 329.297ZM366.222 357.484C363.899 357.484 361.899 356.958 360.222 355.906C358.555 354.844 357.274 353.38 356.378 351.516C355.482 349.651 355.034 347.516 355.034 345.109C355.034 342.672 355.493 340.521 356.409 338.656C357.326 336.781 358.618 335.318 360.284 334.266C361.951 333.214 363.915 332.688 366.175 332.688C367.998 332.688 369.623 333.026 371.05 333.703C372.477 334.37 373.628 335.307 374.503 336.516C375.389 337.724 375.915 339.135 376.081 340.75H371.534C371.284 339.625 370.711 338.656 369.816 337.844C368.93 337.031 367.743 336.625 366.253 336.625C364.951 336.625 363.81 336.969 362.831 337.656C361.863 338.333 361.107 339.302 360.566 340.562C360.024 341.812 359.753 343.292 359.753 345C359.753 346.75 360.019 348.26 360.55 349.531C361.081 350.802 361.831 351.786 362.8 352.484C363.779 353.182 364.93 353.531 366.253 353.531C367.139 353.531 367.941 353.37 368.659 353.047C369.389 352.714 369.998 352.24 370.488 351.625C370.988 351.01 371.336 350.271 371.534 349.406H376.081C375.915 350.958 375.409 352.344 374.566 353.562C373.722 354.781 372.592 355.74 371.175 356.437C369.769 357.135 368.118 357.484 366.222 357.484ZM389.221 357.484C386.857 357.484 384.82 356.979 383.112 355.969C381.414 354.948 380.101 353.516 379.174 351.672C378.258 349.818 377.799 347.646 377.799 345.156C377.799 342.698 378.258 340.531 379.174 338.656C380.101 336.781 381.393 335.318 383.049 334.266C384.716 333.214 386.664 332.688 388.893 332.688C390.247 332.688 391.56 332.911 392.83 333.359C394.101 333.807 395.242 334.51 396.252 335.469C397.263 336.427 398.06 337.672 398.643 339.203C399.226 340.724 399.518 342.573 399.518 344.75V346.406H380.44V342.906H394.94C394.94 341.677 394.69 340.589 394.19 339.641C393.69 338.682 392.987 337.927 392.08 337.375C391.185 336.823 390.133 336.547 388.924 336.547C387.612 336.547 386.466 336.87 385.487 337.516C384.518 338.151 383.768 338.984 383.237 340.016C382.716 341.036 382.455 342.146 382.455 343.344V346.078C382.455 347.682 382.737 349.047 383.299 350.172C383.872 351.297 384.669 352.156 385.69 352.75C386.711 353.333 387.903 353.625 389.268 353.625C390.153 353.625 390.961 353.5 391.69 353.25C392.419 352.99 393.049 352.604 393.58 352.094C394.112 351.583 394.518 350.953 394.799 350.203L399.221 351C398.867 352.302 398.232 353.443 397.315 354.422C396.409 355.391 395.268 356.146 393.893 356.687C392.528 357.219 390.971 357.484 389.221 357.484ZM415.024 357H409.899L421.415 325H426.993L438.509 357H433.384L424.337 330.812H424.087L415.024 357ZM415.884 344.469H432.509V348.531H415.884V344.469ZM445.758 325V357H440.93V325H445.758ZM248.141 410V386H252.813V410H248.141ZM250.5 382.297C249.688 382.297 248.99 382.026 248.406 381.484C247.833 380.932 247.547 380.276 247.547 379.516C247.547 378.745 247.833 378.089 248.406 377.547C248.99 376.995 249.688 376.719 250.5 376.719C251.313 376.719 252.005 376.995 252.578 377.547C253.161 378.089 253.453 378.745 253.453 379.516C253.453 380.276 253.161 380.932 252.578 381.484C252.005 382.026 251.313 382.297 250.5 382.297ZM261.57 395.75V410H256.898V386H261.382V389.906H261.679C262.231 388.635 263.096 387.615 264.273 386.844C265.46 386.073 266.955 385.688 268.757 385.688C270.392 385.688 271.825 386.031 273.054 386.719C274.283 387.396 275.236 388.406 275.913 389.75C276.59 391.094 276.929 392.755 276.929 394.734V410H272.257V395.297C272.257 393.557 271.804 392.198 270.898 391.219C269.991 390.229 268.747 389.734 267.163 389.734C266.08 389.734 265.116 389.969 264.273 390.437C263.439 390.906 262.778 391.594 262.288 392.5C261.809 393.396 261.57 394.479 261.57 395.75ZM292.198 386V389.75H279.088V386H292.198ZM282.604 380.25H287.276V402.953C287.276 403.859 287.411 404.542 287.682 405C287.953 405.448 288.302 405.755 288.729 405.922C289.166 406.078 289.64 406.156 290.151 406.156C290.526 406.156 290.854 406.13 291.135 406.078C291.416 406.026 291.635 405.984 291.791 405.953L292.635 409.812C292.364 409.917 291.979 410.021 291.479 410.125C290.979 410.24 290.354 410.302 289.604 410.313C288.375 410.333 287.229 410.115 286.166 409.656C285.104 409.198 284.245 408.49 283.588 407.531C282.932 406.573 282.604 405.37 282.604 403.922V380.25ZM305.252 410.484C302.887 410.484 300.851 409.979 299.142 408.969C297.444 407.948 296.132 406.516 295.205 404.672C294.288 402.818 293.83 400.646 293.83 398.156C293.83 395.698 294.288 393.531 295.205 391.656C296.132 389.781 297.423 388.318 299.08 387.266C300.746 386.214 302.694 385.688 304.923 385.688C306.278 385.688 307.59 385.911 308.861 386.359C310.132 386.807 311.272 387.51 312.283 388.469C313.293 389.427 314.09 390.672 314.673 392.203C315.257 393.724 315.548 395.573 315.548 397.75V399.406H296.47V395.906H310.97C310.97 394.677 310.72 393.589 310.22 392.641C309.72 391.682 309.017 390.927 308.111 390.375C307.215 389.823 306.163 389.547 304.955 389.547C303.642 389.547 302.496 389.87 301.517 390.516C300.548 391.151 299.798 391.984 299.267 393.016C298.746 394.036 298.486 395.146 298.486 396.344V399.078C298.486 400.682 298.767 402.047 299.33 403.172C299.903 404.297 300.699 405.156 301.72 405.75C302.741 406.333 303.934 406.625 305.298 406.625C306.184 406.625 306.991 406.5 307.72 406.25C308.449 405.99 309.08 405.604 309.611 405.094C310.142 404.583 310.548 403.953 310.83 403.203L315.252 404C314.897 405.302 314.262 406.443 313.345 407.422C312.439 408.391 311.298 409.146 309.923 409.687C308.559 410.219 307.002 410.484 305.252 410.484ZM318.532 410V386H323.048V389.812H323.298C323.735 388.521 324.506 387.505 325.61 386.766C326.725 386.016 327.985 385.641 329.391 385.641C329.683 385.641 330.027 385.651 330.423 385.672C330.829 385.693 331.147 385.719 331.376 385.75V390.219C331.188 390.167 330.855 390.109 330.376 390.047C329.897 389.974 329.417 389.937 328.938 389.937C327.834 389.937 326.85 390.172 325.985 390.641C325.131 391.099 324.454 391.74 323.954 392.562C323.454 393.375 323.204 394.302 323.204 395.344V410H318.532ZM354.48 386L345.777 410H340.777L332.059 386H337.074L343.152 404.469H343.402L349.465 386H354.48ZM356.671 410V386H361.343V410H356.671ZM359.03 382.297C358.218 382.297 357.52 382.026 356.937 381.484C356.364 380.932 356.077 380.276 356.077 379.516C356.077 378.745 356.364 378.089 356.937 377.547C357.52 376.995 358.218 376.719 359.03 376.719C359.843 376.719 360.536 376.995 361.109 377.547C361.692 378.089 361.984 378.745 361.984 379.516C361.984 380.276 361.692 380.932 361.109 381.484C360.536 382.026 359.843 382.297 359.03 382.297ZM375.772 410.484C373.407 410.484 371.371 409.979 369.662 408.969C367.965 407.948 366.652 406.516 365.725 404.672C364.808 402.818 364.35 400.646 364.35 398.156C364.35 395.698 364.808 393.531 365.725 391.656C366.652 389.781 367.944 388.318 369.6 387.266C371.267 386.214 373.215 385.688 375.444 385.688C376.798 385.688 378.11 385.911 379.381 386.359C380.652 386.807 381.793 387.51 382.803 388.469C383.814 389.427 384.61 390.672 385.194 392.203C385.777 393.724 386.069 395.573 386.069 397.75V399.406H366.991V395.906H381.491C381.491 394.677 381.241 393.589 380.741 392.641C380.241 391.682 379.537 390.927 378.631 390.375C377.735 389.823 376.683 389.547 375.475 389.547C374.162 389.547 373.017 389.87 372.037 390.516C371.069 391.151 370.319 391.984 369.787 393.016C369.267 394.036 369.006 395.146 369.006 396.344V399.078C369.006 400.682 369.287 402.047 369.85 403.172C370.423 404.297 371.22 405.156 372.241 405.75C373.261 406.333 374.454 406.625 375.819 406.625C376.704 406.625 377.511 406.5 378.241 406.25C378.97 405.99 379.6 405.604 380.131 405.094C380.662 404.583 381.069 403.953 381.35 403.203L385.772 404C385.418 405.302 384.782 406.443 383.866 407.422C382.959 408.391 381.819 409.146 380.444 409.687C379.079 410.219 377.522 410.484 375.772 410.484ZM394.212 410L387.15 386H391.978L396.681 403.625H396.916L401.634 386H406.462L411.15 403.547H411.384L416.056 386H420.884L413.837 410H409.072L404.197 392.672H403.837L398.962 410H394.212ZM441.102 391.859L436.868 392.609C436.691 392.068 436.41 391.552 436.024 391.062C435.649 390.573 435.139 390.172 434.493 389.859C433.847 389.547 433.04 389.391 432.071 389.391C430.748 389.391 429.644 389.687 428.759 390.281C427.873 390.865 427.43 391.62 427.43 392.547C427.43 393.349 427.727 393.995 428.321 394.484C428.915 394.974 429.873 395.375 431.196 395.687L435.009 396.562C437.217 397.073 438.863 397.859 439.946 398.922C441.029 399.984 441.571 401.365 441.571 403.063C441.571 404.5 441.154 405.781 440.321 406.906C439.498 408.021 438.347 408.896 436.868 409.531C435.399 410.167 433.696 410.484 431.759 410.484C429.071 410.484 426.878 409.911 425.18 408.766C423.483 407.609 422.441 405.969 422.055 403.844L426.571 403.156C426.852 404.333 427.43 405.224 428.305 405.828C429.18 406.422 430.321 406.719 431.727 406.719C433.259 406.719 434.483 406.401 435.399 405.766C436.316 405.12 436.774 404.333 436.774 403.406C436.774 402.656 436.493 402.026 435.93 401.516C435.378 401.005 434.529 400.62 433.384 400.359L429.321 399.469C427.082 398.958 425.425 398.146 424.352 397.031C423.29 395.917 422.759 394.505 422.759 392.797C422.759 391.38 423.154 390.141 423.946 389.078C424.738 388.016 425.832 387.187 427.227 386.594C428.623 385.99 430.222 385.688 432.024 385.688C434.618 385.688 436.66 386.25 438.149 387.375C439.639 388.49 440.623 389.984 441.102 391.859Z" fill="black"/>
<rect x="245" width="1" height="208" fill="#D9D9D9"/>
<rect x="244" y="429" width="1" height="410" fill="#D9D9D9"/>
<rect x="74" y="104" width="1" height="735" fill="#D9D9D9"/>
<rect x="100.961" y="57.5821" width="101.779" height="31.4929" rx="15.7464" stroke="#174EA6" stroke-width="1.16429"/>
<path d="M115.839 80.3286V66.7806H120.668C121.722 66.7806 122.595 66.9724 123.287 67.3561C123.98 67.7398 124.498 68.2646 124.842 68.9305C125.186 69.592 125.358 70.3374 125.358 71.1665C125.358 72 125.184 72.7497 124.835 73.4157C124.491 74.0772 123.971 74.602 123.274 74.9901C122.582 75.3738 121.711 75.5656 120.661 75.5656H117.34V73.8324H120.476C121.142 73.8324 121.682 73.7178 122.097 73.4884C122.511 73.2547 122.815 72.9372 123.009 72.5358C123.204 72.1345 123.301 71.6781 123.301 71.1665C123.301 70.6549 123.204 70.2007 123.009 69.8037C122.815 69.4068 122.509 69.0959 122.09 68.871C121.675 68.6461 121.129 68.5336 120.449 68.5336H117.883V80.3286H115.839ZM126.664 80.3286V70.1676H128.576V71.7817H128.682C128.867 71.2348 129.193 70.8048 129.661 70.4917C130.133 70.1742 130.666 70.0154 131.262 70.0154C131.385 70.0154 131.531 70.0198 131.698 70.0287C131.87 70.0375 132.005 70.0485 132.102 70.0617V71.9537C132.022 71.9316 131.881 71.9074 131.678 71.8809C131.476 71.8501 131.273 71.8346 131.07 71.8346C130.602 71.8346 130.186 71.9338 129.82 72.1323C129.458 72.3264 129.171 72.5976 128.96 72.946C128.748 73.29 128.642 73.6825 128.642 74.1235V80.3286H126.664ZM136.898 80.5337C135.896 80.5337 135.034 80.3198 134.311 79.892C133.592 79.4598 133.036 78.8534 132.644 78.0728C132.256 77.2878 132.062 76.3683 132.062 75.3142C132.062 74.2734 132.256 73.3561 132.644 72.5623C133.036 71.7685 133.583 71.1488 134.285 70.7034C134.99 70.258 135.815 70.0353 136.759 70.0353C137.332 70.0353 137.888 70.1301 138.426 70.3197C138.964 70.5094 139.447 70.807 139.874 71.2128C140.302 71.6185 140.64 72.1455 140.887 72.7938C141.134 73.4377 141.257 74.2205 141.257 75.1422V75.8435H133.18V74.3616H139.319C139.319 73.8412 139.213 73.3804 139.001 72.9791C138.79 72.5733 138.492 72.2536 138.108 72.0198C137.729 71.7861 137.283 71.6692 136.772 71.6692C136.216 71.6692 135.731 71.806 135.317 72.0794C134.906 72.3484 134.589 72.7012 134.364 73.1378C134.143 73.57 134.033 74.0397 134.033 74.5469V75.7045C134.033 76.3837 134.152 76.9614 134.39 77.4377C134.633 77.914 134.97 78.2779 135.403 78.5293C135.835 78.7762 136.34 78.8997 136.917 78.8997C137.292 78.8997 137.634 78.8468 137.943 78.741C138.251 78.6307 138.518 78.4675 138.743 78.2514C138.968 78.0353 139.14 77.7685 139.259 77.451L141.131 77.7884C140.981 78.3396 140.712 78.8225 140.324 79.2371C139.941 79.6472 139.458 79.967 138.876 80.1963C138.298 80.4212 137.638 80.5337 136.898 80.5337ZM142.52 84.139V70.1676H144.452V71.8148H144.617C144.732 71.6031 144.897 71.3583 145.113 71.0805C145.329 70.8026 145.629 70.5601 146.013 70.3528C146.397 70.1411 146.904 70.0353 147.535 70.0353C148.355 70.0353 149.087 70.2425 149.731 70.6571C150.375 71.0717 150.88 71.6692 151.246 72.4498C151.616 73.2304 151.801 74.1698 151.801 75.2679C151.801 76.3661 151.618 77.3076 151.252 78.0927C150.886 78.8733 150.384 79.4752 149.744 79.8986C149.105 80.3176 148.375 80.5271 147.554 80.5271C146.937 80.5271 146.432 80.4234 146.04 80.2162C145.651 80.0089 145.347 79.7663 145.127 79.4885C144.906 79.2106 144.736 78.9637 144.617 78.7476H144.498V84.139H142.52ZM144.458 75.2481C144.458 75.9625 144.562 76.5888 144.769 77.1268C144.977 77.6649 145.277 78.086 145.669 78.3903C146.062 78.6902 146.542 78.8402 147.111 78.8402C147.702 78.8402 148.196 78.6836 148.593 78.3705C148.99 78.053 149.29 77.623 149.493 77.0805C149.7 76.5381 149.804 75.9273 149.804 75.2481C149.804 74.5777 149.702 73.9758 149.499 73.4421C149.301 72.9085 149.001 72.4873 148.6 72.1786C148.203 71.8699 147.707 71.7155 147.111 71.7155C146.538 71.7155 146.053 71.8633 145.656 72.1588C145.263 72.4542 144.966 72.8666 144.763 73.3958C144.56 73.925 144.458 74.5425 144.458 75.2481ZM156.043 80.5535C155.399 80.5535 154.817 80.4345 154.297 80.1963C153.776 79.9537 153.364 79.6031 153.06 79.1445C152.76 78.6858 152.61 78.1235 152.61 77.4576C152.61 76.8843 152.72 76.4124 152.941 76.0419C153.161 75.6715 153.459 75.3782 153.834 75.1621C154.208 74.946 154.627 74.7828 155.091 74.6726C155.554 74.5623 156.025 74.4785 156.506 74.4212C157.115 74.3506 157.609 74.2933 157.988 74.2492C158.367 74.2007 158.643 74.1235 158.815 74.0177C158.987 73.9118 159.073 73.7398 159.073 73.5017V73.4554C159.073 72.8776 158.91 72.43 158.583 72.1125C158.261 71.7949 157.781 71.6362 157.141 71.6362C156.475 71.6362 155.95 71.7839 155.567 72.0794C155.188 72.3705 154.925 72.6946 154.78 73.0518L152.921 72.6285C153.141 72.011 153.463 71.5127 153.887 71.1334C154.314 70.7497 154.806 70.4719 155.362 70.2999C155.917 70.1235 156.502 70.0353 157.115 70.0353C157.521 70.0353 157.951 70.0838 158.405 70.1808C158.863 70.2734 159.291 70.4454 159.688 70.6968C160.089 70.9482 160.418 71.3076 160.674 71.7751C160.93 72.2382 161.057 72.8401 161.057 73.581V80.3286H159.126V78.9394H159.046C158.919 79.1952 158.727 79.4466 158.471 79.6935C158.215 79.9405 157.887 80.1456 157.485 80.3088C157.084 80.4719 156.603 80.5535 156.043 80.5535ZM156.473 78.9659C157.02 78.9659 157.487 78.8578 157.876 78.6417C158.268 78.4256 158.566 78.1434 158.769 77.795C158.976 77.4422 159.08 77.0651 159.08 76.6638V75.3539C159.009 75.4245 158.872 75.4907 158.669 75.5524C158.471 75.6097 158.244 75.6604 157.988 75.7045C157.732 75.7442 157.483 75.7817 157.24 75.817C156.998 75.8479 156.795 75.8743 156.632 75.8964C156.248 75.9449 155.898 76.0265 155.58 76.1412C155.267 76.2558 155.016 76.4212 154.826 76.6373C154.641 76.849 154.548 77.1312 154.548 77.4841C154.548 77.9736 154.729 78.344 155.091 78.5954C155.452 78.8424 155.913 78.9659 156.473 78.9659ZM162.761 80.3286V70.1676H164.672V71.7817H164.778C164.963 71.2348 165.29 70.8048 165.757 70.4917C166.229 70.1742 166.763 70.0154 167.358 70.0154C167.482 70.0154 167.627 70.0198 167.795 70.0287C167.967 70.0375 168.101 70.0485 168.198 70.0617V71.9537C168.119 71.9316 167.978 71.9074 167.775 71.8809C167.572 71.8501 167.369 71.8346 167.166 71.8346C166.699 71.8346 166.282 71.9338 165.916 72.1323C165.554 72.3264 165.268 72.5976 165.056 72.946C164.844 73.29 164.739 73.6825 164.739 74.1235V80.3286H162.761ZM172.994 80.5337C171.993 80.5337 171.131 80.3198 170.407 79.892C169.689 79.4598 169.133 78.8534 168.74 78.0728C168.352 77.2878 168.158 76.3683 168.158 75.3142C168.158 74.2734 168.352 73.3561 168.74 72.5623C169.133 71.7685 169.68 71.1488 170.381 70.7034C171.087 70.258 171.911 70.0353 172.855 70.0353C173.428 70.0353 173.984 70.1301 174.522 70.3197C175.06 70.5094 175.543 70.807 175.971 71.2128C176.399 71.6185 176.736 72.1455 176.983 72.7938C177.23 73.4377 177.354 74.2205 177.354 75.1422V75.8435H169.276V74.3616H175.415C175.415 73.8412 175.309 73.3804 175.098 72.9791C174.886 72.5733 174.588 72.2536 174.205 72.0198C173.825 71.7861 173.38 71.6692 172.868 71.6692C172.313 71.6692 171.828 71.806 171.413 72.0794C171.003 72.3484 170.685 72.7012 170.46 73.1378C170.24 73.57 170.13 74.0397 170.13 74.5469V75.7045C170.13 76.3837 170.249 76.9614 170.487 77.4377C170.729 77.914 171.067 78.2779 171.499 78.5293C171.931 78.7762 172.436 78.8997 173.014 78.8997C173.389 78.8997 173.731 78.8468 174.039 78.741C174.348 78.6307 174.615 78.4675 174.84 78.2514C175.065 78.0353 175.237 77.7685 175.356 77.451L177.228 77.7884C177.078 78.3396 176.809 78.8225 176.421 79.2371C176.037 79.6472 175.554 79.967 174.972 80.1963C174.394 80.4212 173.735 80.5337 172.994 80.5337ZM182.42 80.5271C181.6 80.5271 180.868 80.3176 180.224 79.8986C179.585 79.4752 179.082 78.8733 178.716 78.0927C178.354 77.3076 178.173 76.3661 178.173 75.2679C178.173 74.1698 178.356 73.2304 178.723 72.4498C179.093 71.6692 179.6 71.0717 180.244 70.6571C180.888 70.2425 181.618 70.0353 182.434 70.0353C183.064 70.0353 183.572 70.1411 183.955 70.3528C184.343 70.5601 184.643 70.8026 184.855 71.0805C185.071 71.3583 185.239 71.6031 185.358 71.8148H185.477V66.7806H187.455V80.3286H185.523V78.7476H185.358C185.239 78.9637 185.067 79.2106 184.842 79.4885C184.621 79.7663 184.317 80.0089 183.929 80.2162C183.541 80.4234 183.038 80.5271 182.42 80.5271ZM182.857 78.8402C183.426 78.8402 183.907 78.6902 184.299 78.3903C184.696 78.086 184.996 77.6649 185.199 77.1268C185.406 76.5888 185.51 75.9625 185.51 75.2481C185.51 74.5425 185.408 73.925 185.205 73.3958C185.003 72.8666 184.705 72.4542 184.312 72.1588C183.92 71.8633 183.435 71.7155 182.857 71.7155C182.262 71.7155 181.766 71.8699 181.369 72.1786C180.972 72.4873 180.672 72.9085 180.469 73.4421C180.271 73.9758 180.171 74.5777 180.171 75.2481C180.171 75.9273 180.273 76.5381 180.476 77.0805C180.678 77.623 180.978 78.053 181.375 78.3705C181.777 78.6836 182.271 78.8402 182.857 78.8402Z" fill="#174EA6"/>
<rect x="41.5821" y="57.5821" width="69.7786" height="31.4929" rx="15.7464" fill="#174EA6"/>
<rect x="41.5821" y="57.5821" width="69.7786" height="31.4929" rx="15.7464" stroke="#174EA6" stroke-width="1.16429"/>
<path d="M67.7124 71.1863H65.6485C65.5691 70.7453 65.4213 70.3572 65.2052 70.022C64.9891 69.6869 64.7245 69.4024 64.4114 69.1687C64.0983 68.9349 63.7477 68.7585 63.3596 68.6394C62.9759 68.5204 62.568 68.4608 62.1358 68.4608C61.3552 68.4608 60.6561 68.6571 60.0387 69.0496C59.4257 69.4421 58.9406 70.0176 58.5834 70.7762C58.2306 71.5347 58.0541 72.4609 58.0541 73.5546C58.0541 74.6571 58.2306 75.5877 58.5834 76.3462C58.9406 77.1048 59.4279 77.6781 60.0453 78.0662C60.6628 78.4543 61.3574 78.6483 62.1291 78.6483C62.5569 78.6483 62.9627 78.591 63.3464 78.4763C63.7345 78.3573 64.0851 78.1831 64.3982 77.9537C64.7113 77.7244 64.9759 77.4444 65.192 77.1136C65.4125 76.7784 65.5647 76.3947 65.6485 75.9625L67.7124 75.9692C67.6022 76.6351 67.3883 77.2481 67.0707 77.8082C66.7576 78.3639 66.3541 78.8446 65.8602 79.2503C65.3706 79.6517 64.8105 79.9626 64.1799 80.1831C63.5492 80.4036 62.8612 80.5138 62.1159 80.5138C60.9428 80.5138 59.8976 80.236 58.9803 79.6803C58.063 79.1202 57.3397 78.3198 56.8105 77.279C56.2857 76.2382 56.0233 74.9967 56.0233 73.5546C56.0233 72.108 56.2879 70.8666 56.8171 69.8302C57.3463 68.7894 58.0696 67.9912 58.9869 67.4355C59.9042 66.8754 60.9472 66.5953 62.1159 66.5953C62.8348 66.5953 63.5051 66.699 64.127 66.9063C64.7532 67.1091 65.3155 67.409 65.8138 67.8059C66.3122 68.1984 66.7245 68.6791 67.0509 69.2481C67.3773 69.8126 67.5978 70.4586 67.7124 71.1863ZM72.0252 80.5535C71.3814 80.5535 70.7992 80.4345 70.2788 80.1963C69.7584 79.9537 69.3461 79.6031 69.0418 79.1445C68.7419 78.6858 68.5919 78.1235 68.5919 77.4576C68.5919 76.8843 68.7022 76.4124 68.9227 76.0419C69.1432 75.6715 69.4409 75.3782 69.8157 75.1621C70.1906 74.946 70.6096 74.7828 71.0726 74.6726C71.5357 74.5623 72.0076 74.4785 72.4883 74.4212C73.0969 74.3506 73.5909 74.2933 73.9701 74.2492C74.3494 74.2007 74.625 74.1235 74.797 74.0177C74.969 73.9118 75.055 73.7398 75.055 73.5017V73.4554C75.055 72.8776 74.8919 72.43 74.5655 72.1125C74.2436 71.7949 73.7629 71.6362 73.1234 71.6362C72.4574 71.6362 71.9326 71.7839 71.5489 72.0794C71.1697 72.3705 70.9073 72.6946 70.7617 73.0518L68.9028 72.6285C69.1234 72.011 69.4453 71.5127 69.8687 71.1334C70.2965 70.7497 70.7882 70.4719 71.3439 70.2999C71.8996 70.1235 72.4839 70.0353 73.0969 70.0353C73.5027 70.0353 73.9326 70.0838 74.3869 70.1808C74.8456 70.2734 75.2733 70.4454 75.6703 70.6968C76.0716 70.9482 76.4001 71.3076 76.6559 71.7751C76.9117 72.2382 77.0396 72.8401 77.0396 73.581V80.3286H75.108V78.9394H75.0286C74.9007 79.1952 74.7088 79.4466 74.453 79.6935C74.1973 79.9405 73.8687 80.1456 73.4674 80.3088C73.066 80.4719 72.5853 80.5535 72.0252 80.5535ZM72.4552 78.9659C73.0021 78.9659 73.4696 78.8578 73.8577 78.6417C74.2502 78.4256 74.5479 78.1434 74.7507 77.795C74.958 77.4422 75.0617 77.0651 75.0617 76.6638V75.3539C74.9911 75.4245 74.8544 75.4907 74.6515 75.5524C74.453 75.6097 74.2259 75.6604 73.9701 75.7045C73.7143 75.7442 73.4652 75.7817 73.2226 75.817C72.98 75.8479 72.7772 75.8743 72.614 75.8964C72.2303 75.9449 71.8797 76.0265 71.5622 76.1412C71.2491 76.2558 70.9977 76.4212 70.808 76.6373C70.6228 76.849 70.5302 77.1312 70.5302 77.4841C70.5302 77.9736 70.711 78.344 71.0726 78.5954C71.4343 78.8424 71.8951 78.9659 72.4552 78.9659ZM86.3569 72.6483L84.5641 72.9658C84.4892 72.7365 84.3701 72.5182 84.2069 72.3109C84.0482 72.1036 83.8321 71.9338 83.5586 71.8015C83.2852 71.6692 82.9434 71.6031 82.5333 71.6031C81.9732 71.6031 81.5057 71.7288 81.1308 71.9802C80.756 72.2271 80.5685 72.5469 80.5685 72.9394C80.5685 73.279 80.6942 73.5524 80.9456 73.7597C81.197 73.9669 81.6027 74.1367 82.1628 74.269L83.7769 74.6395C84.7119 74.8556 85.4087 75.1886 85.8673 75.6384C86.326 76.0882 86.5553 76.6726 86.5553 77.3914C86.5553 78 86.3789 78.5425 86.0261 79.0188C85.6777 79.4907 85.1904 79.8611 84.5641 80.1302C83.9423 80.3992 83.2212 80.5337 82.401 80.5337C81.2631 80.5337 80.3348 80.2911 79.6159 79.806C78.8971 79.3165 78.4561 78.6219 78.2929 77.7222L80.2047 77.4311C80.3238 77.9295 80.5685 78.3065 80.939 78.5623C81.3094 78.8137 81.7923 78.9394 82.3877 78.9394C83.036 78.9394 83.5542 78.8049 83.9423 78.5359C84.3304 78.2624 84.5244 77.9295 84.5244 77.537C84.5244 77.2194 84.4054 76.9526 84.1672 76.7365C83.9335 76.5204 83.5741 76.3573 83.0889 76.247L81.369 75.8699C80.4208 75.6538 79.7196 75.3098 79.2653 74.8379C78.8155 74.3661 78.5906 73.7685 78.5906 73.0452C78.5906 72.4454 78.7581 71.9206 79.0933 71.4708C79.4285 71.0209 79.8916 70.6703 80.4825 70.419C81.0735 70.1632 81.7504 70.0353 82.5134 70.0353C83.6115 70.0353 84.4759 70.2734 85.1066 70.7497C85.7372 71.2216 86.154 71.8545 86.3569 72.6483ZM92.178 80.5337C91.1769 80.5337 90.3147 80.3198 89.5914 79.892C88.8725 79.4598 88.3169 78.8534 87.9244 78.0728C87.5363 77.2878 87.3422 76.3683 87.3422 75.3142C87.3422 74.2734 87.5363 73.3561 87.9244 72.5623C88.3169 71.7685 88.8637 71.1488 89.5649 70.7034C90.2706 70.258 91.0953 70.0353 92.0391 70.0353C92.6124 70.0353 93.1681 70.1301 93.7061 70.3197C94.2441 70.5094 94.7271 70.807 95.1548 71.2128C95.5826 71.6185 95.92 72.1455 96.167 72.7938C96.4139 73.4377 96.5374 74.2205 96.5374 75.1422V75.8435H88.4602V74.3616H94.5992C94.5992 73.8412 94.4933 73.3804 94.2816 72.9791C94.0699 72.5733 93.7723 72.2536 93.3886 72.0198C93.0093 71.7861 92.5639 71.6692 92.0523 71.6692C91.4966 71.6692 91.0115 71.806 90.5969 72.0794C90.1868 72.3484 89.8692 72.7012 89.6443 73.1378C89.4238 73.57 89.3136 74.0397 89.3136 74.5469V75.7045C89.3136 76.3837 89.4326 76.9614 89.6708 77.4377C89.9133 77.914 90.2507 78.2779 90.6829 78.5293C91.1151 78.7762 91.6201 78.8997 92.1978 78.8997C92.5727 78.8997 92.9145 78.8468 93.2232 78.741C93.5319 78.6307 93.7987 78.4675 94.0236 78.2514C94.2485 78.0353 94.4205 77.7685 94.5396 77.451L96.4117 77.7884C96.2618 78.3396 95.9928 78.8225 95.6047 79.2371C95.221 79.6472 94.7381 79.967 94.1559 80.1963C93.5782 80.4212 92.9189 80.5337 92.178 80.5337Z" fill="white"/>
<rect x="-38" y="236" width="274" height="1" fill="#D9D9D9"/>
<rect x="447" y="236" width="118" height="1" fill="#D9D9D9"/>
</g>
<defs>
<clipPath id="clip0_470_70">
<rect width="523" height="580" fill="white"/>
</clipPath>
</defs>
</svg>
