<svg width="525" height="483" viewBox="0 0 525 483" fill="none" xmlns="http://www.w3.org/2000/svg">
<path d="M0 0H525V483H0V0Z" fill="#FFFFF5"/>
<path d="M353.18 44.25H366.43L366.78 45.25H352.68L353.18 44.25ZM377.93 58.4C378.064 58.4 378.13 58.5 378.13 58.7C378.13 58.9 378.064 59 377.93 59C377.297 59 376.314 58.9667 374.98 58.9C373.647 58.8333 372.68 58.8 372.08 58.8C371.347 58.8 370.414 58.8333 369.28 58.9C368.214 58.9667 367.397 59 366.83 59C366.697 59 366.63 58.9 366.63 58.7C366.63 58.5 366.697 58.4 366.83 58.4C368.097 58.4 368.997 58.2833 369.53 58.05C370.097 57.8167 370.38 57.4 370.38 56.8C370.38 56.3 370.18 55.6 369.78 54.7L358.68 31.25L359.93 29.7L350.23 52.65C349.764 53.7833 349.53 54.7167 349.53 55.45C349.53 57.4167 351.164 58.4 354.43 58.4C354.597 58.4 354.68 58.5 354.68 58.7C354.68 58.9 354.597 59 354.43 59C353.83 59 352.964 58.9667 351.83 58.9C350.564 58.8333 349.464 58.8 348.53 58.8C347.664 58.8 346.664 58.8333 345.53 58.9C344.53 58.9667 343.697 59 343.03 59C342.864 59 342.78 58.9 342.78 58.7C342.78 58.5 342.864 58.4 343.03 58.4C343.964 58.4 344.747 58.2333 345.38 57.9C346.047 57.5333 346.664 56.9167 347.23 56.05C347.83 55.15 348.48 53.8667 349.18 52.2L359.73 27.3C359.797 27.2 359.914 27.15 360.08 27.15C360.247 27.15 360.347 27.2 360.38 27.3L372.18 52.15C373.314 54.6167 374.28 56.2833 375.08 57.15C375.88 57.9833 376.83 58.4 377.93 58.4ZM385.038 44.9C386.805 42.7 388.171 41.2167 389.138 40.45C390.105 39.65 391.005 39.25 391.838 39.25C392.571 39.25 393.271 39.45 393.938 39.85C394.605 40.25 394.938 40.7333 394.938 41.3C394.938 41.7333 394.788 42.1 394.488 42.4C394.188 42.7 393.788 42.85 393.288 42.85C392.988 42.85 392.721 42.8 392.488 42.7C392.288 42.5667 392.038 42.3833 391.738 42.15C391.438 41.8833 391.155 41.6833 390.888 41.55C390.621 41.4167 390.305 41.35 389.938 41.35C389.438 41.35 388.888 41.6 388.288 42.1C387.688 42.6 386.671 43.7167 385.238 45.45L385.038 44.9ZM380.338 59C380.238 59 380.188 58.9 380.188 58.7C380.188 58.5 380.238 58.4 380.338 58.4C381.238 58.4 381.905 58.3167 382.338 58.15C382.771 57.95 383.055 57.6167 383.188 57.15C383.355 56.6833 383.438 55.95 383.438 54.95V45.05C383.438 43.9167 383.305 43.1 383.038 42.6C382.771 42.1 382.321 41.85 381.688 41.85C381.155 41.85 380.255 42.1 378.988 42.6H378.888C378.755 42.6 378.655 42.5333 378.588 42.4C378.555 42.2333 378.605 42.1167 378.738 42.05L384.538 39.3C384.605 39.2667 384.705 39.25 384.838 39.25C385.138 39.25 385.455 39.6333 385.788 40.4C386.121 41.1667 386.288 42.15 386.288 43.35V54.95C386.288 55.95 386.405 56.6833 386.638 57.15C386.905 57.6167 387.371 57.95 388.038 58.15C388.705 58.3167 389.738 58.4 391.138 58.4C391.271 58.4 391.338 58.5 391.338 58.7C391.338 58.9 391.271 59 391.138 59C390.071 59 389.221 58.9833 388.588 58.95L384.888 58.9L382.138 58.95C381.705 58.9833 381.105 59 380.338 59ZM407.265 59.6C405.098 59.6 403.282 59.1333 401.815 58.2C400.348 57.2333 399.265 56 398.565 54.5C397.865 53 397.515 51.4167 397.515 49.75C397.515 47.6167 398.048 45.7667 399.115 44.2C400.182 42.6 401.548 41.3833 403.215 40.55C404.915 39.6833 406.648 39.25 408.415 39.25C409.882 39.25 411.215 39.55 412.415 40.15C413.648 40.7167 414.265 41.4333 414.265 42.3C414.265 42.7333 414.098 43.1167 413.765 43.45C413.465 43.75 413.048 43.9 412.515 43.9C411.615 43.9 410.882 43.35 410.315 42.25C409.882 41.5833 409.415 41.0833 408.915 40.75C408.415 40.4167 407.698 40.25 406.765 40.25C404.898 40.25 403.432 40.9833 402.365 42.45C401.332 43.8833 400.815 45.8167 400.815 48.25C400.815 51.05 401.515 53.35 402.915 55.15C404.315 56.95 406.415 57.85 409.215 57.85C411.248 57.85 412.948 57.3 414.315 56.2H414.365C414.465 56.2 414.548 56.25 414.615 56.35C414.715 56.45 414.732 56.5333 414.665 56.6C413.498 57.6333 412.315 58.4 411.115 58.9C409.948 59.3667 408.665 59.6 407.265 59.6ZM417.571 59C417.471 59 417.421 58.9 417.421 58.7C417.421 58.5 417.471 58.4 417.571 58.4C418.471 58.4 419.138 58.3167 419.571 58.15C420.005 57.95 420.305 57.6167 420.471 57.15C420.638 56.65 420.721 55.9167 420.721 54.95V29.1C420.721 27.9 420.605 27.0333 420.371 26.5C420.138 25.9667 419.721 25.7 419.121 25.7C418.621 25.7 417.855 25.9333 416.821 26.4L416.721 26.45C416.621 26.45 416.538 26.3667 416.471 26.2C416.405 26.0333 416.438 25.9167 416.571 25.85L422.921 22.75H423.071C423.205 22.75 423.305 22.8 423.371 22.9C423.471 22.9667 423.521 23.05 423.521 23.15V54.95C423.521 55.95 423.605 56.6833 423.771 57.15C423.938 57.6167 424.238 57.95 424.671 58.15C425.105 58.3167 425.771 58.4 426.671 58.4C426.771 58.4 426.821 58.5 426.821 58.7C426.821 58.9 426.771 59 426.671 59C425.905 59 425.288 58.9833 424.821 58.95L422.121 58.9L419.421 58.95C418.955 58.9833 418.338 59 417.571 59ZM431.021 59C430.921 59 430.871 58.9 430.871 58.7C430.871 58.5 430.921 58.4 431.021 58.4C431.921 58.4 432.588 58.3167 433.021 58.15C433.455 57.95 433.755 57.6167 433.921 57.15C434.088 56.65 434.171 55.9167 434.171 54.95V47C434.171 45.0333 433.788 43.5667 433.021 42.6C432.288 41.6333 431.138 41.15 429.571 41.15C428.338 41.15 427.088 41.55 425.821 42.35C424.555 43.1167 423.471 44.1667 422.571 45.5L422.371 44.9C423.871 42.9333 425.321 41.5 426.721 40.6C428.155 39.6667 429.655 39.2 431.221 39.2C433.055 39.2 434.471 39.7167 435.471 40.75C436.471 41.7833 436.971 43.2833 436.971 45.25V54.95C436.971 55.95 437.055 56.6833 437.221 57.15C437.388 57.6167 437.688 57.95 438.121 58.15C438.555 58.3167 439.221 58.4 440.121 58.4C440.221 58.4 440.271 58.5 440.271 58.7C440.271 58.9 440.221 59 440.121 59C439.355 59 438.738 58.9833 438.271 58.95L435.571 58.9L432.871 58.95C432.405 58.9833 431.788 59 431.021 59ZM443.873 59C443.806 59 443.773 58.9 443.773 58.7C443.773 58.5 443.806 58.4 443.873 58.4C444.773 58.4 445.439 58.3167 445.873 58.15C446.339 57.95 446.656 57.6167 446.823 57.15C446.989 56.6833 447.073 55.95 447.073 54.95V45.6C447.073 44.4 446.939 43.5333 446.673 43C446.439 42.4667 446.023 42.2 445.423 42.2C444.823 42.2 444.073 42.4333 443.173 42.9H443.123C442.989 42.9 442.889 42.8167 442.823 42.65C442.756 42.4833 442.773 42.3667 442.873 42.3L449.373 39.3L449.573 39.25C449.639 39.25 449.723 39.3 449.823 39.4C449.923 39.4667 449.973 39.55 449.973 39.65C449.973 39.8833 449.956 40.55 449.923 41.65C449.889 42.75 449.873 44.05 449.873 45.55V54.95C449.873 55.95 449.956 56.6833 450.123 57.15C450.289 57.6167 450.589 57.95 451.023 58.15C451.456 58.3167 452.123 58.4 453.023 58.4C453.123 58.4 453.173 58.5 453.173 58.7C453.173 58.9 453.123 59 453.023 59C452.256 59 451.639 58.9833 451.173 58.95L448.473 58.9L445.773 58.95C445.306 58.9833 444.673 59 443.873 59ZM448.073 33.4C447.406 33.4 446.873 33.2167 446.473 32.85C446.073 32.4833 445.873 31.9667 445.873 31.3C445.873 30.6333 446.073 30.1167 446.473 29.75C446.873 29.3833 447.406 29.2 448.073 29.2C448.739 29.2 449.256 29.3833 449.623 29.75C449.989 30.1167 450.173 30.6333 450.173 31.3C450.173 31.9667 449.989 32.4833 449.623 32.85C449.256 33.2167 448.739 33.4 448.073 33.4ZM476.445 39.7C476.511 39.7 476.545 39.8 476.545 40C476.545 40.2 476.511 40.3 476.445 40.3C475.578 40.3 474.845 40.5667 474.245 41.1C473.678 41.6333 473.128 42.5833 472.595 43.95L466.345 58.95C466.278 59.1167 466.095 59.2 465.795 59.2C465.495 59.2 465.311 59.1167 465.245 58.95L458.245 43.85C457.578 42.4167 457.011 41.4667 456.545 41C456.111 40.5333 455.561 40.3 454.895 40.3C454.795 40.3 454.745 40.2 454.745 40C454.745 39.8 454.795 39.7 454.895 39.7C455.561 39.7 456.078 39.7167 456.445 39.75L458.345 39.8L461.595 39.75C462.095 39.7167 462.761 39.7 463.595 39.7C463.695 39.7 463.745 39.8 463.745 40C463.745 40.2 463.695 40.3 463.595 40.3C461.595 40.3 460.595 40.7 460.595 41.5C460.595 41.7333 460.661 41.9833 460.795 42.25L467.195 55.85L465.745 57.9L471.595 43.7C471.828 43.0667 471.945 42.5833 471.945 42.25C471.945 41.5833 471.628 41.1 470.995 40.8C470.361 40.4667 469.361 40.3 467.995 40.3C467.928 40.3 467.895 40.2 467.895 40C467.895 39.8 467.928 39.7 467.995 39.7C468.895 39.7 469.578 39.7167 470.045 39.75L473.045 39.8L474.795 39.75C475.128 39.7167 475.678 39.7 476.445 39.7ZM488.124 59.65C486.191 59.65 484.474 59.1833 482.974 58.25C481.508 57.2833 480.374 56 479.574 54.4C478.774 52.7667 478.374 51 478.374 49.1C478.374 46.9333 478.891 45.1 479.924 43.6C480.991 42.0667 482.341 40.9333 483.974 40.2C485.641 39.4333 487.324 39.05 489.024 39.05C490.991 39.05 492.708 39.5333 494.174 40.5C495.641 41.4667 496.758 42.75 497.524 44.35C498.324 45.9167 498.724 47.5833 498.724 49.35C498.724 51.4167 498.241 53.2333 497.274 54.8C496.308 56.3333 495.008 57.5333 493.374 58.4C491.774 59.2333 490.024 59.65 488.124 59.65ZM489.574 58.7C491.408 58.7 492.824 58.05 493.824 56.75C494.824 55.45 495.324 53.45 495.324 50.75C495.324 48.6833 494.974 46.8333 494.274 45.2C493.608 43.5667 492.674 42.3 491.474 41.4C490.274 40.4667 488.908 40 487.374 40C485.574 40 484.174 40.65 483.174 41.95C482.208 43.25 481.724 45.1167 481.724 47.55C481.724 49.5833 482.058 51.45 482.724 53.15C483.391 54.85 484.324 56.2 485.524 57.2C486.724 58.2 488.074 58.7 489.574 58.7ZM288.086 120C287.986 120 287.936 119.9 287.936 119.7C287.936 119.5 287.986 119.4 288.086 119.4C289.086 119.4 289.82 119.317 290.286 119.15C290.753 118.95 291.07 118.617 291.236 118.15C291.436 117.683 291.536 116.95 291.536 115.95V104.7C291.536 103.833 291.453 103.233 291.286 102.9C291.12 102.533 290.803 102.3 290.336 102.2C289.87 102.067 289.053 102 287.886 102C287.786 102 287.736 101.9 287.736 101.7C287.736 101.467 287.786 101.35 287.886 101.35C289.253 101.35 290.17 101.2 290.636 100.9C291.136 100.567 291.403 99.9667 291.436 99.1C291.603 93.7 292.586 89.7833 294.386 87.35C296.22 84.9167 298.903 83.7 302.436 83.7C304.136 83.7 305.52 83.9667 306.586 84.5C307.686 85 308.236 85.6167 308.236 86.35C308.236 86.85 308.053 87.25 307.686 87.55C307.353 87.8167 306.953 87.95 306.486 87.95C306.086 87.95 305.736 87.85 305.436 87.65C305.17 87.45 304.87 87.1167 304.536 86.65C304.003 85.95 303.436 85.4333 302.836 85.1C302.27 84.7333 301.553 84.55 300.686 84.55C298.753 84.55 297.22 85.6667 296.086 87.9C294.953 90.1333 294.386 93.5167 294.386 98.05V115.95C294.386 116.983 294.503 117.733 294.736 118.2C294.97 118.667 295.42 118.983 296.086 119.15C296.753 119.317 297.82 119.4 299.286 119.4C299.386 119.4 299.436 119.5 299.436 119.7C299.436 119.9 299.386 120 299.286 120L296.086 119.95C295.386 119.917 294.32 119.9 292.886 119.9L290.086 119.95C289.62 119.983 288.953 120 288.086 120ZM300.636 103.15C298.503 102.617 296.003 102.35 293.136 102.35V101.25C295.17 101.25 297.72 101.083 300.786 100.75C300.886 100.75 300.97 100.867 301.036 101.1C301.103 101.333 301.136 101.617 301.136 101.95C301.136 102.217 301.086 102.5 300.986 102.8C300.886 103.067 300.77 103.183 300.636 103.15ZM313.271 120.65C311.337 120.65 309.621 120.183 308.121 119.25C306.654 118.283 305.521 117 304.721 115.4C303.921 113.767 303.521 112 303.521 110.1C303.521 107.933 304.037 106.1 305.071 104.6C306.137 103.067 307.487 101.933 309.121 101.2C310.787 100.433 312.471 100.05 314.171 100.05C316.137 100.05 317.854 100.533 319.321 101.5C320.787 102.467 321.904 103.75 322.671 105.35C323.471 106.917 323.871 108.583 323.871 110.35C323.871 112.417 323.387 114.233 322.421 115.8C321.454 117.333 320.154 118.533 318.521 119.4C316.921 120.233 315.171 120.65 313.271 120.65ZM314.721 119.7C316.554 119.7 317.971 119.05 318.971 117.75C319.971 116.45 320.471 114.45 320.471 111.75C320.471 109.683 320.121 107.833 319.421 106.2C318.754 104.567 317.821 103.3 316.621 102.4C315.421 101.467 314.054 101 312.521 101C310.721 101 309.321 101.65 308.321 102.95C307.354 104.25 306.871 106.117 306.871 108.55C306.871 110.583 307.204 112.45 307.871 114.15C308.537 115.85 309.471 117.2 310.671 118.2C311.871 119.2 313.221 119.7 314.721 119.7ZM335.046 120.6C333.646 120.6 332.496 120.283 331.596 119.65C330.696 119.017 330.246 117.967 330.246 116.5V104.75C330.246 103.883 330.18 103.267 330.046 102.9C329.946 102.533 329.73 102.3 329.396 102.2C329.063 102.067 328.496 102 327.696 102C327.563 102 327.496 101.9 327.496 101.7C327.496 101.467 327.563 101.35 327.696 101.35C329.03 101.317 330.113 100.967 330.946 100.3C331.78 99.6 332.263 98.6833 332.396 97.55C332.396 97.45 332.53 97.4 332.796 97.4C333.03 97.4 333.146 97.45 333.146 97.55V114.8C333.146 117.5 334.463 118.85 337.096 118.85C338.63 118.85 339.963 118.383 341.096 117.45L341.196 117.4C341.33 117.4 341.43 117.483 341.496 117.65C341.563 117.783 341.546 117.883 341.446 117.95C340.213 118.917 339.096 119.6 338.096 120C337.13 120.4 336.113 120.6 335.046 120.6ZM339.896 103.15C337.763 102.617 335.23 102.35 332.296 102.35V101.25C334.396 101.25 336.996 101.083 340.096 100.75C340.163 100.75 340.23 100.883 340.296 101.15C340.396 101.383 340.446 101.65 340.446 101.95C340.446 102.217 340.38 102.5 340.246 102.8C340.146 103.067 340.03 103.183 339.896 103.15ZM354.091 120.65C352.158 120.65 350.441 120.183 348.941 119.25C347.474 118.283 346.341 117 345.541 115.4C344.741 113.767 344.341 112 344.341 110.1C344.341 107.933 344.858 106.1 345.891 104.6C346.958 103.067 348.308 101.933 349.941 101.2C351.608 100.433 353.291 100.05 354.991 100.05C356.958 100.05 358.674 100.533 360.141 101.5C361.608 102.467 362.724 103.75 363.491 105.35C364.291 106.917 364.691 108.583 364.691 110.35C364.691 112.417 364.208 114.233 363.241 115.8C362.274 117.333 360.974 118.533 359.341 119.4C357.741 120.233 355.991 120.65 354.091 120.65ZM355.541 119.7C357.374 119.7 358.791 119.05 359.791 117.75C360.791 116.45 361.291 114.45 361.291 111.75C361.291 109.683 360.941 107.833 360.241 106.2C359.574 104.567 358.641 103.3 357.441 102.4C356.241 101.467 354.874 101 353.341 101C351.541 101 350.141 101.65 349.141 102.95C348.174 104.25 347.691 106.117 347.691 108.55C347.691 110.583 348.024 112.45 348.691 114.15C349.358 115.85 350.291 117.2 351.491 118.2C352.691 119.2 354.041 119.7 355.541 119.7ZM375.467 134C373.167 134 371.35 133.483 370.017 132.45C368.717 131.45 368.067 130.133 368.067 128.5C368.067 125.5 370.617 122.55 375.717 119.65L376.267 120.3C374.533 121.167 373.2 122.067 372.267 123C371.367 123.967 370.917 125.25 370.917 126.85C370.917 128.583 371.483 129.95 372.617 130.95C373.783 131.983 375.417 132.5 377.517 132.5C379.817 132.5 381.7 131.883 383.167 130.65C384.633 129.45 385.367 127.833 385.367 125.8C385.367 124.467 385.033 123.483 384.367 122.85C383.733 122.25 382.883 121.867 381.817 121.7C380.783 121.533 379.317 121.45 377.417 121.45C375.583 121.417 374.117 121.333 373.017 121.2C371.917 121.067 371.017 120.733 370.317 120.2C369.65 119.7 369.317 118.917 369.317 117.85C369.317 116.783 369.633 115.833 370.267 115C370.933 114.167 372 113.2 373.467 112.1L374.017 112.55C373.217 113.183 372.65 113.767 372.317 114.3C371.983 114.833 371.817 115.417 371.817 116.05C371.817 116.817 372.067 117.4 372.567 117.8C373.067 118.2 373.867 118.483 374.967 118.65C376.1 118.783 377.7 118.85 379.767 118.85C381.267 118.85 382.583 118.95 383.717 119.15C384.85 119.317 385.817 119.767 386.617 120.5C387.45 121.267 387.867 122.4 387.867 123.9C387.867 125.7 387.283 127.367 386.117 128.9C384.95 130.467 383.4 131.7 381.467 132.6C379.567 133.533 377.567 134 375.467 134ZM376.917 113.35C375.35 113.35 373.983 113.067 372.817 112.5C371.683 111.9 370.817 111.1 370.217 110.1C369.617 109.1 369.317 108.017 369.317 106.85C369.317 104.983 370.05 103.433 371.517 102.2C373.017 100.967 374.933 100.35 377.267 100.35C378.967 100.35 380.367 100.667 381.467 101.3C382.6 101.9 383.433 102.7 383.967 103.7C384.5 104.667 384.767 105.683 384.767 106.75C384.767 107.917 384.433 109.017 383.767 110.05C383.133 111.05 382.217 111.85 381.017 112.45C379.85 113.05 378.483 113.35 376.917 113.35ZM377.867 112.6C379 112.6 379.9 112.217 380.567 111.45C381.267 110.65 381.617 109.45 381.617 107.85C381.617 105.783 381.083 104.15 380.017 102.95C378.95 101.717 377.633 101.1 376.067 101.1C374.9 101.1 373.983 101.467 373.317 102.2C372.683 102.933 372.367 104.083 372.367 105.65C372.367 107.15 372.633 108.433 373.167 109.5C373.7 110.533 374.383 111.317 375.217 111.85C376.083 112.35 376.967 112.6 377.867 112.6ZM381.567 102.45C382.7 101.717 383.733 101.183 384.667 100.85C385.633 100.483 386.683 100.3 387.817 100.3C387.883 100.3 387.933 100.417 387.967 100.65C388.033 100.883 388.067 101.133 388.067 101.4C388.067 101.8 388.017 102.2 387.917 102.6C387.85 103 387.75 103.167 387.617 103.1C387.05 102.867 386.5 102.683 385.967 102.55C385.467 102.417 384.9 102.35 384.267 102.35C383.6 102.35 382.833 102.467 381.967 102.7L381.517 104.1L381.567 102.45ZM395.682 105.9C397.449 103.7 398.816 102.217 399.782 101.45C400.749 100.65 401.649 100.25 402.482 100.25C403.216 100.25 403.916 100.45 404.582 100.85C405.249 101.25 405.582 101.733 405.582 102.3C405.582 102.733 405.432 103.1 405.132 103.4C404.832 103.7 404.432 103.85 403.932 103.85C403.632 103.85 403.366 103.8 403.132 103.7C402.932 103.567 402.682 103.383 402.382 103.15C402.082 102.883 401.799 102.683 401.532 102.55C401.266 102.417 400.949 102.35 400.582 102.35C400.082 102.35 399.532 102.6 398.932 103.1C398.332 103.6 397.316 104.717 395.882 106.45L395.682 105.9ZM390.982 120C390.882 120 390.832 119.9 390.832 119.7C390.832 119.5 390.882 119.4 390.982 119.4C391.882 119.4 392.549 119.317 392.982 119.15C393.416 118.95 393.699 118.617 393.832 118.15C393.999 117.683 394.082 116.95 394.082 115.95V106.05C394.082 104.917 393.949 104.1 393.682 103.6C393.416 103.1 392.966 102.85 392.332 102.85C391.799 102.85 390.899 103.1 389.632 103.6H389.532C389.399 103.6 389.299 103.533 389.232 103.4C389.199 103.233 389.249 103.117 389.382 103.05L395.182 100.3C395.249 100.267 395.349 100.25 395.482 100.25C395.782 100.25 396.099 100.633 396.432 101.4C396.766 102.167 396.932 103.15 396.932 104.35V115.95C396.932 116.95 397.049 117.683 397.282 118.15C397.549 118.617 398.016 118.95 398.682 119.15C399.349 119.317 400.382 119.4 401.782 119.4C401.916 119.4 401.982 119.5 401.982 119.7C401.982 119.9 401.916 120 401.782 120C400.716 120 399.866 119.983 399.232 119.95L395.532 119.9L392.782 119.95C392.349 119.983 391.749 120 390.982 120ZM422.645 120.3C422.512 120.367 422.379 120.4 422.245 120.4C421.745 120.4 421.312 120.017 420.945 119.25C420.579 118.483 420.395 117.467 420.395 116.2V106.75C420.395 103.017 419.345 101.15 417.245 101.15C416.112 101.15 415.245 101.533 414.645 102.3C414.079 103.033 413.695 103.883 413.495 104.85C413.362 105.483 413.162 105.983 412.895 106.35C412.662 106.717 412.229 106.9 411.595 106.9C411.062 106.9 410.645 106.75 410.345 106.45C410.079 106.15 409.945 105.8 409.945 105.4C409.945 104.6 410.462 103.8 411.495 103C412.529 102.2 413.762 101.533 415.195 101C416.629 100.467 417.912 100.2 419.045 100.2C420.412 100.2 421.445 100.633 422.145 101.5C422.845 102.367 423.195 103.617 423.195 105.25V114.6C423.195 115.767 423.345 116.617 423.645 117.15C423.945 117.683 424.429 117.95 425.095 117.95C425.762 117.95 426.595 117.733 427.595 117.3H427.695C427.829 117.3 427.912 117.383 427.945 117.55C427.979 117.683 427.929 117.783 427.795 117.85L422.645 120.3ZM413.645 120.35C412.412 120.35 411.445 120.033 410.745 119.4C410.079 118.733 409.745 117.9 409.745 116.9C409.745 115.9 410.145 115.033 410.945 114.3C411.745 113.567 413.062 112.867 414.895 112.2L420.895 109.95L421.045 110.6L415.745 112.65C414.812 113.017 414.129 113.45 413.695 113.95C413.295 114.417 413.095 114.983 413.095 115.65C413.095 116.45 413.345 117.133 413.845 117.7C414.379 118.233 415.062 118.5 415.895 118.5C416.562 118.5 417.362 118.233 418.295 117.7L421.445 115.8L421.545 116.45L417.845 118.85C417.012 119.383 416.279 119.767 415.645 120C415.012 120.233 414.345 120.35 413.645 120.35ZM417.445 96.3C417.445 96.3667 417.379 96.4 417.245 96.4C417.145 96.4 417.045 96.3833 416.945 96.35C416.879 96.2833 416.862 96.2333 416.895 96.2L419.495 84.2C419.529 84.0667 419.862 83.9167 420.495 83.75C421.129 83.55 421.662 83.45 422.095 83.45C422.395 83.45 422.529 83.5167 422.495 83.65L417.445 96.3ZM429.493 120C429.393 120 429.343 119.9 429.343 119.7C429.343 119.5 429.393 119.4 429.493 119.4C430.493 119.4 431.226 119.317 431.693 119.15C432.159 118.95 432.476 118.617 432.643 118.15C432.843 117.683 432.943 116.95 432.943 115.95V104.7C432.943 103.833 432.859 103.233 432.693 102.9C432.526 102.533 432.209 102.3 431.743 102.2C431.276 102.067 430.459 102 429.293 102C429.193 102 429.143 101.9 429.143 101.7C429.143 101.467 429.193 101.35 429.293 101.35C430.659 101.35 431.576 101.2 432.043 100.9C432.543 100.567 432.809 99.9667 432.843 99.1C433.209 88.8333 437.176 83.7 444.743 83.7C446.576 83.7 448.076 84.0833 449.243 84.85C450.443 85.5833 451.043 86.45 451.043 87.45C451.043 87.95 450.909 88.3333 450.643 88.6C450.376 88.8667 450.009 89 449.543 89C449.043 89 448.643 88.85 448.343 88.55C448.043 88.25 447.743 87.8167 447.443 87.25C446.909 86.3833 446.343 85.7167 445.743 85.25C445.176 84.7833 444.293 84.55 443.093 84.55C440.859 84.55 439.076 85.6667 437.743 87.9C436.443 90.1333 435.793 93.5167 435.793 98.05V115.95C435.793 116.983 435.909 117.733 436.143 118.2C436.376 118.667 436.826 118.983 437.493 119.15C438.159 119.317 439.226 119.4 440.693 119.4C440.793 119.4 440.843 119.5 440.843 119.7C440.843 119.9 440.793 120 440.693 120L437.493 119.95C436.793 119.917 435.726 119.9 434.293 119.9L431.493 119.95C431.026 119.983 430.359 120 429.493 120ZM442.043 103.25C439.643 102.517 437.309 102.15 435.043 102.15V101.25C436.909 101.25 439.293 101.083 442.193 100.75C442.293 100.75 442.376 100.883 442.443 101.15C442.509 101.383 442.543 101.65 442.543 101.95C442.543 102.25 442.476 102.567 442.343 102.9C442.209 103.2 442.109 103.317 442.043 103.25ZM445.393 120C445.293 120 445.243 119.9 445.243 119.7C445.243 119.5 445.293 119.4 445.393 119.4C446.293 119.4 446.959 119.317 447.393 119.15C447.826 118.95 448.126 118.617 448.293 118.15C448.459 117.65 448.543 116.917 448.543 115.95V106.6C448.543 105.4 448.426 104.533 448.193 104C447.959 103.467 447.543 103.2 446.943 103.2C446.443 103.2 445.676 103.433 444.643 103.9H444.593C444.426 103.9 444.309 103.817 444.243 103.65C444.209 103.483 444.259 103.367 444.393 103.3L450.893 100.25C450.926 100.217 450.976 100.2 451.043 100.2C451.143 100.2 451.226 100.25 451.293 100.35C451.393 100.45 451.443 100.55 451.443 100.65C451.443 100.883 451.426 101.55 451.393 102.65C451.359 103.75 451.343 105.05 451.343 106.55V115.95C451.343 116.95 451.426 117.683 451.593 118.15C451.759 118.617 452.059 118.95 452.493 119.15C452.926 119.317 453.593 119.4 454.493 119.4C454.593 119.4 454.643 119.5 454.643 119.7C454.643 119.9 454.593 120 454.493 120C453.726 120 453.109 119.983 452.643 119.95L449.943 119.9L447.243 119.95C446.776 119.983 446.159 120 445.393 120ZM467.861 120.6C465.694 120.6 463.877 120.133 462.411 119.2C460.944 118.233 459.861 117 459.161 115.5C458.461 114 458.111 112.417 458.111 110.75C458.111 108.617 458.644 106.767 459.711 105.2C460.777 103.6 462.144 102.383 463.811 101.55C465.511 100.683 467.244 100.25 469.011 100.25C470.477 100.25 471.811 100.55 473.011 101.15C474.244 101.717 474.861 102.433 474.861 103.3C474.861 103.733 474.694 104.117 474.361 104.45C474.061 104.75 473.644 104.9 473.111 104.9C472.211 104.9 471.477 104.35 470.911 103.25C470.477 102.583 470.011 102.083 469.511 101.75C469.011 101.417 468.294 101.25 467.361 101.25C465.494 101.25 464.027 101.983 462.961 103.45C461.927 104.883 461.411 106.817 461.411 109.25C461.411 112.05 462.111 114.35 463.511 116.15C464.911 117.95 467.011 118.85 469.811 118.85C471.844 118.85 473.544 118.3 474.911 117.2H474.961C475.061 117.2 475.144 117.25 475.211 117.35C475.311 117.45 475.327 117.533 475.261 117.6C474.094 118.633 472.911 119.4 471.711 119.9C470.544 120.367 469.261 120.6 467.861 120.6ZM488.124 120.65C486.191 120.65 484.474 120.183 482.974 119.25C481.508 118.283 480.374 117 479.574 115.4C478.774 113.767 478.374 112 478.374 110.1C478.374 107.933 478.891 106.1 479.924 104.6C480.991 103.067 482.341 101.933 483.974 101.2C485.641 100.433 487.324 100.05 489.024 100.05C490.991 100.05 492.708 100.533 494.174 101.5C495.641 102.467 496.758 103.75 497.524 105.35C498.324 106.917 498.724 108.583 498.724 110.35C498.724 112.417 498.241 114.233 497.274 115.8C496.308 117.333 495.008 118.533 493.374 119.4C491.774 120.233 490.024 120.65 488.124 120.65ZM489.574 119.7C491.408 119.7 492.824 119.05 493.824 117.75C494.824 116.45 495.324 114.45 495.324 111.75C495.324 109.683 494.974 107.833 494.274 106.2C493.608 104.567 492.674 103.3 491.474 102.4C490.274 101.467 488.908 101 487.374 101C485.574 101 484.174 101.65 483.174 102.95C482.208 104.25 481.724 106.117 481.724 108.55C481.724 110.583 482.058 112.45 482.724 114.15C483.391 115.85 484.324 117.2 485.524 118.2C486.724 119.2 488.074 119.7 489.574 119.7ZM343.205 181.65C341.805 181.65 340.505 181.25 339.305 180.45C338.139 179.65 337.189 178.533 336.455 177.1C335.755 175.633 335.405 173.967 335.405 172.1C335.405 169.733 335.989 167.717 337.155 166.05C338.322 164.383 339.789 163.133 341.555 162.3C343.322 161.467 345.072 161.05 346.805 161.05C349.105 161.05 351.139 161.8 352.905 163.3L352.355 166.65C351.455 165.183 350.472 164.05 349.405 163.25C348.339 162.45 347.022 162.05 345.455 162.05C343.355 162.05 341.689 162.8 340.455 164.3C339.255 165.767 338.655 167.867 338.655 170.6C338.655 172.433 338.939 174.05 339.505 175.45C340.072 176.85 340.839 177.933 341.805 178.7C342.805 179.467 343.922 179.85 345.155 179.85C346.522 179.85 347.772 179.483 348.905 178.75C350.039 178.017 351.222 176.967 352.455 175.6L352.855 175.95C351.322 177.683 349.822 179.067 348.355 180.1C346.889 181.133 345.172 181.65 343.205 181.65ZM354.405 175.5C354.405 176.7 354.539 177.567 354.805 178.1C355.105 178.633 355.572 178.9 356.205 178.9C357.172 178.9 358.039 178.667 358.805 178.2L358.905 178.15C359.039 178.15 359.122 178.233 359.155 178.4C359.222 178.567 359.205 178.683 359.105 178.75L353.605 181.35C353.472 181.417 353.339 181.45 353.205 181.45C352.772 181.45 352.389 181.05 352.055 180.25C351.755 179.45 351.605 178.35 351.605 176.95V151.15C351.605 149.95 351.472 149.083 351.205 148.55C350.972 148.017 350.555 147.75 349.955 147.75C349.522 147.75 348.755 147.983 347.655 148.45H347.555C347.422 148.45 347.322 148.383 347.255 148.25C347.222 148.083 347.255 147.967 347.355 147.9L353.705 144.8C353.772 144.767 353.855 144.75 353.955 144.75C354.055 144.75 354.155 144.8 354.255 144.9C354.355 144.967 354.405 145.05 354.405 145.15V175.5ZM370.141 181.6C368.208 181.6 366.558 181.15 365.191 180.25C363.825 179.35 362.775 178.167 362.041 176.7C361.341 175.233 360.991 173.667 360.991 172C360.991 170.033 361.458 168.233 362.391 166.6C363.325 164.933 364.591 163.633 366.191 162.7C367.825 161.733 369.608 161.25 371.541 161.25C373.408 161.25 374.841 161.75 375.841 162.75C376.841 163.75 377.341 165.15 377.341 166.95C377.341 167.417 377.291 167.75 377.191 167.95C377.125 168.15 376.975 168.25 376.741 168.25H373.941L373.991 167.35C373.991 165.683 373.625 164.417 372.891 163.55C372.158 162.683 371.158 162.25 369.891 162.25C368.125 162.25 366.741 162.95 365.741 164.35C364.775 165.75 364.291 167.667 364.291 170.1C364.291 173 364.975 175.35 366.341 177.15C367.708 178.95 369.625 179.85 372.091 179.85C373.091 179.85 373.941 179.717 374.641 179.45C375.375 179.183 376.191 178.767 377.091 178.2H377.141C377.241 178.2 377.325 178.267 377.391 178.4C377.491 178.5 377.508 178.6 377.441 178.7C375.175 180.633 372.741 181.6 370.141 181.6ZM363.341 167.65L374.691 167.45V168.25L363.391 168.3L363.341 167.65ZM398.57 155.6C398.57 156.9 398.887 158.033 399.52 159C400.154 159.967 400.92 160.783 401.82 161.45C402.72 162.083 403.987 162.9 405.62 163.9C407.354 164.933 408.704 165.8 409.67 166.5C410.637 167.2 411.454 168.1 412.12 169.2C412.82 170.267 413.17 171.55 413.17 173.05C413.17 174.65 412.77 176.1 411.97 177.4C411.17 178.7 409.987 179.733 408.42 180.5C406.887 181.233 405.037 181.6 402.87 181.6C400.304 181.6 397.954 181.017 395.82 179.85C395.654 179.75 395.537 179.633 395.47 179.5C395.437 179.367 395.404 179.167 395.37 178.9L394.72 172.1C394.687 171.967 394.754 171.883 394.92 171.85C395.12 171.817 395.237 171.867 395.27 172C395.77 174.367 396.754 176.433 398.22 178.2C399.687 179.933 401.62 180.8 404.02 180.8C405.687 180.8 407.087 180.35 408.22 179.45C409.387 178.517 409.97 177.05 409.97 175.05C409.97 173.55 409.637 172.25 408.97 171.15C408.304 170.05 407.487 169.15 406.52 168.45C405.587 167.717 404.304 166.867 402.67 165.9C401.07 164.933 399.804 164.1 398.87 163.4C397.97 162.7 397.204 161.817 396.57 160.75C395.937 159.683 395.62 158.433 395.62 157C395.62 155.333 396.054 153.917 396.92 152.75C397.82 151.55 398.97 150.667 400.37 150.1C401.804 149.5 403.32 149.2 404.92 149.2C406.887 149.2 408.837 149.6 410.77 150.4C411.27 150.567 411.52 150.85 411.52 151.25L411.87 156.95C411.87 157.117 411.77 157.2 411.57 157.2C411.404 157.2 411.304 157.133 411.27 157C411.037 155.267 410.337 153.667 409.17 152.2C408.004 150.7 406.32 149.95 404.12 149.95C402.254 149.95 400.854 150.5 399.92 151.6C399.02 152.667 398.57 154 398.57 155.6ZM431.581 181.3C431.448 181.367 431.314 181.4 431.181 181.4C430.681 181.4 430.248 181.017 429.881 180.25C429.514 179.483 429.331 178.467 429.331 177.2V167.75C429.331 164.017 428.281 162.15 426.181 162.15C425.048 162.15 424.181 162.533 423.581 163.3C423.014 164.033 422.631 164.883 422.431 165.85C422.298 166.483 422.098 166.983 421.831 167.35C421.598 167.717 421.164 167.9 420.531 167.9C419.998 167.9 419.581 167.75 419.281 167.45C419.014 167.15 418.881 166.8 418.881 166.4C418.881 165.6 419.398 164.8 420.431 164C421.464 163.2 422.698 162.533 424.131 162C425.564 161.467 426.848 161.2 427.981 161.2C429.348 161.2 430.381 161.633 431.081 162.5C431.781 163.367 432.131 164.617 432.131 166.25V175.6C432.131 176.767 432.281 177.617 432.581 178.15C432.881 178.683 433.364 178.95 434.031 178.95C434.698 178.95 435.531 178.733 436.531 178.3H436.631C436.764 178.3 436.848 178.383 436.881 178.55C436.914 178.683 436.864 178.783 436.731 178.85L431.581 181.3ZM422.581 181.35C421.348 181.35 420.381 181.033 419.681 180.4C419.014 179.733 418.681 178.9 418.681 177.9C418.681 176.9 419.081 176.033 419.881 175.3C420.681 174.567 421.998 173.867 423.831 173.2L429.831 170.95L429.981 171.6L424.681 173.65C423.748 174.017 423.064 174.45 422.631 174.95C422.231 175.417 422.031 175.983 422.031 176.65C422.031 177.45 422.281 178.133 422.781 178.7C423.314 179.233 423.998 179.5 424.831 179.5C425.498 179.5 426.298 179.233 427.231 178.7L430.381 176.8L430.481 177.45L426.781 179.85C425.948 180.383 425.214 180.767 424.581 181C423.948 181.233 423.281 181.35 422.581 181.35ZM452.528 181C452.428 181 452.378 180.9 452.378 180.7C452.378 180.5 452.428 180.4 452.528 180.4C453.428 180.4 454.095 180.317 454.528 180.15C454.961 179.95 455.245 179.617 455.378 179.15C455.545 178.683 455.628 177.95 455.628 176.95V168.85C455.628 166.85 455.245 165.4 454.478 164.5C453.745 163.567 452.595 163.1 451.028 163.1C449.795 163.1 448.545 163.483 447.278 164.25C446.045 165.017 444.978 166.067 444.078 167.4L443.878 166.8C445.345 164.833 446.795 163.383 448.228 162.45C449.661 161.517 451.145 161.05 452.678 161.05C454.511 161.05 455.928 161.583 456.928 162.65C457.961 163.683 458.478 165.183 458.478 167.15V176.95C458.478 177.95 458.545 178.683 458.678 179.15C458.845 179.617 459.145 179.95 459.578 180.15C460.011 180.317 460.678 180.4 461.578 180.4C461.678 180.4 461.728 180.5 461.728 180.7C461.728 180.9 461.678 181 461.578 181C460.811 181 460.211 180.983 459.778 180.95L457.078 180.9L454.328 180.95C453.895 180.983 453.295 181 452.528 181ZM439.078 181C438.978 181 438.928 180.9 438.928 180.7C438.928 180.5 438.978 180.4 439.078 180.4C439.978 180.4 440.645 180.317 441.078 180.15C441.511 179.95 441.795 179.617 441.928 179.15C442.095 178.683 442.178 177.95 442.178 176.95V167.05C442.178 165.917 442.045 165.1 441.778 164.6C441.511 164.1 441.061 163.85 440.428 163.85C439.895 163.85 438.995 164.1 437.728 164.6H437.628C437.495 164.6 437.395 164.533 437.328 164.4C437.295 164.233 437.345 164.117 437.478 164.05L443.278 161.3C443.345 161.267 443.445 161.25 443.578 161.25C443.878 161.25 444.195 161.633 444.528 162.4C444.861 163.167 445.028 164.15 445.028 165.35V176.95C445.028 177.95 445.095 178.683 445.228 179.15C445.395 179.617 445.695 179.95 446.128 180.15C446.561 180.317 447.228 180.4 448.128 180.4C448.228 180.4 448.278 180.5 448.278 180.7C448.278 180.9 448.228 181 448.128 181C447.361 181 446.761 180.983 446.328 180.95L443.628 180.9L440.878 180.95C440.445 180.983 439.845 181 439.078 181ZM472.058 181.6C470.658 181.6 469.508 181.283 468.608 180.65C467.708 180.017 467.258 178.967 467.258 177.5V165.75C467.258 164.883 467.192 164.267 467.058 163.9C466.958 163.533 466.742 163.3 466.408 163.2C466.075 163.067 465.508 163 464.708 163C464.575 163 464.508 162.9 464.508 162.7C464.508 162.467 464.575 162.35 464.708 162.35C466.042 162.317 467.125 161.967 467.958 161.3C468.792 160.6 469.275 159.683 469.408 158.55C469.408 158.45 469.542 158.4 469.808 158.4C470.042 158.4 470.158 158.45 470.158 158.55V175.8C470.158 178.5 471.475 179.85 474.108 179.85C475.642 179.85 476.975 179.383 478.108 178.45L478.208 178.4C478.342 178.4 478.442 178.483 478.508 178.65C478.575 178.783 478.558 178.883 478.458 178.95C477.225 179.917 476.108 180.6 475.108 181C474.142 181.4 473.125 181.6 472.058 181.6ZM476.908 164.15C474.775 163.617 472.242 163.35 469.308 163.35V162.25C471.408 162.25 474.008 162.083 477.108 161.75C477.175 161.75 477.242 161.883 477.308 162.15C477.408 162.383 477.458 162.65 477.458 162.95C477.458 163.217 477.392 163.5 477.258 163.8C477.158 164.067 477.042 164.183 476.908 164.15ZM495.253 181.3C495.119 181.367 494.986 181.4 494.853 181.4C494.353 181.4 493.919 181.017 493.553 180.25C493.186 179.483 493.003 178.467 493.003 177.2V167.75C493.003 164.017 491.953 162.15 489.853 162.15C488.719 162.15 487.853 162.533 487.253 163.3C486.686 164.033 486.303 164.883 486.103 165.85C485.969 166.483 485.769 166.983 485.503 167.35C485.269 167.717 484.836 167.9 484.203 167.9C483.669 167.9 483.253 167.75 482.953 167.45C482.686 167.15 482.553 166.8 482.553 166.4C482.553 165.6 483.069 164.8 484.103 164C485.136 163.2 486.369 162.533 487.803 162C489.236 161.467 490.519 161.2 491.653 161.2C493.019 161.2 494.053 161.633 494.753 162.5C495.453 163.367 495.803 164.617 495.803 166.25V175.6C495.803 176.767 495.953 177.617 496.253 178.15C496.553 178.683 497.036 178.95 497.703 178.95C498.369 178.95 499.203 178.733 500.203 178.3H500.303C500.436 178.3 500.519 178.383 500.553 178.55C500.586 178.683 500.536 178.783 500.403 178.85L495.253 181.3ZM486.253 181.35C485.019 181.35 484.053 181.033 483.353 180.4C482.686 179.733 482.353 178.9 482.353 177.9C482.353 176.9 482.753 176.033 483.553 175.3C484.353 174.567 485.669 173.867 487.503 173.2L493.503 170.95L493.653 171.6L488.353 173.65C487.419 174.017 486.736 174.45 486.303 174.95C485.903 175.417 485.703 175.983 485.703 176.65C485.703 177.45 485.953 178.133 486.453 178.7C486.986 179.233 487.669 179.5 488.503 179.5C489.169 179.5 489.969 179.233 490.903 178.7L494.053 176.8L494.153 177.45L490.453 179.85C489.619 180.383 488.886 180.767 488.253 181C487.619 181.233 486.953 181.35 486.253 181.35ZM378.081 210.2C380.181 210.2 381.948 210.35 383.381 210.65C384.815 210.95 386.248 211.467 387.681 212.2C387.915 212.333 388.048 212.45 388.081 212.55C388.115 212.65 388.165 212.9 388.231 213.3L388.831 219.25C388.831 219.35 388.731 219.417 388.531 219.45C388.365 219.45 388.265 219.4 388.231 219.3C386.698 213.733 383.265 210.95 377.931 210.95C375.131 210.95 372.648 211.567 370.481 212.8C368.348 214.033 366.698 215.8 365.531 218.1C364.365 220.367 363.781 223.017 363.781 226.05C363.781 228.95 364.431 231.617 365.731 234.05C367.031 236.45 368.765 238.35 370.931 239.75C373.131 241.15 375.515 241.85 378.081 241.85C380.815 241.85 383.031 241.183 384.731 239.85C386.431 238.517 387.731 236.483 388.631 233.75C388.631 233.683 388.715 233.65 388.881 233.65C389.115 233.65 389.231 233.7 389.231 233.8L388.731 239.3C388.698 239.7 388.648 239.95 388.581 240.05C388.515 240.15 388.381 240.267 388.181 240.4C386.448 241.233 384.815 241.817 383.281 242.15C381.781 242.483 380.048 242.65 378.081 242.65C374.581 242.65 371.448 241.967 368.681 240.6C365.948 239.2 363.815 237.25 362.281 234.75C360.748 232.25 359.981 229.383 359.981 226.15C359.981 223.017 360.765 220.25 362.331 217.85C363.898 215.417 366.048 213.533 368.781 212.2C371.548 210.867 374.648 210.2 378.081 210.2ZM398.759 227.9C400.525 225.7 401.892 224.217 402.859 223.45C403.825 222.65 404.725 222.25 405.559 222.25C406.292 222.25 406.992 222.45 407.659 222.85C408.325 223.25 408.659 223.733 408.659 224.3C408.659 224.733 408.509 225.1 408.209 225.4C407.909 225.7 407.509 225.85 407.009 225.85C406.709 225.85 406.442 225.8 406.209 225.7C406.009 225.567 405.759 225.383 405.459 225.15C405.159 224.883 404.875 224.683 404.609 224.55C404.342 224.417 404.025 224.35 403.659 224.35C403.159 224.35 402.609 224.6 402.009 225.1C401.409 225.6 400.392 226.717 398.959 228.45L398.759 227.9ZM394.059 242C393.959 242 393.909 241.9 393.909 241.7C393.909 241.5 393.959 241.4 394.059 241.4C394.959 241.4 395.625 241.317 396.059 241.15C396.492 240.95 396.775 240.617 396.909 240.15C397.075 239.683 397.159 238.95 397.159 237.95V228.05C397.159 226.917 397.025 226.1 396.759 225.6C396.492 225.1 396.042 224.85 395.409 224.85C394.875 224.85 393.975 225.1 392.709 225.6H392.609C392.475 225.6 392.375 225.533 392.309 225.4C392.275 225.233 392.325 225.117 392.459 225.05L398.259 222.3C398.325 222.267 398.425 222.25 398.559 222.25C398.859 222.25 399.175 222.633 399.509 223.4C399.842 224.167 400.009 225.15 400.009 226.35V237.95C400.009 238.95 400.125 239.683 400.359 240.15C400.625 240.617 401.092 240.95 401.759 241.15C402.425 241.317 403.459 241.4 404.859 241.4C404.992 241.4 405.059 241.5 405.059 241.7C405.059 241.9 404.992 242 404.859 242C403.792 242 402.942 241.983 402.309 241.95L398.609 241.9L395.859 241.95C395.425 241.983 394.825 242 394.059 242ZM419.121 242.4C417.455 242.4 416.155 241.883 415.221 240.85C414.288 239.783 413.821 238.25 413.821 236.25V228.6C413.821 227.3 413.705 226.367 413.471 225.8C413.238 225.2 412.855 224.9 412.321 224.9C411.855 224.9 411.288 225.067 410.621 225.4H410.571C410.438 225.4 410.338 225.317 410.271 225.15C410.205 224.95 410.238 224.833 410.371 224.8L415.921 222.3L416.121 222.25C416.221 222.25 416.321 222.3 416.421 222.4C416.555 222.467 416.621 222.55 416.621 222.65V234.6C416.621 238.467 418.021 240.4 420.821 240.4C422.088 240.4 423.371 240.017 424.671 239.25C425.971 238.483 427.088 237.45 428.021 236.15L428.271 236.7C426.771 238.667 425.271 240.117 423.771 241.05C422.271 241.95 420.721 242.4 419.121 242.4ZM429.871 236.65C429.871 237.783 430.005 238.6 430.271 239.1C430.538 239.6 430.988 239.85 431.621 239.85C432.188 239.85 433.071 239.617 434.271 239.15H434.371C434.505 239.15 434.588 239.233 434.621 239.4C434.688 239.533 434.655 239.633 434.521 239.7L428.671 242.45L428.471 242.5C428.138 242.5 427.821 242.117 427.521 241.35C427.221 240.583 427.071 239.583 427.071 238.35V228.6C427.071 227.267 426.955 226.317 426.721 225.75C426.521 225.183 426.138 224.9 425.571 224.9C425.105 224.9 424.538 225.067 423.871 225.4H423.821C423.688 225.4 423.588 225.317 423.521 225.15C423.488 224.95 423.538 224.833 423.671 224.8L429.221 222.3L429.371 222.25C429.471 222.25 429.571 222.3 429.671 222.4C429.805 222.467 429.871 222.55 429.871 222.65V236.65ZM448.78 223.7C448.88 223.467 448.796 223.35 448.53 223.35C445.93 223.35 443.913 223.467 442.48 223.7C441.046 223.9 439.913 224.317 439.08 224.95C438.28 225.583 437.696 226.533 437.33 227.8C437.33 227.867 437.263 227.9 437.13 227.9C437.03 227.9 436.93 227.883 436.83 227.85C436.763 227.783 436.746 227.733 436.78 227.7L438.48 221.25C438.513 221.183 438.613 221.167 438.78 221.2C438.98 221.2 439.063 221.233 439.03 221.3C438.996 221.4 438.98 221.533 438.98 221.7C438.98 222.1 439.163 222.367 439.53 222.5C439.896 222.633 440.53 222.7 441.43 222.7H452.03C452.163 222.7 452.263 222.767 452.33 222.9C452.43 223.033 452.463 223.167 452.43 223.3L440.63 240.9C440.496 241.133 440.58 241.25 440.88 241.25C444.146 241.25 446.463 241.15 447.83 240.95C449.23 240.75 450.246 240.333 450.88 239.7C451.513 239.033 452.08 237.9 452.58 236.3C452.613 236.233 452.713 236.2 452.88 236.2C453.046 236.2 453.13 236.233 453.13 236.3L453.03 241.45C453.03 241.583 452.98 241.717 452.88 241.85C452.813 241.95 452.713 242 452.58 242H437.13C436.996 242 436.88 241.933 436.78 241.8C436.713 241.667 436.713 241.533 436.78 241.4L448.78 223.7ZM468.662 242C468.562 242 468.512 241.9 468.512 241.7C468.512 241.5 468.562 241.4 468.662 241.4C469.562 241.4 470.229 241.317 470.662 241.15C471.095 240.95 471.395 240.617 471.562 240.15C471.729 239.65 471.812 238.917 471.812 237.95V212.1C471.812 210.9 471.695 210.033 471.462 209.5C471.229 208.967 470.812 208.7 470.212 208.7C469.712 208.7 468.945 208.933 467.912 209.4H467.812C467.712 209.4 467.629 209.317 467.562 209.15C467.529 208.983 467.562 208.883 467.662 208.85L474.062 205.8C474.129 205.767 474.212 205.75 474.312 205.75C474.412 205.75 474.512 205.8 474.612 205.9C474.712 205.967 474.762 206.05 474.762 206.15V237.95C474.762 238.917 474.829 239.633 474.962 240.1C475.129 240.567 475.429 240.9 475.862 241.1C476.295 241.3 476.962 241.4 477.862 241.4C477.962 241.4 478.012 241.5 478.012 241.7C478.012 241.9 477.962 242 477.862 242C477.129 242 476.529 241.983 476.062 241.95L473.262 241.9L470.562 241.95C470.095 241.983 469.462 242 468.662 242ZM495.253 242.3C495.119 242.367 494.986 242.4 494.853 242.4C494.353 242.4 493.919 242.017 493.553 241.25C493.186 240.483 493.003 239.467 493.003 238.2V228.75C493.003 225.017 491.953 223.15 489.853 223.15C488.719 223.15 487.853 223.533 487.253 224.3C486.686 225.033 486.303 225.883 486.103 226.85C485.969 227.483 485.769 227.983 485.503 228.35C485.269 228.717 484.836 228.9 484.203 228.9C483.669 228.9 483.253 228.75 482.953 228.45C482.686 228.15 482.553 227.8 482.553 227.4C482.553 226.6 483.069 225.8 484.103 225C485.136 224.2 486.369 223.533 487.803 223C489.236 222.467 490.519 222.2 491.653 222.2C493.019 222.2 494.053 222.633 494.753 223.5C495.453 224.367 495.803 225.617 495.803 227.25V236.6C495.803 237.767 495.953 238.617 496.253 239.15C496.553 239.683 497.036 239.95 497.703 239.95C498.369 239.95 499.203 239.733 500.203 239.3H500.303C500.436 239.3 500.519 239.383 500.553 239.55C500.586 239.683 500.536 239.783 500.403 239.85L495.253 242.3ZM486.253 242.35C485.019 242.35 484.053 242.033 483.353 241.4C482.686 240.733 482.353 239.9 482.353 238.9C482.353 237.9 482.753 237.033 483.553 236.3C484.353 235.567 485.669 234.867 487.503 234.2L493.503 231.95L493.653 232.6L488.353 234.65C487.419 235.017 486.736 235.45 486.303 235.95C485.903 236.417 485.703 236.983 485.703 237.65C485.703 238.45 485.953 239.133 486.453 239.7C486.986 240.233 487.669 240.5 488.503 240.5C489.169 240.5 489.969 240.233 490.903 239.7L494.053 237.8L494.153 238.45L490.453 240.85C489.619 241.383 488.886 241.767 488.253 242C487.619 242.233 486.953 242.35 486.253 242.35ZM441.432 303C440.599 303 438.999 301.583 436.632 298.75C434.299 295.883 431.482 291.95 428.182 286.95L430.982 286.1C433.882 290.267 436.299 293.517 438.232 295.85C440.199 298.15 441.932 299.817 443.432 300.85C444.932 301.883 446.399 302.4 447.832 302.4C447.932 302.4 447.982 302.5 447.982 302.7C447.982 302.9 447.932 303 447.832 303H441.432ZM428.832 271.6C431.466 271.6 433.499 272.2 434.932 273.4C436.366 274.6 437.082 276.2 437.082 278.2C437.082 279.967 436.566 281.583 435.532 283.05C434.499 284.483 433.099 285.633 431.332 286.5C429.599 287.333 427.732 287.75 425.732 287.75C425.532 287.75 424.782 287.7 423.482 287.6V298.95C423.482 299.983 423.582 300.733 423.782 301.2C423.982 301.667 424.366 301.983 424.932 302.15C425.532 302.317 426.466 302.4 427.732 302.4C427.832 302.4 427.882 302.5 427.882 302.7C427.882 302.9 427.832 303 427.732 303C426.699 303 425.882 302.983 425.282 302.95L421.832 302.9L418.432 302.95C417.832 302.983 416.982 303 415.882 303C415.816 303 415.782 302.9 415.782 302.7C415.782 302.5 415.816 302.4 415.882 302.4C417.149 302.4 418.082 302.317 418.682 302.15C419.282 301.95 419.699 301.617 419.932 301.15C420.166 300.683 420.282 299.95 420.282 298.95V275.8C420.282 274.8 420.166 274.067 419.932 273.6C419.732 273.133 419.332 272.817 418.732 272.65C418.166 272.45 417.249 272.35 415.982 272.35C415.882 272.35 415.832 272.25 415.832 272.05C415.832 271.85 415.882 271.75 415.982 271.75L418.432 271.8C419.832 271.867 420.966 271.9 421.832 271.9C422.566 271.9 423.249 271.883 423.882 271.85C424.516 271.817 425.049 271.783 425.482 271.75C426.749 271.65 427.866 271.6 428.832 271.6ZM433.682 279.65C433.682 277.05 433.099 275.183 431.932 274.05C430.799 272.917 429.132 272.35 426.932 272.35C425.632 272.35 424.732 272.583 424.232 273.05C423.732 273.517 423.482 274.467 423.482 275.9V286.4C424.282 286.533 425.266 286.6 426.432 286.6C429.032 286.6 430.882 286.033 431.982 284.9C433.116 283.767 433.682 282.017 433.682 279.65ZM457.446 303.6C455.513 303.6 453.863 303.15 452.496 302.25C451.129 301.35 450.079 300.167 449.346 298.7C448.646 297.233 448.296 295.667 448.296 294C448.296 292.033 448.763 290.233 449.696 288.6C450.629 286.933 451.896 285.633 453.496 284.7C455.129 283.733 456.913 283.25 458.846 283.25C460.713 283.25 462.146 283.75 463.146 284.75C464.146 285.75 464.646 287.15 464.646 288.95C464.646 289.417 464.596 289.75 464.496 289.95C464.429 290.15 464.279 290.25 464.046 290.25H461.246L461.296 289.35C461.296 287.683 460.929 286.417 460.196 285.55C459.463 284.683 458.463 284.25 457.196 284.25C455.429 284.25 454.046 284.95 453.046 286.35C452.079 287.75 451.596 289.667 451.596 292.1C451.596 295 452.279 297.35 453.646 299.15C455.013 300.95 456.929 301.85 459.396 301.85C460.396 301.85 461.246 301.717 461.946 301.45C462.679 301.183 463.496 300.767 464.396 300.2H464.446C464.546 300.2 464.629 300.267 464.696 300.4C464.796 300.5 464.813 300.6 464.746 300.7C462.479 302.633 460.046 303.6 457.446 303.6ZM450.646 289.65L461.996 289.45V290.25L450.696 290.3L450.646 289.65ZM482.362 303.3C482.229 303.367 482.095 303.4 481.962 303.4C481.462 303.4 481.029 303.017 480.662 302.25C480.295 301.483 480.112 300.467 480.112 299.2V289.75C480.112 286.017 479.062 284.15 476.962 284.15C475.829 284.15 474.962 284.533 474.362 285.3C473.795 286.033 473.412 286.883 473.212 287.85C473.079 288.483 472.879 288.983 472.612 289.35C472.379 289.717 471.945 289.9 471.312 289.9C470.779 289.9 470.362 289.75 470.062 289.45C469.795 289.15 469.662 288.8 469.662 288.4C469.662 287.6 470.179 286.8 471.212 286C472.245 285.2 473.479 284.533 474.912 284C476.345 283.467 477.629 283.2 478.762 283.2C480.129 283.2 481.162 283.633 481.862 284.5C482.562 285.367 482.912 286.617 482.912 288.25V297.6C482.912 298.767 483.062 299.617 483.362 300.15C483.662 300.683 484.145 300.95 484.812 300.95C485.479 300.95 486.312 300.733 487.312 300.3H487.412C487.545 300.3 487.629 300.383 487.662 300.55C487.695 300.683 487.645 300.783 487.512 300.85L482.362 303.3ZM473.362 303.35C472.129 303.35 471.162 303.033 470.462 302.4C469.795 301.733 469.462 300.9 469.462 299.9C469.462 298.9 469.862 298.033 470.662 297.3C471.462 296.567 472.779 295.867 474.612 295.2L480.612 292.95L480.762 293.6L475.462 295.65C474.529 296.017 473.845 296.45 473.412 296.95C473.012 297.417 472.812 297.983 472.812 298.65C472.812 299.45 473.062 300.133 473.562 300.7C474.095 301.233 474.779 301.5 475.612 301.5C476.279 301.5 477.079 301.233 478.012 300.7L481.162 298.8L481.262 299.45L477.562 301.85C476.729 302.383 475.995 302.767 475.362 303C474.729 303.233 474.062 303.35 473.362 303.35ZM489.609 303C489.509 303 489.459 302.9 489.459 302.7C489.459 302.5 489.509 302.4 489.609 302.4C490.509 302.4 491.176 302.317 491.609 302.15C492.043 301.95 492.343 301.617 492.509 301.15C492.676 300.65 492.759 299.917 492.759 298.95V273.1C492.759 271.9 492.643 271.033 492.409 270.5C492.176 269.967 491.759 269.7 491.159 269.7C490.659 269.7 489.893 269.933 488.859 270.4H488.759C488.659 270.4 488.576 270.317 488.509 270.15C488.476 269.983 488.509 269.883 488.609 269.85L495.009 266.8C495.076 266.767 495.159 266.75 495.259 266.75C495.359 266.75 495.459 266.8 495.559 266.9C495.659 266.967 495.709 267.05 495.709 267.15V298.95C495.709 299.917 495.776 300.633 495.909 301.1C496.076 301.567 496.376 301.9 496.809 302.1C497.243 302.3 497.909 302.4 498.809 302.4C498.909 302.4 498.959 302.5 498.959 302.7C498.959 302.9 498.909 303 498.809 303C498.076 303 497.476 302.983 497.009 302.95L494.209 302.9L491.509 302.95C491.043 302.983 490.409 303 489.609 303Z" fill="#333333"/>
</svg>
