<svg width="503" height="477" viewBox="0 0 503 477" fill="none" xmlns="http://www.w3.org/2000/svg">
<path d="M127.2 163.25H140.45L140.8 164.25H126.7L127.2 163.25ZM151.95 177.4C152.083 177.4 152.15 177.5 152.15 177.7C152.15 177.9 152.083 178 151.95 178C151.317 178 150.333 177.967 149 177.9C147.667 177.833 146.7 177.8 146.1 177.8C145.367 177.8 144.433 177.833 143.3 177.9C142.233 177.967 141.417 178 140.85 178C140.717 178 140.65 177.9 140.65 177.7C140.65 177.5 140.717 177.4 140.85 177.4C142.117 177.4 143.017 177.283 143.55 177.05C144.117 176.817 144.4 176.4 144.4 175.8C144.4 175.3 144.2 174.6 143.8 173.7L132.7 150.25L133.95 148.7L124.25 171.65C123.783 172.783 123.55 173.717 123.55 174.45C123.55 176.417 125.183 177.4 128.45 177.4C128.617 177.4 128.7 177.5 128.7 177.7C128.7 177.9 128.617 178 128.45 178C127.85 178 126.983 177.967 125.85 177.9C124.583 177.833 123.483 177.8 122.55 177.8C121.683 177.8 120.683 177.833 119.55 177.9C118.55 177.967 117.717 178 117.05 178C116.883 178 116.8 177.9 116.8 177.7C116.8 177.5 116.883 177.4 117.05 177.4C117.983 177.4 118.767 177.233 119.4 176.9C120.067 176.533 120.683 175.917 121.25 175.05C121.85 174.15 122.5 172.867 123.2 171.2L133.75 146.3C133.817 146.2 133.933 146.15 134.1 146.15C134.267 146.15 134.367 146.2 134.4 146.3L146.2 171.15C147.333 173.617 148.3 175.283 149.1 176.15C149.9 176.983 150.85 177.4 151.95 177.4ZM159.057 163.9C160.824 161.7 162.191 160.217 163.157 159.45C164.124 158.65 165.024 158.25 165.857 158.25C166.591 158.25 167.291 158.45 167.957 158.85C168.624 159.25 168.957 159.733 168.957 160.3C168.957 160.733 168.807 161.1 168.507 161.4C168.207 161.7 167.807 161.85 167.307 161.85C167.007 161.85 166.741 161.8 166.507 161.7C166.307 161.567 166.057 161.383 165.757 161.15C165.457 160.883 165.174 160.683 164.907 160.55C164.641 160.417 164.324 160.35 163.957 160.35C163.457 160.35 162.907 160.6 162.307 161.1C161.707 161.6 160.691 162.717 159.257 164.45L159.057 163.9ZM154.357 178C154.257 178 154.207 177.9 154.207 177.7C154.207 177.5 154.257 177.4 154.357 177.4C155.257 177.4 155.924 177.317 156.357 177.15C156.791 176.95 157.074 176.617 157.207 176.15C157.374 175.683 157.457 174.95 157.457 173.95V164.05C157.457 162.917 157.324 162.1 157.057 161.6C156.791 161.1 156.341 160.85 155.707 160.85C155.174 160.85 154.274 161.1 153.007 161.6H152.907C152.774 161.6 152.674 161.533 152.607 161.4C152.574 161.233 152.624 161.117 152.757 161.05L158.557 158.3C158.624 158.267 158.724 158.25 158.857 158.25C159.157 158.25 159.474 158.633 159.807 159.4C160.141 160.167 160.307 161.15 160.307 162.35V173.95C160.307 174.95 160.424 175.683 160.657 176.15C160.924 176.617 161.391 176.95 162.057 177.15C162.724 177.317 163.757 177.4 165.157 177.4C165.291 177.4 165.357 177.5 165.357 177.7C165.357 177.9 165.291 178 165.157 178C164.091 178 163.241 177.983 162.607 177.95L158.907 177.9L156.157 177.95C155.724 177.983 155.124 178 154.357 178ZM181.284 178.6C179.118 178.6 177.301 178.133 175.834 177.2C174.368 176.233 173.284 175 172.584 173.5C171.884 172 171.534 170.417 171.534 168.75C171.534 166.617 172.068 164.767 173.134 163.2C174.201 161.6 175.568 160.383 177.234 159.55C178.934 158.683 180.668 158.25 182.434 158.25C183.901 158.25 185.234 158.55 186.434 159.15C187.668 159.717 188.284 160.433 188.284 161.3C188.284 161.733 188.118 162.117 187.784 162.45C187.484 162.75 187.068 162.9 186.534 162.9C185.634 162.9 184.901 162.35 184.334 161.25C183.901 160.583 183.434 160.083 182.934 159.75C182.434 159.417 181.718 159.25 180.784 159.25C178.918 159.25 177.451 159.983 176.384 161.45C175.351 162.883 174.834 164.817 174.834 167.25C174.834 170.05 175.534 172.35 176.934 174.15C178.334 175.95 180.434 176.85 183.234 176.85C185.268 176.85 186.968 176.3 188.334 175.2H188.384C188.484 175.2 188.568 175.25 188.634 175.35C188.734 175.45 188.751 175.533 188.684 175.6C187.518 176.633 186.334 177.4 185.134 177.9C183.968 178.367 182.684 178.6 181.284 178.6ZM191.591 178C191.491 178 191.441 177.9 191.441 177.7C191.441 177.5 191.491 177.4 191.591 177.4C192.491 177.4 193.158 177.317 193.591 177.15C194.024 176.95 194.324 176.617 194.491 176.15C194.658 175.65 194.741 174.917 194.741 173.95V148.1C194.741 146.9 194.624 146.033 194.391 145.5C194.158 144.967 193.741 144.7 193.141 144.7C192.641 144.7 191.874 144.933 190.841 145.4L190.741 145.45C190.641 145.45 190.558 145.367 190.491 145.2C190.424 145.033 190.458 144.917 190.591 144.85L196.941 141.75H197.091C197.224 141.75 197.324 141.8 197.391 141.9C197.491 141.967 197.541 142.05 197.541 142.15V173.95C197.541 174.95 197.624 175.683 197.791 176.15C197.958 176.617 198.258 176.95 198.691 177.15C199.124 177.317 199.791 177.4 200.691 177.4C200.791 177.4 200.841 177.5 200.841 177.7C200.841 177.9 200.791 178 200.691 178C199.924 178 199.308 177.983 198.841 177.95L196.141 177.9L193.441 177.95C192.974 177.983 192.358 178 191.591 178ZM205.041 178C204.941 178 204.891 177.9 204.891 177.7C204.891 177.5 204.941 177.4 205.041 177.4C205.941 177.4 206.608 177.317 207.041 177.15C207.474 176.95 207.774 176.617 207.941 176.15C208.108 175.65 208.191 174.917 208.191 173.95V166C208.191 164.033 207.808 162.567 207.041 161.6C206.308 160.633 205.158 160.15 203.591 160.15C202.358 160.15 201.108 160.55 199.841 161.35C198.574 162.117 197.491 163.167 196.591 164.5L196.391 163.9C197.891 161.933 199.341 160.5 200.741 159.6C202.174 158.667 203.674 158.2 205.241 158.2C207.074 158.2 208.491 158.717 209.491 159.75C210.491 160.783 210.991 162.283 210.991 164.25V173.95C210.991 174.95 211.074 175.683 211.241 176.15C211.408 176.617 211.708 176.95 212.141 177.15C212.574 177.317 213.241 177.4 214.141 177.4C214.241 177.4 214.291 177.5 214.291 177.7C214.291 177.9 214.241 178 214.141 178C213.374 178 212.758 177.983 212.291 177.95L209.591 177.9L206.891 177.95C206.424 177.983 205.808 178 205.041 178ZM217.892 178C217.826 178 217.792 177.9 217.792 177.7C217.792 177.5 217.826 177.4 217.892 177.4C218.792 177.4 219.459 177.317 219.892 177.15C220.359 176.95 220.676 176.617 220.842 176.15C221.009 175.683 221.092 174.95 221.092 173.95V164.6C221.092 163.4 220.959 162.533 220.692 162C220.459 161.467 220.042 161.2 219.442 161.2C218.842 161.2 218.092 161.433 217.192 161.9H217.142C217.009 161.9 216.909 161.817 216.842 161.65C216.776 161.483 216.792 161.367 216.892 161.3L223.392 158.3L223.592 158.25C223.659 158.25 223.742 158.3 223.842 158.4C223.942 158.467 223.992 158.55 223.992 158.65C223.992 158.883 223.976 159.55 223.942 160.65C223.909 161.75 223.892 163.05 223.892 164.55V173.95C223.892 174.95 223.976 175.683 224.142 176.15C224.309 176.617 224.609 176.95 225.042 177.15C225.476 177.317 226.142 177.4 227.042 177.4C227.142 177.4 227.192 177.5 227.192 177.7C227.192 177.9 227.142 178 227.042 178C226.276 178 225.659 177.983 225.192 177.95L222.492 177.9L219.792 177.95C219.326 177.983 218.692 178 217.892 178ZM222.092 152.4C221.426 152.4 220.892 152.217 220.492 151.85C220.092 151.483 219.892 150.967 219.892 150.3C219.892 149.633 220.092 149.117 220.492 148.75C220.892 148.383 221.426 148.2 222.092 148.2C222.759 148.2 223.276 148.383 223.642 148.75C224.009 149.117 224.192 149.633 224.192 150.3C224.192 150.967 224.009 151.483 223.642 151.85C223.276 152.217 222.759 152.4 222.092 152.4ZM250.464 158.7C250.531 158.7 250.564 158.8 250.564 159C250.564 159.2 250.531 159.3 250.464 159.3C249.597 159.3 248.864 159.567 248.264 160.1C247.697 160.633 247.147 161.583 246.614 162.95L240.364 177.95C240.297 178.117 240.114 178.2 239.814 178.2C239.514 178.2 239.331 178.117 239.264 177.95L232.264 162.85C231.597 161.417 231.031 160.467 230.564 160C230.131 159.533 229.581 159.3 228.914 159.3C228.814 159.3 228.764 159.2 228.764 159C228.764 158.8 228.814 158.7 228.914 158.7C229.581 158.7 230.097 158.717 230.464 158.75L232.364 158.8L235.614 158.75C236.114 158.717 236.781 158.7 237.614 158.7C237.714 158.7 237.764 158.8 237.764 159C237.764 159.2 237.714 159.3 237.614 159.3C235.614 159.3 234.614 159.7 234.614 160.5C234.614 160.733 234.681 160.983 234.814 161.25L241.214 174.85L239.764 176.9L245.614 162.7C245.847 162.067 245.964 161.583 245.964 161.25C245.964 160.583 245.647 160.1 245.014 159.8C244.381 159.467 243.381 159.3 242.014 159.3C241.947 159.3 241.914 159.2 241.914 159C241.914 158.8 241.947 158.7 242.014 158.7C242.914 158.7 243.597 158.717 244.064 158.75L247.064 158.8L248.814 158.75C249.147 158.717 249.697 158.7 250.464 158.7ZM262.144 178.65C260.21 178.65 258.494 178.183 256.994 177.25C255.527 176.283 254.394 175 253.594 173.4C252.794 171.767 252.394 170 252.394 168.1C252.394 165.933 252.91 164.1 253.944 162.6C255.01 161.067 256.36 159.933 257.994 159.2C259.66 158.433 261.344 158.05 263.044 158.05C265.01 158.05 266.727 158.533 268.194 159.5C269.66 160.467 270.777 161.75 271.544 163.35C272.344 164.917 272.744 166.583 272.744 168.35C272.744 170.417 272.26 172.233 271.294 173.8C270.327 175.333 269.027 176.533 267.394 177.4C265.794 178.233 264.044 178.65 262.144 178.65ZM263.594 177.7C265.427 177.7 266.844 177.05 267.844 175.75C268.844 174.45 269.344 172.45 269.344 169.75C269.344 167.683 268.994 165.833 268.294 164.2C267.627 162.567 266.694 161.3 265.494 160.4C264.294 159.467 262.927 159 261.394 159C259.594 159 258.194 159.65 257.194 160.95C256.227 162.25 255.744 164.117 255.744 166.55C255.744 168.583 256.077 170.45 256.744 172.15C257.41 173.85 258.344 175.2 259.544 176.2C260.744 177.2 262.094 177.7 263.594 177.7ZM118.6 239C118.5 239 118.45 238.9 118.45 238.7C118.45 238.5 118.5 238.4 118.6 238.4C119.6 238.4 120.333 238.317 120.8 238.15C121.267 237.95 121.583 237.617 121.75 237.15C121.95 236.683 122.05 235.95 122.05 234.95V223.7C122.05 222.833 121.967 222.233 121.8 221.9C121.633 221.533 121.317 221.3 120.85 221.2C120.383 221.067 119.567 221 118.4 221C118.3 221 118.25 220.9 118.25 220.7C118.25 220.467 118.3 220.35 118.4 220.35C119.767 220.35 120.683 220.2 121.15 219.9C121.65 219.567 121.917 218.967 121.95 218.1C122.117 212.7 123.1 208.783 124.9 206.35C126.733 203.917 129.417 202.7 132.95 202.7C134.65 202.7 136.033 202.967 137.1 203.5C138.2 204 138.75 204.617 138.75 205.35C138.75 205.85 138.567 206.25 138.2 206.55C137.867 206.817 137.467 206.95 137 206.95C136.6 206.95 136.25 206.85 135.95 206.65C135.683 206.45 135.383 206.117 135.05 205.65C134.517 204.95 133.95 204.433 133.35 204.1C132.783 203.733 132.067 203.55 131.2 203.55C129.267 203.55 127.733 204.667 126.6 206.9C125.467 209.133 124.9 212.517 124.9 217.05V234.95C124.9 235.983 125.017 236.733 125.25 237.2C125.483 237.667 125.933 237.983 126.6 238.15C127.267 238.317 128.333 238.4 129.8 238.4C129.9 238.4 129.95 238.5 129.95 238.7C129.95 238.9 129.9 239 129.8 239L126.6 238.95C125.9 238.917 124.833 238.9 123.4 238.9L120.6 238.95C120.133 238.983 119.467 239 118.6 239ZM131.15 222.15C129.017 221.617 126.517 221.35 123.65 221.35V220.25C125.683 220.25 128.233 220.083 131.3 219.75C131.4 219.75 131.483 219.867 131.55 220.1C131.617 220.333 131.65 220.617 131.65 220.95C131.65 221.217 131.6 221.5 131.5 221.8C131.4 222.067 131.283 222.183 131.15 222.15ZM143.784 239.65C141.851 239.65 140.134 239.183 138.634 238.25C137.168 237.283 136.034 236 135.234 234.4C134.434 232.767 134.034 231 134.034 229.1C134.034 226.933 134.551 225.1 135.584 223.6C136.651 222.067 138.001 220.933 139.634 220.2C141.301 219.433 142.984 219.05 144.684 219.05C146.651 219.05 148.368 219.533 149.834 220.5C151.301 221.467 152.418 222.75 153.184 224.35C153.984 225.917 154.384 227.583 154.384 229.35C154.384 231.417 153.901 233.233 152.934 234.8C151.968 236.333 150.668 237.533 149.034 238.4C147.434 239.233 145.684 239.65 143.784 239.65ZM145.234 238.7C147.068 238.7 148.484 238.05 149.484 236.75C150.484 235.45 150.984 233.45 150.984 230.75C150.984 228.683 150.634 226.833 149.934 225.2C149.268 223.567 148.334 222.3 147.134 221.4C145.934 220.467 144.568 220 143.034 220C141.234 220 139.834 220.65 138.834 221.95C137.868 223.25 137.384 225.117 137.384 227.55C137.384 229.583 137.718 231.45 138.384 233.15C139.051 234.85 139.984 236.2 141.184 237.2C142.384 238.2 143.734 238.7 145.234 238.7ZM165.56 239.6C164.16 239.6 163.01 239.283 162.11 238.65C161.21 238.017 160.76 236.967 160.76 235.5V223.75C160.76 222.883 160.693 222.267 160.56 221.9C160.46 221.533 160.243 221.3 159.91 221.2C159.577 221.067 159.01 221 158.21 221C158.077 221 158.01 220.9 158.01 220.7C158.01 220.467 158.077 220.35 158.21 220.35C159.543 220.317 160.627 219.967 161.46 219.3C162.293 218.6 162.777 217.683 162.91 216.55C162.91 216.45 163.043 216.4 163.31 216.4C163.543 216.4 163.66 216.45 163.66 216.55V233.8C163.66 236.5 164.977 237.85 167.61 237.85C169.143 237.85 170.477 237.383 171.61 236.45L171.71 236.4C171.843 236.4 171.943 236.483 172.01 236.65C172.077 236.783 172.06 236.883 171.96 236.95C170.727 237.917 169.61 238.6 168.61 239C167.643 239.4 166.627 239.6 165.56 239.6ZM170.41 222.15C168.277 221.617 165.743 221.35 162.81 221.35V220.25C164.91 220.25 167.51 220.083 170.61 219.75C170.677 219.75 170.743 219.883 170.81 220.15C170.91 220.383 170.96 220.65 170.96 220.95C170.96 221.217 170.893 221.5 170.76 221.8C170.66 222.067 170.543 222.183 170.41 222.15ZM184.605 239.65C182.671 239.65 180.955 239.183 179.455 238.25C177.988 237.283 176.855 236 176.055 234.4C175.255 232.767 174.855 231 174.855 229.1C174.855 226.933 175.371 225.1 176.405 223.6C177.471 222.067 178.821 220.933 180.455 220.2C182.121 219.433 183.805 219.05 185.505 219.05C187.471 219.05 189.188 219.533 190.655 220.5C192.121 221.467 193.238 222.75 194.005 224.35C194.805 225.917 195.205 227.583 195.205 229.35C195.205 231.417 194.721 233.233 193.755 234.8C192.788 236.333 191.488 237.533 189.855 238.4C188.255 239.233 186.505 239.65 184.605 239.65ZM186.055 238.7C187.888 238.7 189.305 238.05 190.305 236.75C191.305 235.45 191.805 233.45 191.805 230.75C191.805 228.683 191.455 226.833 190.755 225.2C190.088 223.567 189.155 222.3 187.955 221.4C186.755 220.467 185.388 220 183.855 220C182.055 220 180.655 220.65 179.655 221.95C178.688 223.25 178.205 225.117 178.205 227.55C178.205 229.583 178.538 231.45 179.205 233.15C179.871 234.85 180.805 236.2 182.005 237.2C183.205 238.2 184.555 238.7 186.055 238.7ZM205.98 253C203.68 253 201.864 252.483 200.53 251.45C199.23 250.45 198.58 249.133 198.58 247.5C198.58 244.5 201.13 241.55 206.23 238.65L206.78 239.3C205.047 240.167 203.714 241.067 202.78 242C201.88 242.967 201.43 244.25 201.43 245.85C201.43 247.583 201.997 248.95 203.13 249.95C204.297 250.983 205.93 251.5 208.03 251.5C210.33 251.5 212.214 250.883 213.68 249.65C215.147 248.45 215.88 246.833 215.88 244.8C215.88 243.467 215.547 242.483 214.88 241.85C214.247 241.25 213.397 240.867 212.33 240.7C211.297 240.533 209.83 240.45 207.93 240.45C206.097 240.417 204.63 240.333 203.53 240.2C202.43 240.067 201.53 239.733 200.83 239.2C200.164 238.7 199.83 237.917 199.83 236.85C199.83 235.783 200.147 234.833 200.78 234C201.447 233.167 202.514 232.2 203.98 231.1L204.53 231.55C203.73 232.183 203.164 232.767 202.83 233.3C202.497 233.833 202.33 234.417 202.33 235.05C202.33 235.817 202.58 236.4 203.08 236.8C203.58 237.2 204.38 237.483 205.48 237.65C206.614 237.783 208.214 237.85 210.28 237.85C211.78 237.85 213.097 237.95 214.23 238.15C215.364 238.317 216.33 238.767 217.13 239.5C217.964 240.267 218.38 241.4 218.38 242.9C218.38 244.7 217.797 246.367 216.63 247.9C215.464 249.467 213.914 250.7 211.98 251.6C210.08 252.533 208.08 253 205.98 253ZM207.43 232.35C205.864 232.35 204.497 232.067 203.33 231.5C202.197 230.9 201.33 230.1 200.73 229.1C200.13 228.1 199.83 227.017 199.83 225.85C199.83 223.983 200.564 222.433 202.03 221.2C203.53 219.967 205.447 219.35 207.78 219.35C209.48 219.35 210.88 219.667 211.98 220.3C213.114 220.9 213.947 221.7 214.48 222.7C215.014 223.667 215.28 224.683 215.28 225.75C215.28 226.917 214.947 228.017 214.28 229.05C213.647 230.05 212.73 230.85 211.53 231.45C210.364 232.05 208.997 232.35 207.43 232.35ZM208.38 231.6C209.514 231.6 210.414 231.217 211.08 230.45C211.78 229.65 212.13 228.45 212.13 226.85C212.13 224.783 211.597 223.15 210.53 221.95C209.464 220.717 208.147 220.1 206.58 220.1C205.414 220.1 204.497 220.467 203.83 221.2C203.197 221.933 202.88 223.083 202.88 224.65C202.88 226.15 203.147 227.433 203.68 228.5C204.214 229.533 204.897 230.317 205.73 230.85C206.597 231.35 207.48 231.6 208.38 231.6ZM212.08 221.45C213.214 220.717 214.247 220.183 215.18 219.85C216.147 219.483 217.197 219.3 218.33 219.3C218.397 219.3 218.447 219.417 218.48 219.65C218.547 219.883 218.58 220.133 218.58 220.4C218.58 220.8 218.53 221.2 218.43 221.6C218.364 222 218.264 222.167 218.13 222.1C217.564 221.867 217.014 221.683 216.48 221.55C215.98 221.417 215.414 221.35 214.78 221.35C214.114 221.35 213.347 221.467 212.48 221.7L212.03 223.1L212.08 221.45ZM226.196 224.9C227.963 222.7 229.329 221.217 230.296 220.45C231.263 219.65 232.163 219.25 232.996 219.25C233.729 219.25 234.429 219.45 235.096 219.85C235.763 220.25 236.096 220.733 236.096 221.3C236.096 221.733 235.946 222.1 235.646 222.4C235.346 222.7 234.946 222.85 234.446 222.85C234.146 222.85 233.879 222.8 233.646 222.7C233.446 222.567 233.196 222.383 232.896 222.15C232.596 221.883 232.313 221.683 232.046 221.55C231.779 221.417 231.463 221.35 231.096 221.35C230.596 221.35 230.046 221.6 229.446 222.1C228.846 222.6 227.829 223.717 226.396 225.45L226.196 224.9ZM221.496 239C221.396 239 221.346 238.9 221.346 238.7C221.346 238.5 221.396 238.4 221.496 238.4C222.396 238.4 223.063 238.317 223.496 238.15C223.929 237.95 224.213 237.617 224.346 237.15C224.513 236.683 224.596 235.95 224.596 234.95V225.05C224.596 223.917 224.463 223.1 224.196 222.6C223.929 222.1 223.479 221.85 222.846 221.85C222.313 221.85 221.413 222.1 220.146 222.6H220.046C219.913 222.6 219.813 222.533 219.746 222.4C219.713 222.233 219.763 222.117 219.896 222.05L225.696 219.3C225.763 219.267 225.863 219.25 225.996 219.25C226.296 219.25 226.613 219.633 226.946 220.4C227.279 221.167 227.446 222.15 227.446 223.35V234.95C227.446 235.95 227.563 236.683 227.796 237.15C228.063 237.617 228.529 237.95 229.196 238.15C229.863 238.317 230.896 238.4 232.296 238.4C232.429 238.4 232.496 238.5 232.496 238.7C232.496 238.9 232.429 239 232.296 239C231.229 239 230.379 238.983 229.746 238.95L226.046 238.9L223.296 238.95C222.863 238.983 222.263 239 221.496 239ZM253.159 239.3C253.026 239.367 252.892 239.4 252.759 239.4C252.259 239.4 251.826 239.017 251.459 238.25C251.092 237.483 250.909 236.467 250.909 235.2V225.75C250.909 222.017 249.859 220.15 247.759 220.15C246.626 220.15 245.759 220.533 245.159 221.3C244.592 222.033 244.209 222.883 244.009 223.85C243.876 224.483 243.676 224.983 243.409 225.35C243.176 225.717 242.742 225.9 242.109 225.9C241.576 225.9 241.159 225.75 240.859 225.45C240.592 225.15 240.459 224.8 240.459 224.4C240.459 223.6 240.976 222.8 242.009 222C243.042 221.2 244.276 220.533 245.709 220C247.142 219.467 248.426 219.2 249.559 219.2C250.926 219.2 251.959 219.633 252.659 220.5C253.359 221.367 253.709 222.617 253.709 224.25V233.6C253.709 234.767 253.859 235.617 254.159 236.15C254.459 236.683 254.942 236.95 255.609 236.95C256.276 236.95 257.109 236.733 258.109 236.3H258.209C258.342 236.3 258.426 236.383 258.459 236.55C258.492 236.683 258.442 236.783 258.309 236.85L253.159 239.3ZM244.159 239.35C242.926 239.35 241.959 239.033 241.259 238.4C240.592 237.733 240.259 236.9 240.259 235.9C240.259 234.9 240.659 234.033 241.459 233.3C242.259 232.567 243.576 231.867 245.409 231.2L251.409 228.95L251.559 229.6L246.259 231.65C245.326 232.017 244.642 232.45 244.209 232.95C243.809 233.417 243.609 233.983 243.609 234.65C243.609 235.45 243.859 236.133 244.359 236.7C244.892 237.233 245.576 237.5 246.409 237.5C247.076 237.5 247.876 237.233 248.809 236.7L251.959 234.8L252.059 235.45L248.359 237.85C247.526 238.383 246.792 238.767 246.159 239C245.526 239.233 244.859 239.35 244.159 239.35ZM247.959 215.3C247.959 215.367 247.892 215.4 247.759 215.4C247.659 215.4 247.559 215.383 247.459 215.35C247.392 215.283 247.376 215.233 247.409 215.2L250.009 203.2C250.042 203.067 250.376 202.917 251.009 202.75C251.642 202.55 252.176 202.45 252.609 202.45C252.909 202.45 253.042 202.517 253.009 202.65L247.959 215.3ZM260.006 239C259.906 239 259.856 238.9 259.856 238.7C259.856 238.5 259.906 238.4 260.006 238.4C261.006 238.4 261.74 238.317 262.206 238.15C262.673 237.95 262.99 237.617 263.156 237.15C263.356 236.683 263.456 235.95 263.456 234.95V223.7C263.456 222.833 263.373 222.233 263.206 221.9C263.04 221.533 262.723 221.3 262.256 221.2C261.79 221.067 260.973 221 259.806 221C259.706 221 259.656 220.9 259.656 220.7C259.656 220.467 259.706 220.35 259.806 220.35C261.173 220.35 262.09 220.2 262.556 219.9C263.056 219.567 263.323 218.967 263.356 218.1C263.723 207.833 267.69 202.7 275.256 202.7C277.09 202.7 278.59 203.083 279.756 203.85C280.956 204.583 281.556 205.45 281.556 206.45C281.556 206.95 281.423 207.333 281.156 207.6C280.89 207.867 280.523 208 280.056 208C279.556 208 279.156 207.85 278.856 207.55C278.556 207.25 278.256 206.817 277.956 206.25C277.423 205.383 276.856 204.717 276.256 204.25C275.69 203.783 274.806 203.55 273.606 203.55C271.373 203.55 269.59 204.667 268.256 206.9C266.956 209.133 266.306 212.517 266.306 217.05V234.95C266.306 235.983 266.423 236.733 266.656 237.2C266.89 237.667 267.34 237.983 268.006 238.15C268.673 238.317 269.74 238.4 271.206 238.4C271.306 238.4 271.356 238.5 271.356 238.7C271.356 238.9 271.306 239 271.206 239L268.006 238.95C267.306 238.917 266.24 238.9 264.806 238.9L262.006 238.95C261.54 238.983 260.873 239 260.006 239ZM272.556 222.25C270.156 221.517 267.823 221.15 265.556 221.15V220.25C267.423 220.25 269.806 220.083 272.706 219.75C272.806 219.75 272.89 219.883 272.956 220.15C273.023 220.383 273.056 220.65 273.056 220.95C273.056 221.25 272.99 221.567 272.856 221.9C272.723 222.2 272.623 222.317 272.556 222.25ZM275.906 239C275.806 239 275.756 238.9 275.756 238.7C275.756 238.5 275.806 238.4 275.906 238.4C276.806 238.4 277.473 238.317 277.906 238.15C278.34 237.95 278.64 237.617 278.806 237.15C278.973 236.65 279.056 235.917 279.056 234.95V225.6C279.056 224.4 278.94 223.533 278.706 223C278.473 222.467 278.056 222.2 277.456 222.2C276.956 222.2 276.19 222.433 275.156 222.9H275.106C274.94 222.9 274.823 222.817 274.756 222.65C274.723 222.483 274.773 222.367 274.906 222.3L281.406 219.25C281.44 219.217 281.49 219.2 281.556 219.2C281.656 219.2 281.74 219.25 281.806 219.35C281.906 219.45 281.956 219.55 281.956 219.65C281.956 219.883 281.94 220.55 281.906 221.65C281.873 222.75 281.856 224.05 281.856 225.55V234.95C281.856 235.95 281.94 236.683 282.106 237.15C282.273 237.617 282.573 237.95 283.006 238.15C283.44 238.317 284.106 238.4 285.006 238.4C285.106 238.4 285.156 238.5 285.156 238.7C285.156 238.9 285.106 239 285.006 239C284.24 239 283.623 238.983 283.156 238.95L280.456 238.9L277.756 238.95C277.29 238.983 276.673 239 275.906 239ZM298.374 239.6C296.208 239.6 294.391 239.133 292.924 238.2C291.458 237.233 290.374 236 289.674 234.5C288.974 233 288.624 231.417 288.624 229.75C288.624 227.617 289.158 225.767 290.224 224.2C291.291 222.6 292.658 221.383 294.324 220.55C296.024 219.683 297.758 219.25 299.524 219.25C300.991 219.25 302.324 219.55 303.524 220.15C304.758 220.717 305.374 221.433 305.374 222.3C305.374 222.733 305.208 223.117 304.874 223.45C304.574 223.75 304.158 223.9 303.624 223.9C302.724 223.9 301.991 223.35 301.424 222.25C300.991 221.583 300.524 221.083 300.024 220.75C299.524 220.417 298.808 220.25 297.874 220.25C296.008 220.25 294.541 220.983 293.474 222.45C292.441 223.883 291.924 225.817 291.924 228.25C291.924 231.05 292.624 233.35 294.024 235.15C295.424 236.95 297.524 237.85 300.324 237.85C302.358 237.85 304.058 237.3 305.424 236.2H305.474C305.574 236.2 305.658 236.25 305.724 236.35C305.824 236.45 305.841 236.533 305.774 236.6C304.608 237.633 303.424 238.4 302.224 238.9C301.058 239.367 299.774 239.6 298.374 239.6ZM318.638 239.65C316.705 239.65 314.988 239.183 313.488 238.25C312.021 237.283 310.888 236 310.088 234.4C309.288 232.767 308.888 231 308.888 229.1C308.888 226.933 309.405 225.1 310.438 223.6C311.505 222.067 312.855 220.933 314.488 220.2C316.155 219.433 317.838 219.05 319.538 219.05C321.505 219.05 323.221 219.533 324.688 220.5C326.155 221.467 327.271 222.75 328.038 224.35C328.838 225.917 329.238 227.583 329.238 229.35C329.238 231.417 328.755 233.233 327.788 234.8C326.821 236.333 325.521 237.533 323.888 238.4C322.288 239.233 320.538 239.65 318.638 239.65ZM320.088 238.7C321.921 238.7 323.338 238.05 324.338 236.75C325.338 235.45 325.838 233.45 325.838 230.75C325.838 228.683 325.488 226.833 324.788 225.2C324.121 223.567 323.188 222.3 321.988 221.4C320.788 220.467 319.421 220 317.888 220C316.088 220 314.688 220.65 313.688 221.95C312.721 223.25 312.238 225.117 312.238 227.55C312.238 229.583 312.571 231.45 313.238 233.15C313.905 234.85 314.838 236.2 316.038 237.2C317.238 238.2 318.588 238.7 320.088 238.7ZM126.6 300.65C125.2 300.65 123.9 300.25 122.7 299.45C121.533 298.65 120.583 297.533 119.85 296.1C119.15 294.633 118.8 292.967 118.8 291.1C118.8 288.733 119.383 286.717 120.55 285.05C121.717 283.383 123.183 282.133 124.95 281.3C126.717 280.467 128.467 280.05 130.2 280.05C132.5 280.05 134.533 280.8 136.3 282.3L135.75 285.65C134.85 284.183 133.867 283.05 132.8 282.25C131.733 281.45 130.417 281.05 128.85 281.05C126.75 281.05 125.083 281.8 123.85 283.3C122.65 284.767 122.05 286.867 122.05 289.6C122.05 291.433 122.333 293.05 122.9 294.45C123.467 295.85 124.233 296.933 125.2 297.7C126.2 298.467 127.317 298.85 128.55 298.85C129.917 298.85 131.167 298.483 132.3 297.75C133.433 297.017 134.617 295.967 135.85 294.6L136.25 294.95C134.717 296.683 133.217 298.067 131.75 299.1C130.283 300.133 128.567 300.65 126.6 300.65ZM137.8 294.5C137.8 295.7 137.933 296.567 138.2 297.1C138.5 297.633 138.967 297.9 139.6 297.9C140.567 297.9 141.433 297.667 142.2 297.2L142.3 297.15C142.433 297.15 142.517 297.233 142.55 297.4C142.617 297.567 142.6 297.683 142.5 297.75L137 300.35C136.867 300.417 136.733 300.45 136.6 300.45C136.167 300.45 135.783 300.05 135.45 299.25C135.15 298.45 135 297.35 135 295.95V270.15C135 268.95 134.867 268.083 134.6 267.55C134.367 267.017 133.95 266.75 133.35 266.75C132.917 266.75 132.15 266.983 131.05 267.45H130.95C130.817 267.45 130.717 267.383 130.65 267.25C130.617 267.083 130.65 266.967 130.75 266.9L137.1 263.8C137.167 263.767 137.25 263.75 137.35 263.75C137.45 263.75 137.55 263.8 137.65 263.9C137.75 263.967 137.8 264.05 137.8 264.15V294.5ZM153.536 300.6C151.603 300.6 149.953 300.15 148.586 299.25C147.219 298.35 146.169 297.167 145.436 295.7C144.736 294.233 144.386 292.667 144.386 291C144.386 289.033 144.853 287.233 145.786 285.6C146.719 283.933 147.986 282.633 149.586 281.7C151.219 280.733 153.003 280.25 154.936 280.25C156.803 280.25 158.236 280.75 159.236 281.75C160.236 282.75 160.736 284.15 160.736 285.95C160.736 286.417 160.686 286.75 160.586 286.95C160.519 287.15 160.369 287.25 160.136 287.25H157.336L157.386 286.35C157.386 284.683 157.019 283.417 156.286 282.55C155.553 281.683 154.553 281.25 153.286 281.25C151.519 281.25 150.136 281.95 149.136 283.35C148.169 284.75 147.686 286.667 147.686 289.1C147.686 292 148.369 294.35 149.736 296.15C151.103 297.95 153.019 298.85 155.486 298.85C156.486 298.85 157.336 298.717 158.036 298.45C158.769 298.183 159.586 297.767 160.486 297.2H160.536C160.636 297.2 160.719 297.267 160.786 297.4C160.886 297.5 160.903 297.6 160.836 297.7C158.569 299.633 156.136 300.6 153.536 300.6ZM146.736 286.65L158.086 286.45V287.25L146.786 287.3L146.736 286.65ZM181.965 274.6C181.965 275.9 182.282 277.033 182.915 278C183.548 278.967 184.315 279.783 185.215 280.45C186.115 281.083 187.382 281.9 189.015 282.9C190.748 283.933 192.098 284.8 193.065 285.5C194.032 286.2 194.848 287.1 195.515 288.2C196.215 289.267 196.565 290.55 196.565 292.05C196.565 293.65 196.165 295.1 195.365 296.4C194.565 297.7 193.382 298.733 191.815 299.5C190.282 300.233 188.432 300.6 186.265 300.6C183.698 300.6 181.348 300.017 179.215 298.85C179.048 298.75 178.932 298.633 178.865 298.5C178.832 298.367 178.798 298.167 178.765 297.9L178.115 291.1C178.082 290.967 178.148 290.883 178.315 290.85C178.515 290.817 178.632 290.867 178.665 291C179.165 293.367 180.148 295.433 181.615 297.2C183.082 298.933 185.015 299.8 187.415 299.8C189.082 299.8 190.482 299.35 191.615 298.45C192.782 297.517 193.365 296.05 193.365 294.05C193.365 292.55 193.032 291.25 192.365 290.15C191.698 289.05 190.882 288.15 189.915 287.45C188.982 286.717 187.698 285.867 186.065 284.9C184.465 283.933 183.198 283.1 182.265 282.4C181.365 281.7 180.598 280.817 179.965 279.75C179.332 278.683 179.015 277.433 179.015 276C179.015 274.333 179.448 272.917 180.315 271.75C181.215 270.55 182.365 269.667 183.765 269.1C185.198 268.5 186.715 268.2 188.315 268.2C190.282 268.2 192.232 268.6 194.165 269.4C194.665 269.567 194.915 269.85 194.915 270.25L195.265 275.95C195.265 276.117 195.165 276.2 194.965 276.2C194.798 276.2 194.698 276.133 194.665 276C194.432 274.267 193.732 272.667 192.565 271.2C191.398 269.7 189.715 268.95 187.515 268.95C185.648 268.95 184.248 269.5 183.315 270.6C182.415 271.667 181.965 273 181.965 274.6ZM214.975 300.3C214.842 300.367 214.709 300.4 214.575 300.4C214.075 300.4 213.642 300.017 213.275 299.25C212.909 298.483 212.725 297.467 212.725 296.2V286.75C212.725 283.017 211.675 281.15 209.575 281.15C208.442 281.15 207.575 281.533 206.975 282.3C206.409 283.033 206.025 283.883 205.825 284.85C205.692 285.483 205.492 285.983 205.225 286.35C204.992 286.717 204.559 286.9 203.925 286.9C203.392 286.9 202.975 286.75 202.675 286.45C202.409 286.15 202.275 285.8 202.275 285.4C202.275 284.6 202.792 283.8 203.825 283C204.859 282.2 206.092 281.533 207.525 281C208.959 280.467 210.242 280.2 211.375 280.2C212.742 280.2 213.775 280.633 214.475 281.5C215.175 282.367 215.525 283.617 215.525 285.25V294.6C215.525 295.767 215.675 296.617 215.975 297.15C216.275 297.683 216.759 297.95 217.425 297.95C218.092 297.95 218.925 297.733 219.925 297.3H220.025C220.159 297.3 220.242 297.383 220.275 297.55C220.309 297.683 220.259 297.783 220.125 297.85L214.975 300.3ZM205.975 300.35C204.742 300.35 203.775 300.033 203.075 299.4C202.409 298.733 202.075 297.9 202.075 296.9C202.075 295.9 202.475 295.033 203.275 294.3C204.075 293.567 205.392 292.867 207.225 292.2L213.225 289.95L213.375 290.6L208.075 292.65C207.142 293.017 206.459 293.45 206.025 293.95C205.625 294.417 205.425 294.983 205.425 295.65C205.425 296.45 205.675 297.133 206.175 297.7C206.709 298.233 207.392 298.5 208.225 298.5C208.892 298.5 209.692 298.233 210.625 297.7L213.775 295.8L213.875 296.45L210.175 298.85C209.342 299.383 208.609 299.767 207.975 300C207.342 300.233 206.675 300.35 205.975 300.35ZM235.923 300C235.823 300 235.773 299.9 235.773 299.7C235.773 299.5 235.823 299.4 235.923 299.4C236.823 299.4 237.489 299.317 237.923 299.15C238.356 298.95 238.639 298.617 238.773 298.15C238.939 297.683 239.023 296.95 239.023 295.95V287.85C239.023 285.85 238.639 284.4 237.873 283.5C237.139 282.567 235.989 282.1 234.423 282.1C233.189 282.1 231.939 282.483 230.673 283.25C229.439 284.017 228.373 285.067 227.473 286.4L227.273 285.8C228.739 283.833 230.189 282.383 231.623 281.45C233.056 280.517 234.539 280.05 236.073 280.05C237.906 280.05 239.323 280.583 240.323 281.65C241.356 282.683 241.873 284.183 241.873 286.15V295.95C241.873 296.95 241.939 297.683 242.073 298.15C242.239 298.617 242.539 298.95 242.973 299.15C243.406 299.317 244.073 299.4 244.973 299.4C245.073 299.4 245.123 299.5 245.123 299.7C245.123 299.9 245.073 300 244.973 300C244.206 300 243.606 299.983 243.173 299.95L240.473 299.9L237.723 299.95C237.289 299.983 236.689 300 235.923 300ZM222.473 300C222.373 300 222.323 299.9 222.323 299.7C222.323 299.5 222.373 299.4 222.473 299.4C223.373 299.4 224.039 299.317 224.473 299.15C224.906 298.95 225.189 298.617 225.323 298.15C225.489 297.683 225.573 296.95 225.573 295.95V286.05C225.573 284.917 225.439 284.1 225.173 283.6C224.906 283.1 224.456 282.85 223.823 282.85C223.289 282.85 222.389 283.1 221.123 283.6H221.023C220.889 283.6 220.789 283.533 220.723 283.4C220.689 283.233 220.739 283.117 220.873 283.05L226.673 280.3C226.739 280.267 226.839 280.25 226.973 280.25C227.273 280.25 227.589 280.633 227.923 281.4C228.256 282.167 228.423 283.15 228.423 284.35V295.95C228.423 296.95 228.489 297.683 228.623 298.15C228.789 298.617 229.089 298.95 229.523 299.15C229.956 299.317 230.623 299.4 231.523 299.4C231.623 299.4 231.673 299.5 231.673 299.7C231.673 299.9 231.623 300 231.523 300C230.756 300 230.156 299.983 229.723 299.95L227.023 299.9L224.273 299.95C223.839 299.983 223.239 300 222.473 300ZM255.453 300.6C254.053 300.6 252.903 300.283 252.003 299.65C251.103 299.017 250.653 297.967 250.653 296.5V284.75C250.653 283.883 250.586 283.267 250.453 282.9C250.353 282.533 250.136 282.3 249.803 282.2C249.469 282.067 248.903 282 248.103 282C247.969 282 247.903 281.9 247.903 281.7C247.903 281.467 247.969 281.35 248.103 281.35C249.436 281.317 250.519 280.967 251.353 280.3C252.186 279.6 252.669 278.683 252.803 277.55C252.803 277.45 252.936 277.4 253.203 277.4C253.436 277.4 253.553 277.45 253.553 277.55V294.8C253.553 297.5 254.869 298.85 257.503 298.85C259.036 298.85 260.369 298.383 261.503 297.45L261.603 297.4C261.736 297.4 261.836 297.483 261.903 297.65C261.969 297.783 261.953 297.883 261.853 297.95C260.619 298.917 259.503 299.6 258.503 300C257.536 300.4 256.519 300.6 255.453 300.6ZM260.303 283.15C258.169 282.617 255.636 282.35 252.703 282.35V281.25C254.803 281.25 257.403 281.083 260.503 280.75C260.569 280.75 260.636 280.883 260.703 281.15C260.803 281.383 260.853 281.65 260.853 281.95C260.853 282.217 260.786 282.5 260.653 282.8C260.553 283.067 260.436 283.183 260.303 283.15ZM278.647 300.3C278.514 300.367 278.381 300.4 278.247 300.4C277.747 300.4 277.314 300.017 276.947 299.25C276.581 298.483 276.397 297.467 276.397 296.2V286.75C276.397 283.017 275.347 281.15 273.247 281.15C272.114 281.15 271.247 281.533 270.647 282.3C270.081 283.033 269.697 283.883 269.497 284.85C269.364 285.483 269.164 285.983 268.897 286.35C268.664 286.717 268.231 286.9 267.597 286.9C267.064 286.9 266.647 286.75 266.347 286.45C266.081 286.15 265.947 285.8 265.947 285.4C265.947 284.6 266.464 283.8 267.497 283C268.531 282.2 269.764 281.533 271.197 281C272.631 280.467 273.914 280.2 275.047 280.2C276.414 280.2 277.447 280.633 278.147 281.5C278.847 282.367 279.197 283.617 279.197 285.25V294.6C279.197 295.767 279.347 296.617 279.647 297.15C279.947 297.683 280.431 297.95 281.097 297.95C281.764 297.95 282.597 297.733 283.597 297.3H283.697C283.831 297.3 283.914 297.383 283.947 297.55C283.981 297.683 283.931 297.783 283.797 297.85L278.647 300.3ZM269.647 300.35C268.414 300.35 267.447 300.033 266.747 299.4C266.081 298.733 265.747 297.9 265.747 296.9C265.747 295.9 266.147 295.033 266.947 294.3C267.747 293.567 269.064 292.867 270.897 292.2L276.897 289.95L277.047 290.6L271.747 292.65C270.814 293.017 270.131 293.45 269.697 293.95C269.297 294.417 269.097 294.983 269.097 295.65C269.097 296.45 269.347 297.133 269.847 297.7C270.381 298.233 271.064 298.5 271.897 298.5C272.564 298.5 273.364 298.233 274.297 297.7L277.447 295.8L277.547 296.45L273.847 298.85C273.014 299.383 272.281 299.767 271.647 300C271.014 300.233 270.347 300.35 269.647 300.35ZM137.55 329.2C139.65 329.2 141.417 329.35 142.85 329.65C144.283 329.95 145.717 330.467 147.15 331.2C147.383 331.333 147.517 331.45 147.55 331.55C147.583 331.65 147.633 331.9 147.7 332.3L148.3 338.25C148.3 338.35 148.2 338.417 148 338.45C147.833 338.45 147.733 338.4 147.7 338.3C146.167 332.733 142.733 329.95 137.4 329.95C134.6 329.95 132.117 330.567 129.95 331.8C127.817 333.033 126.167 334.8 125 337.1C123.833 339.367 123.25 342.017 123.25 345.05C123.25 347.95 123.9 350.617 125.2 353.05C126.5 355.45 128.233 357.35 130.4 358.75C132.6 360.15 134.983 360.85 137.55 360.85C140.283 360.85 142.5 360.183 144.2 358.85C145.9 357.517 147.2 355.483 148.1 352.75C148.1 352.683 148.183 352.65 148.35 352.65C148.583 352.65 148.7 352.7 148.7 352.8L148.2 358.3C148.167 358.7 148.117 358.95 148.05 359.05C147.983 359.15 147.85 359.267 147.65 359.4C145.917 360.233 144.283 360.817 142.75 361.15C141.25 361.483 139.517 361.65 137.55 361.65C134.05 361.65 130.917 360.967 128.15 359.6C125.417 358.2 123.283 356.25 121.75 353.75C120.217 351.25 119.45 348.383 119.45 345.15C119.45 342.017 120.233 339.25 121.8 336.85C123.367 334.417 125.517 332.533 128.25 331.2C131.017 329.867 134.117 329.2 137.55 329.2ZM158.227 346.9C159.994 344.7 161.361 343.217 162.327 342.45C163.294 341.65 164.194 341.25 165.027 341.25C165.761 341.25 166.461 341.45 167.127 341.85C167.794 342.25 168.127 342.733 168.127 343.3C168.127 343.733 167.977 344.1 167.677 344.4C167.377 344.7 166.977 344.85 166.477 344.85C166.177 344.85 165.911 344.8 165.677 344.7C165.477 344.567 165.227 344.383 164.927 344.15C164.627 343.883 164.344 343.683 164.077 343.55C163.811 343.417 163.494 343.35 163.127 343.35C162.627 343.35 162.077 343.6 161.477 344.1C160.877 344.6 159.861 345.717 158.427 347.45L158.227 346.9ZM153.527 361C153.427 361 153.377 360.9 153.377 360.7C153.377 360.5 153.427 360.4 153.527 360.4C154.427 360.4 155.094 360.317 155.527 360.15C155.961 359.95 156.244 359.617 156.377 359.15C156.544 358.683 156.627 357.95 156.627 356.95V347.05C156.627 345.917 156.494 345.1 156.227 344.6C155.961 344.1 155.511 343.85 154.877 343.85C154.344 343.85 153.444 344.1 152.177 344.6H152.077C151.944 344.6 151.844 344.533 151.777 344.4C151.744 344.233 151.794 344.117 151.927 344.05L157.727 341.3C157.794 341.267 157.894 341.25 158.027 341.25C158.327 341.25 158.644 341.633 158.977 342.4C159.311 343.167 159.477 344.15 159.477 345.35V356.95C159.477 357.95 159.594 358.683 159.827 359.15C160.094 359.617 160.561 359.95 161.227 360.15C161.894 360.317 162.927 360.4 164.327 360.4C164.461 360.4 164.527 360.5 164.527 360.7C164.527 360.9 164.461 361 164.327 361C163.261 361 162.411 360.983 161.777 360.95L158.077 360.9L155.327 360.95C154.894 360.983 154.294 361 153.527 361ZM178.59 361.4C176.924 361.4 175.624 360.883 174.69 359.85C173.757 358.783 173.29 357.25 173.29 355.25V347.6C173.29 346.3 173.174 345.367 172.94 344.8C172.707 344.2 172.324 343.9 171.79 343.9C171.324 343.9 170.757 344.067 170.09 344.4H170.04C169.907 344.4 169.807 344.317 169.74 344.15C169.674 343.95 169.707 343.833 169.84 343.8L175.39 341.3L175.59 341.25C175.69 341.25 175.79 341.3 175.89 341.4C176.024 341.467 176.09 341.55 176.09 341.65V353.6C176.09 357.467 177.49 359.4 180.29 359.4C181.557 359.4 182.84 359.017 184.14 358.25C185.44 357.483 186.557 356.45 187.49 355.15L187.74 355.7C186.24 357.667 184.74 359.117 183.24 360.05C181.74 360.95 180.19 361.4 178.59 361.4ZM189.34 355.65C189.34 356.783 189.474 357.6 189.74 358.1C190.007 358.6 190.457 358.85 191.09 358.85C191.657 358.85 192.54 358.617 193.74 358.15H193.84C193.974 358.15 194.057 358.233 194.09 358.4C194.157 358.533 194.124 358.633 193.99 358.7L188.14 361.45L187.94 361.5C187.607 361.5 187.29 361.117 186.99 360.35C186.69 359.583 186.54 358.583 186.54 357.35V347.6C186.54 346.267 186.424 345.317 186.19 344.75C185.99 344.183 185.607 343.9 185.04 343.9C184.574 343.9 184.007 344.067 183.34 344.4H183.29C183.157 344.4 183.057 344.317 182.99 344.15C182.957 343.95 183.007 343.833 183.14 343.8L188.69 341.3L188.84 341.25C188.94 341.25 189.04 341.3 189.14 341.4C189.274 341.467 189.34 341.55 189.34 341.65V355.65ZM208.248 342.7C208.348 342.467 208.265 342.35 207.998 342.35C205.398 342.35 203.382 342.467 201.948 342.7C200.515 342.9 199.382 343.317 198.548 343.95C197.748 344.583 197.165 345.533 196.798 346.8C196.798 346.867 196.732 346.9 196.598 346.9C196.498 346.9 196.398 346.883 196.298 346.85C196.232 346.783 196.215 346.733 196.248 346.7L197.948 340.25C197.982 340.183 198.082 340.167 198.248 340.2C198.448 340.2 198.532 340.233 198.498 340.3C198.465 340.4 198.448 340.533 198.448 340.7C198.448 341.1 198.632 341.367 198.998 341.5C199.365 341.633 199.998 341.7 200.898 341.7H211.498C211.632 341.7 211.732 341.767 211.798 341.9C211.898 342.033 211.932 342.167 211.898 342.3L200.098 359.9C199.965 360.133 200.048 360.25 200.348 360.25C203.615 360.25 205.932 360.15 207.298 359.95C208.698 359.75 209.715 359.333 210.348 358.7C210.982 358.033 211.548 356.9 212.048 355.3C212.082 355.233 212.182 355.2 212.348 355.2C212.515 355.2 212.598 355.233 212.598 355.3L212.498 360.45C212.498 360.583 212.448 360.717 212.348 360.85C212.282 360.95 212.182 361 212.048 361H196.598C196.465 361 196.348 360.933 196.248 360.8C196.182 360.667 196.182 360.533 196.248 360.4L208.248 342.7ZM228.131 361C228.031 361 227.981 360.9 227.981 360.7C227.981 360.5 228.031 360.4 228.131 360.4C229.031 360.4 229.698 360.317 230.131 360.15C230.564 359.95 230.864 359.617 231.031 359.15C231.198 358.65 231.281 357.917 231.281 356.95V331.1C231.281 329.9 231.164 329.033 230.931 328.5C230.698 327.967 230.281 327.7 229.681 327.7C229.181 327.7 228.414 327.933 227.381 328.4H227.281C227.181 328.4 227.098 328.317 227.031 328.15C226.998 327.983 227.031 327.883 227.131 327.85L233.531 324.8C233.598 324.767 233.681 324.75 233.781 324.75C233.881 324.75 233.981 324.8 234.081 324.9C234.181 324.967 234.231 325.05 234.231 325.15V356.95C234.231 357.917 234.298 358.633 234.431 359.1C234.598 359.567 234.898 359.9 235.331 360.1C235.764 360.3 236.431 360.4 237.331 360.4C237.431 360.4 237.481 360.5 237.481 360.7C237.481 360.9 237.431 361 237.331 361C236.598 361 235.998 360.983 235.531 360.95L232.731 360.9L230.031 360.95C229.564 360.983 228.931 361 228.131 361ZM254.721 361.3C254.588 361.367 254.455 361.4 254.321 361.4C253.821 361.4 253.388 361.017 253.021 360.25C252.655 359.483 252.471 358.467 252.471 357.2V347.75C252.471 344.017 251.421 342.15 249.321 342.15C248.188 342.15 247.321 342.533 246.721 343.3C246.155 344.033 245.771 344.883 245.571 345.85C245.438 346.483 245.238 346.983 244.971 347.35C244.738 347.717 244.305 347.9 243.671 347.9C243.138 347.9 242.721 347.75 242.421 347.45C242.155 347.15 242.021 346.8 242.021 346.4C242.021 345.6 242.538 344.8 243.571 344C244.605 343.2 245.838 342.533 247.271 342C248.705 341.467 249.988 341.2 251.121 341.2C252.488 341.2 253.521 341.633 254.221 342.5C254.921 343.367 255.271 344.617 255.271 346.25V355.6C255.271 356.767 255.421 357.617 255.721 358.15C256.021 358.683 256.505 358.95 257.171 358.95C257.838 358.95 258.671 358.733 259.671 358.3H259.771C259.905 358.3 259.988 358.383 260.021 358.55C260.055 358.683 260.005 358.783 259.871 358.85L254.721 361.3ZM245.721 361.35C244.488 361.35 243.521 361.033 242.821 360.4C242.155 359.733 241.821 358.9 241.821 357.9C241.821 356.9 242.221 356.033 243.021 355.3C243.821 354.567 245.138 353.867 246.971 353.2L252.971 350.95L253.121 351.6L247.821 353.65C246.888 354.017 246.205 354.45 245.771 354.95C245.371 355.417 245.171 355.983 245.171 356.65C245.171 357.45 245.421 358.133 245.921 358.7C246.455 359.233 247.138 359.5 247.971 359.5C248.638 359.5 249.438 359.233 250.371 358.7L253.521 356.8L253.621 357.45L249.921 359.85C249.088 360.383 248.355 360.767 247.721 361C247.088 361.233 246.421 361.35 245.721 361.35ZM299.388 361C298.554 361 296.954 359.583 294.588 356.75C292.254 353.883 289.438 349.95 286.138 344.95L288.938 344.1C291.838 348.267 294.254 351.517 296.188 353.85C298.154 356.15 299.888 357.817 301.388 358.85C302.888 359.883 304.354 360.4 305.788 360.4C305.888 360.4 305.938 360.5 305.938 360.7C305.938 360.9 305.888 361 305.788 361H299.388ZM286.788 329.6C289.421 329.6 291.454 330.2 292.888 331.4C294.321 332.6 295.038 334.2 295.038 336.2C295.038 337.967 294.521 339.583 293.488 341.05C292.454 342.483 291.054 343.633 289.288 344.5C287.554 345.333 285.688 345.75 283.688 345.75C283.488 345.75 282.738 345.7 281.438 345.6V356.95C281.438 357.983 281.538 358.733 281.738 359.2C281.938 359.667 282.321 359.983 282.888 360.15C283.488 360.317 284.421 360.4 285.688 360.4C285.788 360.4 285.838 360.5 285.838 360.7C285.838 360.9 285.788 361 285.688 361C284.654 361 283.838 360.983 283.238 360.95L279.788 360.9L276.388 360.95C275.788 360.983 274.938 361 273.838 361C273.771 361 273.738 360.9 273.738 360.7C273.738 360.5 273.771 360.4 273.838 360.4C275.104 360.4 276.038 360.317 276.638 360.15C277.238 359.95 277.654 359.617 277.888 359.15C278.121 358.683 278.238 357.95 278.238 356.95V333.8C278.238 332.8 278.121 332.067 277.888 331.6C277.688 331.133 277.288 330.817 276.688 330.65C276.121 330.45 275.204 330.35 273.938 330.35C273.838 330.35 273.788 330.25 273.788 330.05C273.788 329.85 273.838 329.75 273.938 329.75L276.388 329.8C277.788 329.867 278.921 329.9 279.788 329.9C280.521 329.9 281.204 329.883 281.838 329.85C282.471 329.817 283.004 329.783 283.438 329.75C284.704 329.65 285.821 329.6 286.788 329.6ZM291.638 337.65C291.638 335.05 291.054 333.183 289.888 332.05C288.754 330.917 287.088 330.35 284.887 330.35C283.588 330.35 282.688 330.583 282.188 331.05C281.688 331.517 281.438 332.467 281.438 333.9V344.4C282.238 344.533 283.221 344.6 284.388 344.6C286.988 344.6 288.838 344.033 289.938 342.9C291.071 341.767 291.638 340.017 291.638 337.65ZM315.401 361.6C313.468 361.6 311.818 361.15 310.451 360.25C309.085 359.35 308.035 358.167 307.301 356.7C306.601 355.233 306.251 353.667 306.251 352C306.251 350.033 306.718 348.233 307.651 346.6C308.585 344.933 309.851 343.633 311.451 342.7C313.085 341.733 314.868 341.25 316.801 341.25C318.668 341.25 320.101 341.75 321.101 342.75C322.101 343.75 322.601 345.15 322.601 346.95C322.601 347.417 322.551 347.75 322.451 347.95C322.385 348.15 322.235 348.25 322.001 348.25H319.201L319.251 347.35C319.251 345.683 318.885 344.417 318.151 343.55C317.418 342.683 316.418 342.25 315.151 342.25C313.385 342.25 312.001 342.95 311.001 344.35C310.035 345.75 309.551 347.667 309.551 350.1C309.551 353 310.235 355.35 311.601 357.15C312.968 358.95 314.885 359.85 317.351 359.85C318.351 359.85 319.201 359.717 319.901 359.45C320.635 359.183 321.451 358.767 322.351 358.2H322.401C322.501 358.2 322.585 358.267 322.651 358.4C322.751 358.5 322.768 358.6 322.701 358.7C320.435 360.633 318.001 361.6 315.401 361.6ZM308.601 347.65L319.951 347.45V348.25L308.651 348.3L308.601 347.65ZM340.317 361.3C340.184 361.367 340.051 361.4 339.917 361.4C339.417 361.4 338.984 361.017 338.617 360.25C338.251 359.483 338.067 358.467 338.067 357.2V347.75C338.067 344.017 337.017 342.15 334.917 342.15C333.784 342.15 332.917 342.533 332.317 343.3C331.751 344.033 331.367 344.883 331.167 345.85C331.034 346.483 330.834 346.983 330.567 347.35C330.334 347.717 329.901 347.9 329.267 347.9C328.734 347.9 328.317 347.75 328.017 347.45C327.751 347.15 327.617 346.8 327.617 346.4C327.617 345.6 328.134 344.8 329.167 344C330.201 343.2 331.434 342.533 332.867 342C334.301 341.467 335.584 341.2 336.717 341.2C338.084 341.2 339.117 341.633 339.817 342.5C340.517 343.367 340.867 344.617 340.867 346.25V355.6C340.867 356.767 341.017 357.617 341.317 358.15C341.617 358.683 342.101 358.95 342.767 358.95C343.434 358.95 344.267 358.733 345.267 358.3H345.367C345.501 358.3 345.584 358.383 345.617 358.55C345.651 358.683 345.601 358.783 345.467 358.85L340.317 361.3ZM331.317 361.35C330.084 361.35 329.117 361.033 328.417 360.4C327.751 359.733 327.417 358.9 327.417 357.9C327.417 356.9 327.817 356.033 328.617 355.3C329.417 354.567 330.734 353.867 332.567 353.2L338.567 350.95L338.717 351.6L333.417 353.65C332.484 354.017 331.801 354.45 331.367 354.95C330.967 355.417 330.767 355.983 330.767 356.65C330.767 357.45 331.017 358.133 331.517 358.7C332.051 359.233 332.734 359.5 333.567 359.5C334.234 359.5 335.034 359.233 335.967 358.7L339.117 356.8L339.217 357.45L335.517 359.85C334.684 360.383 333.951 360.767 333.317 361C332.684 361.233 332.017 361.35 331.317 361.35ZM347.564 361C347.464 361 347.414 360.9 347.414 360.7C347.414 360.5 347.464 360.4 347.564 360.4C348.464 360.4 349.131 360.317 349.564 360.15C349.998 359.95 350.298 359.617 350.464 359.15C350.631 358.65 350.714 357.917 350.714 356.95V331.1C350.714 329.9 350.598 329.033 350.364 328.5C350.131 327.967 349.714 327.7 349.114 327.7C348.614 327.7 347.848 327.933 346.814 328.4H346.714C346.614 328.4 346.531 328.317 346.464 328.15C346.431 327.983 346.464 327.883 346.564 327.85L352.964 324.8C353.031 324.767 353.114 324.75 353.214 324.75C353.314 324.75 353.414 324.8 353.514 324.9C353.614 324.967 353.664 325.05 353.664 325.15V356.95C353.664 357.917 353.731 358.633 353.864 359.1C354.031 359.567 354.331 359.9 354.764 360.1C355.198 360.3 355.864 360.4 356.764 360.4C356.864 360.4 356.914 360.5 356.914 360.7C356.914 360.9 356.864 361 356.764 361C356.031 361 355.431 360.983 354.964 360.95L352.164 360.9L349.464 360.95C348.998 360.983 348.364 361 347.564 361Z" fill="#333333"/>
</svg>
