<svg width="385" height="434" viewBox="0 0 385 434" fill="none" xmlns="http://www.w3.org/2000/svg">
<path d="M0 50C0 22.3858 22.3858 0 50 0H335C362.614 0 385 22.3858 385 50V366C385 393.614 362.614 416 335 416H50C22.3858 416 0 393.614 0 366V50Z" fill="#737373" fill-opacity="0.466667"/>
<path d="M22 53C22 36.9837 34.9837 24 51 24H334C350.016 24 363 36.9837 363 53V362C363 378.016 350.016 391 334 391H51C34.9837 391 22 378.016 22 362V53Z" fill="#D9D9D9"/>
<path d="M48.2 71.25H61.45L61.8 72.25H47.7L48.2 71.25ZM72.95 85.4C73.0833 85.4 73.15 85.5 73.15 85.7C73.15 85.9 73.0833 86 72.95 86C72.3167 86 71.3333 85.9667 70 85.9C68.6667 85.8333 67.7 85.8 67.1 85.8C66.3667 85.8 65.4333 85.8333 64.3 85.9C63.2333 85.9667 62.4167 86 61.85 86C61.7167 86 61.65 85.9 61.65 85.7C61.65 85.5 61.7167 85.4 61.85 85.4C63.1167 85.4 64.0167 85.2833 64.55 85.05C65.1167 84.8167 65.4 84.4 65.4 83.8C65.4 83.3 65.2 82.6 64.8 81.7L53.7 58.25L54.95 56.7L45.25 79.65C44.7833 80.7833 44.55 81.7167 44.55 82.45C44.55 84.4167 46.1833 85.4 49.45 85.4C49.6167 85.4 49.7 85.5 49.7 85.7C49.7 85.9 49.6167 86 49.45 86C48.85 86 47.9833 85.9667 46.85 85.9C45.5833 85.8333 44.4833 85.8 43.55 85.8C42.6833 85.8 41.6833 85.8333 40.55 85.9C39.55 85.9667 38.7167 86 38.05 86C37.8833 86 37.8 85.9 37.8 85.7C37.8 85.5 37.8833 85.4 38.05 85.4C38.9833 85.4 39.7667 85.2333 40.4 84.9C41.0667 84.5333 41.6833 83.9167 42.25 83.05C42.85 82.15 43.5 80.8667 44.2 79.2L54.75 54.3C54.8167 54.2 54.9333 54.15 55.1 54.15C55.2667 54.15 55.3667 54.2 55.4 54.3L67.2 79.15C68.3333 81.6167 69.3 83.2833 70.1 84.15C70.9 84.9833 71.85 85.4 72.95 85.4ZM80.0574 71.9C81.8241 69.7 83.1908 68.2167 84.1574 67.45C85.1241 66.65 86.0241 66.25 86.8574 66.25C87.5908 66.25 88.2908 66.45 88.9574 66.85C89.6241 67.25 89.9574 67.7333 89.9574 68.3C89.9574 68.7333 89.8074 69.1 89.5074 69.4C89.2074 69.7 88.8074 69.85 88.3074 69.85C88.0074 69.85 87.7408 69.8 87.5074 69.7C87.3074 69.5667 87.0574 69.3833 86.7574 69.15C86.4574 68.8833 86.1741 68.6833 85.9074 68.55C85.6408 68.4167 85.3241 68.35 84.9574 68.35C84.4574 68.35 83.9074 68.6 83.3074 69.1C82.7074 69.6 81.6908 70.7167 80.2574 72.45L80.0574 71.9ZM75.3574 86C75.2574 86 75.2074 85.9 75.2074 85.7C75.2074 85.5 75.2574 85.4 75.3574 85.4C76.2574 85.4 76.9241 85.3167 77.3574 85.15C77.7908 84.95 78.0741 84.6167 78.2074 84.15C78.3741 83.6833 78.4574 82.95 78.4574 81.95V72.05C78.4574 70.9167 78.3241 70.1 78.0574 69.6C77.7908 69.1 77.3408 68.85 76.7074 68.85C76.1741 68.85 75.2741 69.1 74.0074 69.6H73.9074C73.7741 69.6 73.6741 69.5333 73.6074 69.4C73.5741 69.2333 73.6241 69.1167 73.7574 69.05L79.5574 66.3C79.6241 66.2667 79.7241 66.25 79.8574 66.25C80.1574 66.25 80.4741 66.6333 80.8074 67.4C81.1408 68.1667 81.3074 69.15 81.3074 70.35V81.95C81.3074 82.95 81.4241 83.6833 81.6574 84.15C81.9241 84.6167 82.3908 84.95 83.0574 85.15C83.7241 85.3167 84.7574 85.4 86.1574 85.4C86.2908 85.4 86.3574 85.5 86.3574 85.7C86.3574 85.9 86.2908 86 86.1574 86C85.0908 86 84.2408 85.9833 83.6074 85.95L79.9074 85.9L77.1574 85.95C76.7241 85.9833 76.1241 86 75.3574 86ZM102.284 86.6C100.118 86.6 98.301 86.1333 96.8344 85.2C95.3677 84.2333 94.2844 83 93.5844 81.5C92.8844 80 92.5344 78.4167 92.5344 76.75C92.5344 74.6167 93.0677 72.7667 94.1344 71.2C95.201 69.6 96.5677 68.3833 98.2344 67.55C99.9344 66.6833 101.668 66.25 103.434 66.25C104.901 66.25 106.234 66.55 107.434 67.15C108.668 67.7167 109.284 68.4333 109.284 69.3C109.284 69.7333 109.118 70.1167 108.784 70.45C108.484 70.75 108.068 70.9 107.534 70.9C106.634 70.9 105.901 70.35 105.334 69.25C104.901 68.5833 104.434 68.0833 103.934 67.75C103.434 67.4167 102.718 67.25 101.784 67.25C99.9177 67.25 98.451 67.9833 97.3844 69.45C96.351 70.8833 95.8344 72.8167 95.8344 75.25C95.8344 78.05 96.5344 80.35 97.9344 82.15C99.3344 83.95 101.434 84.85 104.234 84.85C106.268 84.85 107.968 84.3 109.334 83.2H109.384C109.484 83.2 109.568 83.25 109.634 83.35C109.734 83.45 109.751 83.5333 109.684 83.6C108.518 84.6333 107.334 85.4 106.134 85.9C104.968 86.3667 103.684 86.6 102.284 86.6ZM112.591 86C112.491 86 112.441 85.9 112.441 85.7C112.441 85.5 112.491 85.4 112.591 85.4C113.491 85.4 114.158 85.3167 114.591 85.15C115.024 84.95 115.324 84.6167 115.491 84.15C115.658 83.65 115.741 82.9167 115.741 81.95V56.1C115.741 54.9 115.624 54.0333 115.391 53.5C115.158 52.9667 114.741 52.7 114.141 52.7C113.641 52.7 112.874 52.9333 111.841 53.4L111.741 53.45C111.641 53.45 111.558 53.3667 111.491 53.2C111.424 53.0333 111.458 52.9167 111.591 52.85L117.941 49.75H118.091C118.224 49.75 118.324 49.8 118.391 49.9C118.491 49.9667 118.541 50.05 118.541 50.15V81.95C118.541 82.95 118.624 83.6833 118.791 84.15C118.958 84.6167 119.258 84.95 119.691 85.15C120.124 85.3167 120.791 85.4 121.691 85.4C121.791 85.4 121.841 85.5 121.841 85.7C121.841 85.9 121.791 86 121.691 86C120.924 86 120.308 85.9833 119.841 85.95L117.141 85.9L114.441 85.95C113.974 85.9833 113.358 86 112.591 86ZM126.041 86C125.941 86 125.891 85.9 125.891 85.7C125.891 85.5 125.941 85.4 126.041 85.4C126.941 85.4 127.608 85.3167 128.041 85.15C128.474 84.95 128.774 84.6167 128.941 84.15C129.108 83.65 129.191 82.9167 129.191 81.95V74C129.191 72.0333 128.808 70.5667 128.041 69.6C127.308 68.6333 126.158 68.15 124.591 68.15C123.358 68.15 122.108 68.55 120.841 69.35C119.574 70.1167 118.491 71.1667 117.591 72.5L117.391 71.9C118.891 69.9333 120.341 68.5 121.741 67.6C123.174 66.6667 124.674 66.2 126.241 66.2C128.074 66.2 129.491 66.7167 130.491 67.75C131.491 68.7833 131.991 70.2833 131.991 72.25V81.95C131.991 82.95 132.074 83.6833 132.241 84.15C132.408 84.6167 132.708 84.95 133.141 85.15C133.574 85.3167 134.241 85.4 135.141 85.4C135.241 85.4 135.291 85.5 135.291 85.7C135.291 85.9 135.241 86 135.141 86C134.374 86 133.758 85.9833 133.291 85.95L130.591 85.9L127.891 85.95C127.424 85.9833 126.808 86 126.041 86ZM138.892 86C138.826 86 138.792 85.9 138.792 85.7C138.792 85.5 138.826 85.4 138.892 85.4C139.792 85.4 140.459 85.3167 140.892 85.15C141.359 84.95 141.676 84.6167 141.842 84.15C142.009 83.6833 142.092 82.95 142.092 81.95V72.6C142.092 71.4 141.959 70.5333 141.692 70C141.459 69.4667 141.042 69.2 140.442 69.2C139.842 69.2 139.092 69.4333 138.192 69.9H138.142C138.009 69.9 137.909 69.8167 137.842 69.65C137.776 69.4833 137.792 69.3667 137.892 69.3L144.392 66.3L144.592 66.25C144.659 66.25 144.742 66.3 144.842 66.4C144.942 66.4667 144.992 66.55 144.992 66.65C144.992 66.8833 144.976 67.55 144.942 68.65C144.909 69.75 144.892 71.05 144.892 72.55V81.95C144.892 82.95 144.976 83.6833 145.142 84.15C145.309 84.6167 145.609 84.95 146.042 85.15C146.476 85.3167 147.142 85.4 148.042 85.4C148.142 85.4 148.192 85.5 148.192 85.7C148.192 85.9 148.142 86 148.042 86C147.276 86 146.659 85.9833 146.192 85.95L143.492 85.9L140.792 85.95C140.326 85.9833 139.692 86 138.892 86ZM143.092 60.4C142.426 60.4 141.892 60.2167 141.492 59.85C141.092 59.4833 140.892 58.9667 140.892 58.3C140.892 57.6333 141.092 57.1167 141.492 56.75C141.892 56.3833 142.426 56.2 143.092 56.2C143.759 56.2 144.276 56.3833 144.642 56.75C145.009 57.1167 145.192 57.6333 145.192 58.3C145.192 58.9667 145.009 59.4833 144.642 59.85C144.276 60.2167 143.759 60.4 143.092 60.4ZM171.464 66.7C171.531 66.7 171.564 66.8 171.564 67C171.564 67.2 171.531 67.3 171.464 67.3C170.597 67.3 169.864 67.5667 169.264 68.1C168.697 68.6333 168.147 69.5833 167.614 70.95L161.364 85.95C161.297 86.1167 161.114 86.2 160.814 86.2C160.514 86.2 160.331 86.1167 160.264 85.95L153.264 70.85C152.597 69.4167 152.031 68.4667 151.564 68C151.131 67.5333 150.581 67.3 149.914 67.3C149.814 67.3 149.764 67.2 149.764 67C149.764 66.8 149.814 66.7 149.914 66.7C150.581 66.7 151.097 66.7167 151.464 66.75L153.364 66.8L156.614 66.75C157.114 66.7167 157.781 66.7 158.614 66.7C158.714 66.7 158.764 66.8 158.764 67C158.764 67.2 158.714 67.3 158.614 67.3C156.614 67.3 155.614 67.7 155.614 68.5C155.614 68.7333 155.681 68.9833 155.814 69.25L162.214 82.85L160.764 84.9L166.614 70.7C166.847 70.0667 166.964 69.5833 166.964 69.25C166.964 68.5833 166.647 68.1 166.014 67.8C165.381 67.4667 164.381 67.3 163.014 67.3C162.947 67.3 162.914 67.2 162.914 67C162.914 66.8 162.947 66.7 163.014 66.7C163.914 66.7 164.597 66.7167 165.064 66.75L168.064 66.8L169.814 66.75C170.147 66.7167 170.697 66.7 171.464 66.7ZM183.144 86.65C181.21 86.65 179.494 86.1833 177.994 85.25C176.527 84.2833 175.394 83 174.594 81.4C173.794 79.7667 173.394 78 173.394 76.1C173.394 73.9333 173.91 72.1 174.944 70.6C176.01 69.0667 177.36 67.9333 178.994 67.2C180.66 66.4333 182.344 66.05 184.044 66.05C186.01 66.05 187.727 66.5333 189.194 67.5C190.66 68.4667 191.777 69.75 192.544 71.35C193.344 72.9167 193.744 74.5833 193.744 76.35C193.744 78.4167 193.26 80.2333 192.294 81.8C191.327 83.3333 190.027 84.5333 188.394 85.4C186.794 86.2333 185.044 86.65 183.144 86.65ZM184.594 85.7C186.427 85.7 187.844 85.05 188.844 83.75C189.844 82.45 190.344 80.45 190.344 77.75C190.344 75.6833 189.994 73.8333 189.294 72.2C188.627 70.5667 187.694 69.3 186.494 68.4C185.294 67.4667 183.927 67 182.394 67C180.594 67 179.194 67.65 178.194 68.95C177.227 70.25 176.744 72.1167 176.744 74.55C176.744 76.5833 177.077 78.45 177.744 80.15C178.41 81.85 179.344 83.2 180.544 84.2C181.744 85.2 183.094 85.7 184.594 85.7ZM39.6 147C39.5 147 39.45 146.9 39.45 146.7C39.45 146.5 39.5 146.4 39.6 146.4C40.6 146.4 41.3333 146.317 41.8 146.15C42.2667 145.95 42.5833 145.617 42.75 145.15C42.95 144.683 43.05 143.95 43.05 142.95V131.7C43.05 130.833 42.9667 130.233 42.8 129.9C42.6333 129.533 42.3167 129.3 41.85 129.2C41.3833 129.067 40.5667 129 39.4 129C39.3 129 39.25 128.9 39.25 128.7C39.25 128.467 39.3 128.35 39.4 128.35C40.7667 128.35 41.6833 128.2 42.15 127.9C42.65 127.567 42.9167 126.967 42.95 126.1C43.1167 120.7 44.1 116.783 45.9 114.35C47.7333 111.917 50.4167 110.7 53.95 110.7C55.65 110.7 57.0333 110.967 58.1 111.5C59.2 112 59.75 112.617 59.75 113.35C59.75 113.85 59.5667 114.25 59.2 114.55C58.8667 114.817 58.4667 114.95 58 114.95C57.6 114.95 57.25 114.85 56.95 114.65C56.6833 114.45 56.3833 114.117 56.05 113.65C55.5167 112.95 54.95 112.433 54.35 112.1C53.7833 111.733 53.0667 111.55 52.2 111.55C50.2667 111.55 48.7333 112.667 47.6 114.9C46.4667 117.133 45.9 120.517 45.9 125.05V142.95C45.9 143.983 46.0167 144.733 46.25 145.2C46.4833 145.667 46.9333 145.983 47.6 146.15C48.2667 146.317 49.3333 146.4 50.8 146.4C50.9 146.4 50.95 146.5 50.95 146.7C50.95 146.9 50.9 147 50.8 147L47.6 146.95C46.9 146.917 45.8333 146.9 44.4 146.9L41.6 146.95C41.1333 146.983 40.4667 147 39.6 147ZM52.15 130.15C50.0167 129.617 47.5167 129.35 44.65 129.35V128.25C46.6833 128.25 49.2333 128.083 52.3 127.75C52.4 127.75 52.4833 127.867 52.55 128.1C52.6167 128.333 52.65 128.617 52.65 128.95C52.65 129.217 52.6 129.5 52.5 129.8C52.4 130.067 52.2833 130.183 52.15 130.15ZM64.7844 147.65C62.851 147.65 61.1344 147.183 59.6344 146.25C58.1677 145.283 57.0344 144 56.2344 142.4C55.4344 140.767 55.0344 139 55.0344 137.1C55.0344 134.933 55.551 133.1 56.5844 131.6C57.651 130.067 59.001 128.933 60.6344 128.2C62.301 127.433 63.9844 127.05 65.6844 127.05C67.651 127.05 69.3677 127.533 70.8344 128.5C72.301 129.467 73.4177 130.75 74.1844 132.35C74.9844 133.917 75.3844 135.583 75.3844 137.35C75.3844 139.417 74.901 141.233 73.9344 142.8C72.9677 144.333 71.6677 145.533 70.0344 146.4C68.4344 147.233 66.6844 147.65 64.7844 147.65ZM66.2344 146.7C68.0677 146.7 69.4844 146.05 70.4844 144.75C71.4844 143.45 71.9844 141.45 71.9844 138.75C71.9844 136.683 71.6344 134.833 70.9344 133.2C70.2677 131.567 69.3344 130.3 68.1344 129.4C66.9344 128.467 65.5677 128 64.0344 128C62.2344 128 60.8344 128.65 59.8344 129.95C58.8677 131.25 58.3844 133.117 58.3844 135.55C58.3844 137.583 58.7177 139.45 59.3844 141.15C60.051 142.85 60.9844 144.2 62.1844 145.2C63.3844 146.2 64.7344 146.7 66.2344 146.7ZM86.5602 147.6C85.1602 147.6 84.0102 147.283 83.1102 146.65C82.2102 146.017 81.7602 144.967 81.7602 143.5V131.75C81.7602 130.883 81.6935 130.267 81.5602 129.9C81.4602 129.533 81.2435 129.3 80.9102 129.2C80.5768 129.067 80.0102 129 79.2102 129C79.0768 129 79.0102 128.9 79.0102 128.7C79.0102 128.467 79.0768 128.35 79.2102 128.35C80.5435 128.317 81.6268 127.967 82.4602 127.3C83.2935 126.6 83.7768 125.683 83.9102 124.55C83.9102 124.45 84.0435 124.4 84.3102 124.4C84.5435 124.4 84.6602 124.45 84.6602 124.55V141.8C84.6602 144.5 85.9768 145.85 88.6102 145.85C90.1435 145.85 91.4768 145.383 92.6102 144.45L92.7102 144.4C92.8435 144.4 92.9435 144.483 93.0102 144.65C93.0768 144.783 93.0602 144.883 92.9602 144.95C91.7268 145.917 90.6102 146.6 89.6102 147C88.6435 147.4 87.6268 147.6 86.5602 147.6ZM91.4102 130.15C89.2768 129.617 86.7435 129.35 83.8102 129.35V128.25C85.9102 128.25 88.5102 128.083 91.6102 127.75C91.6768 127.75 91.7435 127.883 91.8102 128.15C91.9102 128.383 91.9602 128.65 91.9602 128.95C91.9602 129.217 91.8935 129.5 91.7602 129.8C91.6602 130.067 91.5435 130.183 91.4102 130.15ZM105.605 147.65C103.671 147.65 101.955 147.183 100.455 146.25C98.988 145.283 97.8547 144 97.0547 142.4C96.2547 140.767 95.8547 139 95.8547 137.1C95.8547 134.933 96.3714 133.1 97.4047 131.6C98.4714 130.067 99.8214 128.933 101.455 128.2C103.121 127.433 104.805 127.05 106.505 127.05C108.471 127.05 110.188 127.533 111.655 128.5C113.121 129.467 114.238 130.75 115.005 132.35C115.805 133.917 116.205 135.583 116.205 137.35C116.205 139.417 115.721 141.233 114.755 142.8C113.788 144.333 112.488 145.533 110.855 146.4C109.255 147.233 107.505 147.65 105.605 147.65ZM107.055 146.7C108.888 146.7 110.305 146.05 111.305 144.75C112.305 143.45 112.805 141.45 112.805 138.75C112.805 136.683 112.455 134.833 111.755 133.2C111.088 131.567 110.155 130.3 108.955 129.4C107.755 128.467 106.388 128 104.855 128C103.055 128 101.655 128.65 100.655 129.95C99.688 131.25 99.2047 133.117 99.2047 135.55C99.2047 137.583 99.538 139.45 100.205 141.15C100.871 142.85 101.805 144.2 103.005 145.2C104.205 146.2 105.555 146.7 107.055 146.7ZM126.98 161C124.68 161 122.864 160.483 121.53 159.45C120.23 158.45 119.58 157.133 119.58 155.5C119.58 152.5 122.13 149.55 127.23 146.65L127.78 147.3C126.047 148.167 124.714 149.067 123.78 150C122.88 150.967 122.43 152.25 122.43 153.85C122.43 155.583 122.997 156.95 124.13 157.95C125.297 158.983 126.93 159.5 129.03 159.5C131.33 159.5 133.214 158.883 134.68 157.65C136.147 156.45 136.88 154.833 136.88 152.8C136.88 151.467 136.547 150.483 135.88 149.85C135.247 149.25 134.397 148.867 133.33 148.7C132.297 148.533 130.83 148.45 128.93 148.45C127.097 148.417 125.63 148.333 124.53 148.2C123.43 148.067 122.53 147.733 121.83 147.2C121.164 146.7 120.83 145.917 120.83 144.85C120.83 143.783 121.147 142.833 121.78 142C122.447 141.167 123.514 140.2 124.98 139.1L125.53 139.55C124.73 140.183 124.164 140.767 123.83 141.3C123.497 141.833 123.33 142.417 123.33 143.05C123.33 143.817 123.58 144.4 124.08 144.8C124.58 145.2 125.38 145.483 126.48 145.65C127.614 145.783 129.214 145.85 131.28 145.85C132.78 145.85 134.097 145.95 135.23 146.15C136.364 146.317 137.33 146.767 138.13 147.5C138.964 148.267 139.38 149.4 139.38 150.9C139.38 152.7 138.797 154.367 137.63 155.9C136.464 157.467 134.914 158.7 132.98 159.6C131.08 160.533 129.08 161 126.98 161ZM128.43 140.35C126.864 140.35 125.497 140.067 124.33 139.5C123.197 138.9 122.33 138.1 121.73 137.1C121.13 136.1 120.83 135.017 120.83 133.85C120.83 131.983 121.564 130.433 123.03 129.2C124.53 127.967 126.447 127.35 128.78 127.35C130.48 127.35 131.88 127.667 132.98 128.3C134.114 128.9 134.947 129.7 135.48 130.7C136.014 131.667 136.28 132.683 136.28 133.75C136.28 134.917 135.947 136.017 135.28 137.05C134.647 138.05 133.73 138.85 132.53 139.45C131.364 140.05 129.997 140.35 128.43 140.35ZM129.38 139.6C130.514 139.6 131.414 139.217 132.08 138.45C132.78 137.65 133.13 136.45 133.13 134.85C133.13 132.783 132.597 131.15 131.53 129.95C130.464 128.717 129.147 128.1 127.58 128.1C126.414 128.1 125.497 128.467 124.83 129.2C124.197 129.933 123.88 131.083 123.88 132.65C123.88 134.15 124.147 135.433 124.68 136.5C125.214 137.533 125.897 138.317 126.73 138.85C127.597 139.35 128.48 139.6 129.38 139.6ZM133.08 129.45C134.214 128.717 135.247 128.183 136.18 127.85C137.147 127.483 138.197 127.3 139.33 127.3C139.397 127.3 139.447 127.417 139.48 127.65C139.547 127.883 139.58 128.133 139.58 128.4C139.58 128.8 139.53 129.2 139.43 129.6C139.364 130 139.264 130.167 139.13 130.1C138.564 129.867 138.014 129.683 137.48 129.55C136.98 129.417 136.414 129.35 135.78 129.35C135.114 129.35 134.347 129.467 133.48 129.7L133.03 131.1L133.08 129.45ZM147.196 132.9C148.963 130.7 150.329 129.217 151.296 128.45C152.263 127.65 153.163 127.25 153.996 127.25C154.729 127.25 155.429 127.45 156.096 127.85C156.763 128.25 157.096 128.733 157.096 129.3C157.096 129.733 156.946 130.1 156.646 130.4C156.346 130.7 155.946 130.85 155.446 130.85C155.146 130.85 154.879 130.8 154.646 130.7C154.446 130.567 154.196 130.383 153.896 130.15C153.596 129.883 153.313 129.683 153.046 129.55C152.779 129.417 152.463 129.35 152.096 129.35C151.596 129.35 151.046 129.6 150.446 130.1C149.846 130.6 148.829 131.717 147.396 133.45L147.196 132.9ZM142.496 147C142.396 147 142.346 146.9 142.346 146.7C142.346 146.5 142.396 146.4 142.496 146.4C143.396 146.4 144.063 146.317 144.496 146.15C144.929 145.95 145.213 145.617 145.346 145.15C145.513 144.683 145.596 143.95 145.596 142.95V133.05C145.596 131.917 145.463 131.1 145.196 130.6C144.929 130.1 144.479 129.85 143.846 129.85C143.313 129.85 142.413 130.1 141.146 130.6H141.046C140.913 130.6 140.813 130.533 140.746 130.4C140.713 130.233 140.763 130.117 140.896 130.05L146.696 127.3C146.763 127.267 146.863 127.25 146.996 127.25C147.296 127.25 147.613 127.633 147.946 128.4C148.279 129.167 148.446 130.15 148.446 131.35V142.95C148.446 143.95 148.563 144.683 148.796 145.15C149.063 145.617 149.529 145.95 150.196 146.15C150.863 146.317 151.896 146.4 153.296 146.4C153.429 146.4 153.496 146.5 153.496 146.7C153.496 146.9 153.429 147 153.296 147C152.229 147 151.379 146.983 150.746 146.95L147.046 146.9L144.296 146.95C143.863 146.983 143.263 147 142.496 147ZM174.159 147.3C174.026 147.367 173.892 147.4 173.759 147.4C173.259 147.4 172.826 147.017 172.459 146.25C172.092 145.483 171.909 144.467 171.909 143.2V133.75C171.909 130.017 170.859 128.15 168.759 128.15C167.626 128.15 166.759 128.533 166.159 129.3C165.592 130.033 165.209 130.883 165.009 131.85C164.876 132.483 164.676 132.983 164.409 133.35C164.176 133.717 163.742 133.9 163.109 133.9C162.576 133.9 162.159 133.75 161.859 133.45C161.592 133.15 161.459 132.8 161.459 132.4C161.459 131.6 161.976 130.8 163.009 130C164.042 129.2 165.276 128.533 166.709 128C168.142 127.467 169.426 127.2 170.559 127.2C171.926 127.2 172.959 127.633 173.659 128.5C174.359 129.367 174.709 130.617 174.709 132.25V141.6C174.709 142.767 174.859 143.617 175.159 144.15C175.459 144.683 175.942 144.95 176.609 144.95C177.276 144.95 178.109 144.733 179.109 144.3H179.209C179.342 144.3 179.426 144.383 179.459 144.55C179.492 144.683 179.442 144.783 179.309 144.85L174.159 147.3ZM165.159 147.35C163.926 147.35 162.959 147.033 162.259 146.4C161.592 145.733 161.259 144.9 161.259 143.9C161.259 142.9 161.659 142.033 162.459 141.3C163.259 140.567 164.576 139.867 166.409 139.2L172.409 136.95L172.559 137.6L167.259 139.65C166.326 140.017 165.642 140.45 165.209 140.95C164.809 141.417 164.609 141.983 164.609 142.65C164.609 143.45 164.859 144.133 165.359 144.7C165.892 145.233 166.576 145.5 167.409 145.5C168.076 145.5 168.876 145.233 169.809 144.7L172.959 142.8L173.059 143.45L169.359 145.85C168.526 146.383 167.792 146.767 167.159 147C166.526 147.233 165.859 147.35 165.159 147.35ZM168.959 123.3C168.959 123.367 168.892 123.4 168.759 123.4C168.659 123.4 168.559 123.383 168.459 123.35C168.392 123.283 168.376 123.233 168.409 123.2L171.009 111.2C171.042 111.067 171.376 110.917 172.009 110.75C172.642 110.55 173.176 110.45 173.609 110.45C173.909 110.45 174.042 110.517 174.009 110.65L168.959 123.3ZM181.006 147C180.906 147 180.856 146.9 180.856 146.7C180.856 146.5 180.906 146.4 181.006 146.4C182.006 146.4 182.74 146.317 183.206 146.15C183.673 145.95 183.99 145.617 184.156 145.15C184.356 144.683 184.456 143.95 184.456 142.95V131.7C184.456 130.833 184.373 130.233 184.206 129.9C184.04 129.533 183.723 129.3 183.256 129.2C182.79 129.067 181.973 129 180.806 129C180.706 129 180.656 128.9 180.656 128.7C180.656 128.467 180.706 128.35 180.806 128.35C182.173 128.35 183.09 128.2 183.556 127.9C184.056 127.567 184.323 126.967 184.356 126.1C184.723 115.833 188.69 110.7 196.256 110.7C198.09 110.7 199.59 111.083 200.756 111.85C201.956 112.583 202.556 113.45 202.556 114.45C202.556 114.95 202.423 115.333 202.156 115.6C201.89 115.867 201.523 116 201.056 116C200.556 116 200.156 115.85 199.856 115.55C199.556 115.25 199.256 114.817 198.956 114.25C198.423 113.383 197.856 112.717 197.256 112.25C196.69 111.783 195.806 111.55 194.606 111.55C192.373 111.55 190.59 112.667 189.256 114.9C187.956 117.133 187.306 120.517 187.306 125.05V142.95C187.306 143.983 187.423 144.733 187.656 145.2C187.89 145.667 188.34 145.983 189.006 146.15C189.673 146.317 190.74 146.4 192.206 146.4C192.306 146.4 192.356 146.5 192.356 146.7C192.356 146.9 192.306 147 192.206 147L189.006 146.95C188.306 146.917 187.24 146.9 185.806 146.9L183.006 146.95C182.54 146.983 181.873 147 181.006 147ZM193.556 130.25C191.156 129.517 188.823 129.15 186.556 129.15V128.25C188.423 128.25 190.806 128.083 193.706 127.75C193.806 127.75 193.89 127.883 193.956 128.15C194.023 128.383 194.056 128.65 194.056 128.95C194.056 129.25 193.99 129.567 193.856 129.9C193.723 130.2 193.623 130.317 193.556 130.25ZM196.906 147C196.806 147 196.756 146.9 196.756 146.7C196.756 146.5 196.806 146.4 196.906 146.4C197.806 146.4 198.473 146.317 198.906 146.15C199.34 145.95 199.64 145.617 199.806 145.15C199.973 144.65 200.056 143.917 200.056 142.95V133.6C200.056 132.4 199.94 131.533 199.706 131C199.473 130.467 199.056 130.2 198.456 130.2C197.956 130.2 197.19 130.433 196.156 130.9H196.106C195.94 130.9 195.823 130.817 195.756 130.65C195.723 130.483 195.773 130.367 195.906 130.3L202.406 127.25C202.44 127.217 202.49 127.2 202.556 127.2C202.656 127.2 202.74 127.25 202.806 127.35C202.906 127.45 202.956 127.55 202.956 127.65C202.956 127.883 202.94 128.55 202.906 129.65C202.873 130.75 202.856 132.05 202.856 133.55V142.95C202.856 143.95 202.94 144.683 203.106 145.15C203.273 145.617 203.573 145.95 204.006 146.15C204.44 146.317 205.106 146.4 206.006 146.4C206.106 146.4 206.156 146.5 206.156 146.7C206.156 146.9 206.106 147 206.006 147C205.24 147 204.623 146.983 204.156 146.95L201.456 146.9L198.756 146.95C198.29 146.983 197.673 147 196.906 147ZM219.374 147.6C217.208 147.6 215.391 147.133 213.924 146.2C212.458 145.233 211.374 144 210.674 142.5C209.974 141 209.624 139.417 209.624 137.75C209.624 135.617 210.158 133.767 211.224 132.2C212.291 130.6 213.658 129.383 215.324 128.55C217.024 127.683 218.758 127.25 220.524 127.25C221.991 127.25 223.324 127.55 224.524 128.15C225.758 128.717 226.374 129.433 226.374 130.3C226.374 130.733 226.208 131.117 225.874 131.45C225.574 131.75 225.158 131.9 224.624 131.9C223.724 131.9 222.991 131.35 222.424 130.25C221.991 129.583 221.524 129.083 221.024 128.75C220.524 128.417 219.808 128.25 218.874 128.25C217.008 128.25 215.541 128.983 214.474 130.45C213.441 131.883 212.924 133.817 212.924 136.25C212.924 139.05 213.624 141.35 215.024 143.15C216.424 144.95 218.524 145.85 221.324 145.85C223.358 145.85 225.058 145.3 226.424 144.2H226.474C226.574 144.2 226.658 144.25 226.724 144.35C226.824 144.45 226.841 144.533 226.774 144.6C225.608 145.633 224.424 146.4 223.224 146.9C222.058 147.367 220.774 147.6 219.374 147.6ZM239.638 147.65C237.705 147.65 235.988 147.183 234.488 146.25C233.021 145.283 231.888 144 231.088 142.4C230.288 140.767 229.888 139 229.888 137.1C229.888 134.933 230.405 133.1 231.438 131.6C232.505 130.067 233.855 128.933 235.488 128.2C237.155 127.433 238.838 127.05 240.538 127.05C242.505 127.05 244.221 127.533 245.688 128.5C247.155 129.467 248.271 130.75 249.038 132.35C249.838 133.917 250.238 135.583 250.238 137.35C250.238 139.417 249.755 141.233 248.788 142.8C247.821 144.333 246.521 145.533 244.888 146.4C243.288 147.233 241.538 147.65 239.638 147.65ZM241.088 146.7C242.921 146.7 244.338 146.05 245.338 144.75C246.338 143.45 246.838 141.45 246.838 138.75C246.838 136.683 246.488 134.833 245.788 133.2C245.121 131.567 244.188 130.3 242.988 129.4C241.788 128.467 240.421 128 238.888 128C237.088 128 235.688 128.65 234.688 129.95C233.721 131.25 233.238 133.117 233.238 135.55C233.238 137.583 233.571 139.45 234.238 141.15C234.905 142.85 235.838 144.2 237.038 145.2C238.238 146.2 239.588 146.7 241.088 146.7ZM47.6 208.65C46.2 208.65 44.9 208.25 43.7 207.45C42.5333 206.65 41.5833 205.533 40.85 204.1C40.15 202.633 39.8 200.967 39.8 199.1C39.8 196.733 40.3833 194.717 41.55 193.05C42.7167 191.383 44.1833 190.133 45.95 189.3C47.7167 188.467 49.4667 188.05 51.2 188.05C53.5 188.05 55.5333 188.8 57.3 190.3L56.75 193.65C55.85 192.183 54.8667 191.05 53.8 190.25C52.7333 189.45 51.4167 189.05 49.85 189.05C47.75 189.05 46.0833 189.8 44.85 191.3C43.65 192.767 43.05 194.867 43.05 197.6C43.05 199.433 43.3333 201.05 43.9 202.45C44.4667 203.85 45.2333 204.933 46.2 205.7C47.2 206.467 48.3167 206.85 49.55 206.85C50.9167 206.85 52.1667 206.483 53.3 205.75C54.4333 205.017 55.6167 203.967 56.85 202.6L57.25 202.95C55.7167 204.683 54.2167 206.067 52.75 207.1C51.2833 208.133 49.5667 208.65 47.6 208.65ZM58.8 202.5C58.8 203.7 58.9333 204.567 59.2 205.1C59.5 205.633 59.9667 205.9 60.6 205.9C61.5667 205.9 62.4333 205.667 63.2 205.2L63.3 205.15C63.4333 205.15 63.5167 205.233 63.55 205.4C63.6167 205.567 63.6 205.683 63.5 205.75L58 208.35C57.8667 208.417 57.7333 208.45 57.6 208.45C57.1667 208.45 56.7833 208.05 56.45 207.25C56.15 206.45 56 205.35 56 203.95V178.15C56 176.95 55.8667 176.083 55.6 175.55C55.3667 175.017 54.95 174.75 54.35 174.75C53.9167 174.75 53.15 174.983 52.05 175.45H51.95C51.8167 175.45 51.7167 175.383 51.65 175.25C51.6167 175.083 51.65 174.967 51.75 174.9L58.1 171.8C58.1667 171.767 58.25 171.75 58.35 171.75C58.45 171.75 58.55 171.8 58.65 171.9C58.75 171.967 58.8 172.05 58.8 172.15V202.5ZM74.5359 208.6C72.6026 208.6 70.9526 208.15 69.5859 207.25C68.2193 206.35 67.1693 205.167 66.4359 203.7C65.7359 202.233 65.3859 200.667 65.3859 199C65.3859 197.033 65.8526 195.233 66.7859 193.6C67.7193 191.933 68.9859 190.633 70.5859 189.7C72.2193 188.733 74.0026 188.25 75.9359 188.25C77.8026 188.25 79.2359 188.75 80.2359 189.75C81.2359 190.75 81.7359 192.15 81.7359 193.95C81.7359 194.417 81.6859 194.75 81.5859 194.95C81.5193 195.15 81.3693 195.25 81.1359 195.25H78.3359L78.3859 194.35C78.3859 192.683 78.0193 191.417 77.2859 190.55C76.5526 189.683 75.5526 189.25 74.2859 189.25C72.5193 189.25 71.1359 189.95 70.1359 191.35C69.1693 192.75 68.6859 194.667 68.6859 197.1C68.6859 200 69.3693 202.35 70.7359 204.15C72.1026 205.95 74.0193 206.85 76.4859 206.85C77.4859 206.85 78.3359 206.717 79.0359 206.45C79.7693 206.183 80.5859 205.767 81.4859 205.2H81.5359C81.6359 205.2 81.7193 205.267 81.7859 205.4C81.8859 205.5 81.9026 205.6 81.8359 205.7C79.5693 207.633 77.1359 208.6 74.5359 208.6ZM67.7359 194.65L79.0859 194.45V195.25L67.7859 195.3L67.7359 194.65ZM102.965 182.6C102.965 183.9 103.282 185.033 103.915 186C104.548 186.967 105.315 187.783 106.215 188.45C107.115 189.083 108.382 189.9 110.015 190.9C111.748 191.933 113.098 192.8 114.065 193.5C115.032 194.2 115.848 195.1 116.515 196.2C117.215 197.267 117.565 198.55 117.565 200.05C117.565 201.65 117.165 203.1 116.365 204.4C115.565 205.7 114.382 206.733 112.815 207.5C111.282 208.233 109.432 208.6 107.265 208.6C104.698 208.6 102.348 208.017 100.215 206.85C100.048 206.75 99.9315 206.633 99.8648 206.5C99.8315 206.367 99.7982 206.167 99.7648 205.9L99.1148 199.1C99.0815 198.967 99.1482 198.883 99.3148 198.85C99.5148 198.817 99.6315 198.867 99.6648 199C100.165 201.367 101.148 203.433 102.615 205.2C104.082 206.933 106.015 207.8 108.415 207.8C110.082 207.8 111.482 207.35 112.615 206.45C113.782 205.517 114.365 204.05 114.365 202.05C114.365 200.55 114.032 199.25 113.365 198.15C112.698 197.05 111.882 196.15 110.915 195.45C109.982 194.717 108.698 193.867 107.065 192.9C105.465 191.933 104.198 191.1 103.265 190.4C102.365 189.7 101.598 188.817 100.965 187.75C100.332 186.683 100.015 185.433 100.015 184C100.015 182.333 100.448 180.917 101.315 179.75C102.215 178.55 103.365 177.667 104.765 177.1C106.198 176.5 107.715 176.2 109.315 176.2C111.282 176.2 113.232 176.6 115.165 177.4C115.665 177.567 115.915 177.85 115.915 178.25L116.265 183.95C116.265 184.117 116.165 184.2 115.965 184.2C115.798 184.2 115.698 184.133 115.665 184C115.432 182.267 114.732 180.667 113.565 179.2C112.398 177.7 110.715 176.95 108.515 176.95C106.648 176.95 105.248 177.5 104.315 178.6C103.415 179.667 102.965 181 102.965 182.6ZM135.975 208.3C135.842 208.367 135.709 208.4 135.575 208.4C135.075 208.4 134.642 208.017 134.275 207.25C133.909 206.483 133.725 205.467 133.725 204.2V194.75C133.725 191.017 132.675 189.15 130.575 189.15C129.442 189.15 128.575 189.533 127.975 190.3C127.409 191.033 127.025 191.883 126.825 192.85C126.692 193.483 126.492 193.983 126.225 194.35C125.992 194.717 125.559 194.9 124.925 194.9C124.392 194.9 123.975 194.75 123.675 194.45C123.409 194.15 123.275 193.8 123.275 193.4C123.275 192.6 123.792 191.8 124.825 191C125.859 190.2 127.092 189.533 128.525 189C129.959 188.467 131.242 188.2 132.375 188.2C133.742 188.2 134.775 188.633 135.475 189.5C136.175 190.367 136.525 191.617 136.525 193.25V202.6C136.525 203.767 136.675 204.617 136.975 205.15C137.275 205.683 137.759 205.95 138.425 205.95C139.092 205.95 139.925 205.733 140.925 205.3H141.025C141.159 205.3 141.242 205.383 141.275 205.55C141.309 205.683 141.259 205.783 141.125 205.85L135.975 208.3ZM126.975 208.35C125.742 208.35 124.775 208.033 124.075 207.4C123.409 206.733 123.075 205.9 123.075 204.9C123.075 203.9 123.475 203.033 124.275 202.3C125.075 201.567 126.392 200.867 128.225 200.2L134.225 197.95L134.375 198.6L129.075 200.65C128.142 201.017 127.459 201.45 127.025 201.95C126.625 202.417 126.425 202.983 126.425 203.65C126.425 204.45 126.675 205.133 127.175 205.7C127.709 206.233 128.392 206.5 129.225 206.5C129.892 206.5 130.692 206.233 131.625 205.7L134.775 203.8L134.875 204.45L131.175 206.85C130.342 207.383 129.609 207.767 128.975 208C128.342 208.233 127.675 208.35 126.975 208.35ZM156.923 208C156.823 208 156.773 207.9 156.773 207.7C156.773 207.5 156.823 207.4 156.923 207.4C157.823 207.4 158.489 207.317 158.923 207.15C159.356 206.95 159.639 206.617 159.773 206.15C159.939 205.683 160.023 204.95 160.023 203.95V195.85C160.023 193.85 159.639 192.4 158.873 191.5C158.139 190.567 156.989 190.1 155.423 190.1C154.189 190.1 152.939 190.483 151.673 191.25C150.439 192.017 149.373 193.067 148.473 194.4L148.273 193.8C149.739 191.833 151.189 190.383 152.623 189.45C154.056 188.517 155.539 188.05 157.073 188.05C158.906 188.05 160.323 188.583 161.323 189.65C162.356 190.683 162.873 192.183 162.873 194.15V203.95C162.873 204.95 162.939 205.683 163.073 206.15C163.239 206.617 163.539 206.95 163.973 207.15C164.406 207.317 165.073 207.4 165.973 207.4C166.073 207.4 166.123 207.5 166.123 207.7C166.123 207.9 166.073 208 165.973 208C165.206 208 164.606 207.983 164.173 207.95L161.473 207.9L158.723 207.95C158.289 207.983 157.689 208 156.923 208ZM143.473 208C143.373 208 143.323 207.9 143.323 207.7C143.323 207.5 143.373 207.4 143.473 207.4C144.373 207.4 145.039 207.317 145.473 207.15C145.906 206.95 146.189 206.617 146.323 206.15C146.489 205.683 146.573 204.95 146.573 203.95V194.05C146.573 192.917 146.439 192.1 146.173 191.6C145.906 191.1 145.456 190.85 144.823 190.85C144.289 190.85 143.389 191.1 142.123 191.6H142.023C141.889 191.6 141.789 191.533 141.723 191.4C141.689 191.233 141.739 191.117 141.873 191.05L147.673 188.3C147.739 188.267 147.839 188.25 147.973 188.25C148.273 188.25 148.589 188.633 148.923 189.4C149.256 190.167 149.423 191.15 149.423 192.35V203.95C149.423 204.95 149.489 205.683 149.623 206.15C149.789 206.617 150.089 206.95 150.523 207.15C150.956 207.317 151.623 207.4 152.523 207.4C152.623 207.4 152.673 207.5 152.673 207.7C152.673 207.9 152.623 208 152.523 208C151.756 208 151.156 207.983 150.723 207.95L148.023 207.9L145.273 207.95C144.839 207.983 144.239 208 143.473 208ZM176.453 208.6C175.053 208.6 173.903 208.283 173.003 207.65C172.103 207.017 171.653 205.967 171.653 204.5V192.75C171.653 191.883 171.586 191.267 171.453 190.9C171.353 190.533 171.136 190.3 170.803 190.2C170.469 190.067 169.903 190 169.103 190C168.969 190 168.903 189.9 168.903 189.7C168.903 189.467 168.969 189.35 169.103 189.35C170.436 189.317 171.519 188.967 172.353 188.3C173.186 187.6 173.669 186.683 173.803 185.55C173.803 185.45 173.936 185.4 174.203 185.4C174.436 185.4 174.553 185.45 174.553 185.55V202.8C174.553 205.5 175.869 206.85 178.503 206.85C180.036 206.85 181.369 206.383 182.503 205.45L182.603 205.4C182.736 205.4 182.836 205.483 182.903 205.65C182.969 205.783 182.953 205.883 182.853 205.95C181.619 206.917 180.503 207.6 179.503 208C178.536 208.4 177.519 208.6 176.453 208.6ZM181.303 191.15C179.169 190.617 176.636 190.35 173.703 190.35V189.25C175.803 189.25 178.403 189.083 181.503 188.75C181.569 188.75 181.636 188.883 181.703 189.15C181.803 189.383 181.853 189.65 181.853 189.95C181.853 190.217 181.786 190.5 181.653 190.8C181.553 191.067 181.436 191.183 181.303 191.15ZM199.647 208.3C199.514 208.367 199.381 208.4 199.247 208.4C198.747 208.4 198.314 208.017 197.947 207.25C197.581 206.483 197.397 205.467 197.397 204.2V194.75C197.397 191.017 196.347 189.15 194.247 189.15C193.114 189.15 192.247 189.533 191.647 190.3C191.081 191.033 190.697 191.883 190.497 192.85C190.364 193.483 190.164 193.983 189.897 194.35C189.664 194.717 189.231 194.9 188.597 194.9C188.064 194.9 187.647 194.75 187.347 194.45C187.081 194.15 186.947 193.8 186.947 193.4C186.947 192.6 187.464 191.8 188.497 191C189.531 190.2 190.764 189.533 192.197 189C193.631 188.467 194.914 188.2 196.047 188.2C197.414 188.2 198.447 188.633 199.147 189.5C199.847 190.367 200.197 191.617 200.197 193.25V202.6C200.197 203.767 200.347 204.617 200.647 205.15C200.947 205.683 201.431 205.95 202.097 205.95C202.764 205.95 203.597 205.733 204.597 205.3H204.697C204.831 205.3 204.914 205.383 204.947 205.55C204.981 205.683 204.931 205.783 204.797 205.85L199.647 208.3ZM190.647 208.35C189.414 208.35 188.447 208.033 187.747 207.4C187.081 206.733 186.747 205.9 186.747 204.9C186.747 203.9 187.147 203.033 187.947 202.3C188.747 201.567 190.064 200.867 191.897 200.2L197.897 197.95L198.047 198.6L192.747 200.65C191.814 201.017 191.131 201.45 190.697 201.95C190.297 202.417 190.097 202.983 190.097 203.65C190.097 204.45 190.347 205.133 190.847 205.7C191.381 206.233 192.064 206.5 192.897 206.5C193.564 206.5 194.364 206.233 195.297 205.7L198.447 203.8L198.547 204.45L194.847 206.85C194.014 207.383 193.281 207.767 192.647 208C192.014 208.233 191.347 208.35 190.647 208.35ZM58.55 237.2C60.65 237.2 62.4167 237.35 63.85 237.65C65.2833 237.95 66.7167 238.467 68.15 239.2C68.3833 239.333 68.5167 239.45 68.55 239.55C68.5833 239.65 68.6333 239.9 68.7 240.3L69.3 246.25C69.3 246.35 69.2 246.417 69 246.45C68.8333 246.45 68.7333 246.4 68.7 246.3C67.1667 240.733 63.7333 237.95 58.4 237.95C55.6 237.95 53.1167 238.567 50.95 239.8C48.8167 241.033 47.1667 242.8 46 245.1C44.8333 247.367 44.25 250.017 44.25 253.05C44.25 255.95 44.9 258.617 46.2 261.05C47.5 263.45 49.2333 265.35 51.4 266.75C53.6 268.15 55.9833 268.85 58.55 268.85C61.2833 268.85 63.5 268.183 65.2 266.85C66.9 265.517 68.2 263.483 69.1 260.75C69.1 260.683 69.1833 260.65 69.35 260.65C69.5833 260.65 69.7 260.7 69.7 260.8L69.2 266.3C69.1667 266.7 69.1167 266.95 69.05 267.05C68.9833 267.15 68.85 267.267 68.65 267.4C66.9167 268.233 65.2833 268.817 63.75 269.15C62.25 269.483 60.5167 269.65 58.55 269.65C55.05 269.65 51.9167 268.967 49.15 267.6C46.4167 266.2 44.2833 264.25 42.75 261.75C41.2167 259.25 40.45 256.383 40.45 253.15C40.45 250.017 41.2333 247.25 42.8 244.85C44.3667 242.417 46.5167 240.533 49.25 239.2C52.0167 237.867 55.1167 237.2 58.55 237.2ZM79.2273 254.9C80.994 252.7 82.3607 251.217 83.3273 250.45C84.294 249.65 85.194 249.25 86.0273 249.25C86.7607 249.25 87.4607 249.45 88.1273 249.85C88.794 250.25 89.1273 250.733 89.1273 251.3C89.1273 251.733 88.9773 252.1 88.6773 252.4C88.3773 252.7 87.9773 252.85 87.4773 252.85C87.1773 252.85 86.9107 252.8 86.6773 252.7C86.4773 252.567 86.2273 252.383 85.9273 252.15C85.6273 251.883 85.344 251.683 85.0773 251.55C84.8107 251.417 84.494 251.35 84.1273 251.35C83.6273 251.35 83.0773 251.6 82.4773 252.1C81.8773 252.6 80.8607 253.717 79.4273 255.45L79.2273 254.9ZM74.5273 269C74.4273 269 74.3773 268.9 74.3773 268.7C74.3773 268.5 74.4273 268.4 74.5273 268.4C75.4273 268.4 76.094 268.317 76.5273 268.15C76.9607 267.95 77.244 267.617 77.3773 267.15C77.544 266.683 77.6273 265.95 77.6273 264.95V255.05C77.6273 253.917 77.494 253.1 77.2273 252.6C76.9607 252.1 76.5107 251.85 75.8773 251.85C75.344 251.85 74.444 252.1 73.1773 252.6H73.0773C72.944 252.6 72.844 252.533 72.7773 252.4C72.744 252.233 72.794 252.117 72.9273 252.05L78.7273 249.3C78.794 249.267 78.894 249.25 79.0273 249.25C79.3273 249.25 79.644 249.633 79.9773 250.4C80.3107 251.167 80.4773 252.15 80.4773 253.35V264.95C80.4773 265.95 80.594 266.683 80.8273 267.15C81.094 267.617 81.5607 267.95 82.2273 268.15C82.894 268.317 83.9273 268.4 85.3273 268.4C85.4607 268.4 85.5273 268.5 85.5273 268.7C85.5273 268.9 85.4607 269 85.3273 269C84.2607 269 83.4107 268.983 82.7773 268.95L79.0773 268.9L76.3273 268.95C75.894 268.983 75.294 269 74.5273 269ZM99.5902 269.4C97.9236 269.4 96.6236 268.883 95.6902 267.85C94.7569 266.783 94.2902 265.25 94.2902 263.25V255.6C94.2902 254.3 94.1736 253.367 93.9402 252.8C93.7069 252.2 93.3236 251.9 92.7902 251.9C92.3236 251.9 91.7569 252.067 91.0902 252.4H91.0402C90.9069 252.4 90.8069 252.317 90.7402 252.15C90.6736 251.95 90.7069 251.833 90.8402 251.8L96.3902 249.3L96.5902 249.25C96.6902 249.25 96.7902 249.3 96.8902 249.4C97.0236 249.467 97.0902 249.55 97.0902 249.65V261.6C97.0902 265.467 98.4902 267.4 101.29 267.4C102.557 267.4 103.84 267.017 105.14 266.25C106.44 265.483 107.557 264.45 108.49 263.15L108.74 263.7C107.24 265.667 105.74 267.117 104.24 268.05C102.74 268.95 101.19 269.4 99.5902 269.4ZM110.34 263.65C110.34 264.783 110.474 265.6 110.74 266.1C111.007 266.6 111.457 266.85 112.09 266.85C112.657 266.85 113.54 266.617 114.74 266.15H114.84C114.974 266.15 115.057 266.233 115.09 266.4C115.157 266.533 115.124 266.633 114.99 266.7L109.14 269.45L108.94 269.5C108.607 269.5 108.29 269.117 107.99 268.35C107.69 267.583 107.54 266.583 107.54 265.35V255.6C107.54 254.267 107.424 253.317 107.19 252.75C106.99 252.183 106.607 251.9 106.04 251.9C105.574 251.9 105.007 252.067 104.34 252.4H104.29C104.157 252.4 104.057 252.317 103.99 252.15C103.957 251.95 104.007 251.833 104.14 251.8L109.69 249.3L109.84 249.25C109.94 249.25 110.04 249.3 110.14 249.4C110.274 249.467 110.34 249.55 110.34 249.65V263.65ZM129.248 250.7C129.348 250.467 129.265 250.35 128.998 250.35C126.398 250.35 124.382 250.467 122.948 250.7C121.515 250.9 120.382 251.317 119.548 251.95C118.748 252.583 118.165 253.533 117.798 254.8C117.798 254.867 117.732 254.9 117.598 254.9C117.498 254.9 117.398 254.883 117.298 254.85C117.232 254.783 117.215 254.733 117.248 254.7L118.948 248.25C118.982 248.183 119.082 248.167 119.248 248.2C119.448 248.2 119.532 248.233 119.498 248.3C119.465 248.4 119.448 248.533 119.448 248.7C119.448 249.1 119.632 249.367 119.998 249.5C120.365 249.633 120.998 249.7 121.898 249.7H132.498C132.632 249.7 132.732 249.767 132.798 249.9C132.898 250.033 132.932 250.167 132.898 250.3L121.098 267.9C120.965 268.133 121.048 268.25 121.348 268.25C124.615 268.25 126.932 268.15 128.298 267.95C129.698 267.75 130.715 267.333 131.348 266.7C131.982 266.033 132.548 264.9 133.048 263.3C133.082 263.233 133.182 263.2 133.348 263.2C133.515 263.2 133.598 263.233 133.598 263.3L133.498 268.45C133.498 268.583 133.448 268.717 133.348 268.85C133.282 268.95 133.182 269 133.048 269H117.598C117.465 269 117.348 268.933 117.248 268.8C117.182 268.667 117.182 268.533 117.248 268.4L129.248 250.7ZM149.131 269C149.031 269 148.981 268.9 148.981 268.7C148.981 268.5 149.031 268.4 149.131 268.4C150.031 268.4 150.698 268.317 151.131 268.15C151.564 267.95 151.864 267.617 152.031 267.15C152.198 266.65 152.281 265.917 152.281 264.95V239.1C152.281 237.9 152.164 237.033 151.931 236.5C151.698 235.967 151.281 235.7 150.681 235.7C150.181 235.7 149.414 235.933 148.381 236.4H148.281C148.181 236.4 148.098 236.317 148.031 236.15C147.998 235.983 148.031 235.883 148.131 235.85L154.531 232.8C154.598 232.767 154.681 232.75 154.781 232.75C154.881 232.75 154.981 232.8 155.081 232.9C155.181 232.967 155.231 233.05 155.231 233.15V264.95C155.231 265.917 155.298 266.633 155.431 267.1C155.598 267.567 155.898 267.9 156.331 268.1C156.764 268.3 157.431 268.4 158.331 268.4C158.431 268.4 158.481 268.5 158.481 268.7C158.481 268.9 158.431 269 158.331 269C157.598 269 156.998 268.983 156.531 268.95L153.731 268.9L151.031 268.95C150.564 268.983 149.931 269 149.131 269ZM175.721 269.3C175.588 269.367 175.455 269.4 175.321 269.4C174.821 269.4 174.388 269.017 174.021 268.25C173.655 267.483 173.471 266.467 173.471 265.2V255.75C173.471 252.017 172.421 250.15 170.321 250.15C169.188 250.15 168.321 250.533 167.721 251.3C167.155 252.033 166.771 252.883 166.571 253.85C166.438 254.483 166.238 254.983 165.971 255.35C165.738 255.717 165.305 255.9 164.671 255.9C164.138 255.9 163.721 255.75 163.421 255.45C163.155 255.15 163.021 254.8 163.021 254.4C163.021 253.6 163.538 252.8 164.571 252C165.605 251.2 166.838 250.533 168.271 250C169.705 249.467 170.988 249.2 172.121 249.2C173.488 249.2 174.521 249.633 175.221 250.5C175.921 251.367 176.271 252.617 176.271 254.25V263.6C176.271 264.767 176.421 265.617 176.721 266.15C177.021 266.683 177.505 266.95 178.171 266.95C178.838 266.95 179.671 266.733 180.671 266.3H180.771C180.905 266.3 180.988 266.383 181.021 266.55C181.055 266.683 181.005 266.783 180.871 266.85L175.721 269.3ZM166.721 269.35C165.488 269.35 164.521 269.033 163.821 268.4C163.155 267.733 162.821 266.9 162.821 265.9C162.821 264.9 163.221 264.033 164.021 263.3C164.821 262.567 166.138 261.867 167.971 261.2L173.971 258.95L174.121 259.6L168.821 261.65C167.888 262.017 167.205 262.45 166.771 262.95C166.371 263.417 166.171 263.983 166.171 264.65C166.171 265.45 166.421 266.133 166.921 266.7C167.455 267.233 168.138 267.5 168.971 267.5C169.638 267.5 170.438 267.233 171.371 266.7L174.521 264.8L174.621 265.45L170.921 267.85C170.088 268.383 169.355 268.767 168.721 269C168.088 269.233 167.421 269.35 166.721 269.35ZM65.7 330C64.8667 330 63.2667 328.583 60.9 325.75C58.5667 322.883 55.75 318.95 52.45 313.95L55.25 313.1C58.15 317.267 60.5667 320.517 62.5 322.85C64.4667 325.15 66.2 326.817 67.7 327.85C69.2 328.883 70.6667 329.4 72.1 329.4C72.2 329.4 72.25 329.5 72.25 329.7C72.25 329.9 72.2 330 72.1 330H65.7ZM53.1 298.6C55.7333 298.6 57.7667 299.2 59.2 300.4C60.6333 301.6 61.35 303.2 61.35 305.2C61.35 306.967 60.8333 308.583 59.8 310.05C58.7667 311.483 57.3667 312.633 55.6 313.5C53.8667 314.333 52 314.75 50 314.75C49.8 314.75 49.05 314.7 47.75 314.6V325.95C47.75 326.983 47.85 327.733 48.05 328.2C48.25 328.667 48.6333 328.983 49.2 329.15C49.8 329.317 50.7333 329.4 52 329.4C52.1 329.4 52.15 329.5 52.15 329.7C52.15 329.9 52.1 330 52 330C50.9667 330 50.15 329.983 49.55 329.95L46.1 329.9L42.7 329.95C42.1 329.983 41.25 330 40.15 330C40.0833 330 40.05 329.9 40.05 329.7C40.05 329.5 40.0833 329.4 40.15 329.4C41.4167 329.4 42.35 329.317 42.95 329.15C43.55 328.95 43.9667 328.617 44.2 328.15C44.4333 327.683 44.55 326.95 44.55 325.95V302.8C44.55 301.8 44.4333 301.067 44.2 300.6C44 300.133 43.6 299.817 43 299.65C42.4333 299.45 41.5167 299.35 40.25 299.35C40.15 299.35 40.1 299.25 40.1 299.05C40.1 298.85 40.15 298.75 40.25 298.75L42.7 298.8C44.1 298.867 45.2333 298.9 46.1 298.9C46.8333 298.9 47.5167 298.883 48.15 298.85C48.7833 298.817 49.3167 298.783 49.75 298.75C51.0167 298.65 52.1333 298.6 53.1 298.6ZM57.95 306.65C57.95 304.05 57.3667 302.183 56.2 301.05C55.0667 299.917 53.4 299.35 51.2 299.35C49.9 299.35 49 299.583 48.5 300.05C48 300.517 47.75 301.467 47.75 302.9V313.4C48.55 313.533 49.5333 313.6 50.7 313.6C53.3 313.6 55.15 313.033 56.25 311.9C57.3833 310.767 57.95 309.017 57.95 306.65ZM81.7137 330.6C79.7803 330.6 78.1303 330.15 76.7637 329.25C75.397 328.35 74.347 327.167 73.6137 325.7C72.9137 324.233 72.5637 322.667 72.5637 321C72.5637 319.033 73.0303 317.233 73.9637 315.6C74.897 313.933 76.1637 312.633 77.7637 311.7C79.397 310.733 81.1803 310.25 83.1137 310.25C84.9803 310.25 86.4137 310.75 87.4137 311.75C88.4137 312.75 88.9137 314.15 88.9137 315.95C88.9137 316.417 88.8637 316.75 88.7637 316.95C88.697 317.15 88.547 317.25 88.3137 317.25H85.5137L85.5637 316.35C85.5637 314.683 85.197 313.417 84.4637 312.55C83.7303 311.683 82.7303 311.25 81.4637 311.25C79.697 311.25 78.3137 311.95 77.3137 313.35C76.347 314.75 75.8637 316.667 75.8637 319.1C75.8637 322 76.547 324.35 77.9137 326.15C79.2803 327.95 81.197 328.85 83.6637 328.85C84.6637 328.85 85.5137 328.717 86.2137 328.45C86.947 328.183 87.7637 327.767 88.6637 327.2H88.7137C88.8137 327.2 88.897 327.267 88.9637 327.4C89.0637 327.5 89.0803 327.6 89.0137 327.7C86.747 329.633 84.3137 330.6 81.7137 330.6ZM74.9137 316.65L86.2637 316.45V317.25L74.9637 317.3L74.9137 316.65ZM106.63 330.3C106.496 330.367 106.363 330.4 106.23 330.4C105.73 330.4 105.296 330.017 104.93 329.25C104.563 328.483 104.38 327.467 104.38 326.2V316.75C104.38 313.017 103.33 311.15 101.23 311.15C100.096 311.15 99.2297 311.533 98.6297 312.3C98.063 313.033 97.6797 313.883 97.4797 314.85C97.3464 315.483 97.1464 315.983 96.8797 316.35C96.6464 316.717 96.213 316.9 95.5797 316.9C95.0464 316.9 94.6297 316.75 94.3297 316.45C94.063 316.15 93.9297 315.8 93.9297 315.4C93.9297 314.6 94.4464 313.8 95.4797 313C96.513 312.2 97.7464 311.533 99.1797 311C100.613 310.467 101.896 310.2 103.03 310.2C104.396 310.2 105.43 310.633 106.13 311.5C106.83 312.367 107.18 313.617 107.18 315.25V324.6C107.18 325.767 107.33 326.617 107.63 327.15C107.93 327.683 108.413 327.95 109.08 327.95C109.746 327.95 110.58 327.733 111.58 327.3H111.68C111.813 327.3 111.896 327.383 111.93 327.55C111.963 327.683 111.913 327.783 111.78 327.85L106.63 330.3ZM97.6297 330.35C96.3964 330.35 95.4297 330.033 94.7297 329.4C94.063 328.733 93.7297 327.9 93.7297 326.9C93.7297 325.9 94.1297 325.033 94.9297 324.3C95.7297 323.567 97.0464 322.867 98.8797 322.2L104.88 319.95L105.03 320.6L99.7297 322.65C98.7964 323.017 98.113 323.45 97.6797 323.95C97.2797 324.417 97.0797 324.983 97.0797 325.65C97.0797 326.45 97.3297 327.133 97.8297 327.7C98.363 328.233 99.0464 328.5 99.8797 328.5C100.546 328.5 101.346 328.233 102.28 327.7L105.43 325.8L105.53 326.45L101.83 328.85C100.996 329.383 100.263 329.767 99.6297 330C98.9964 330.233 98.3297 330.35 97.6297 330.35ZM113.877 330C113.777 330 113.727 329.9 113.727 329.7C113.727 329.5 113.777 329.4 113.877 329.4C114.777 329.4 115.444 329.317 115.877 329.15C116.31 328.95 116.61 328.617 116.777 328.15C116.944 327.65 117.027 326.917 117.027 325.95V300.1C117.027 298.9 116.91 298.033 116.677 297.5C116.444 296.967 116.027 296.7 115.427 296.7C114.927 296.7 114.16 296.933 113.127 297.4H113.027C112.927 297.4 112.844 297.317 112.777 297.15C112.744 296.983 112.777 296.883 112.877 296.85L119.277 293.8C119.344 293.767 119.427 293.75 119.527 293.75C119.627 293.75 119.727 293.8 119.827 293.9C119.927 293.967 119.977 294.05 119.977 294.15V325.95C119.977 326.917 120.044 327.633 120.177 328.1C120.344 328.567 120.644 328.9 121.077 329.1C121.51 329.3 122.177 329.4 123.077 329.4C123.177 329.4 123.227 329.5 123.227 329.7C123.227 329.9 123.177 330 123.077 330C122.344 330 121.744 329.983 121.277 329.95L118.477 329.9L115.777 329.95C115.31 329.983 114.677 330 113.877 330Z" fill="#333333"/>
</svg>
